<?xml version="1.0" standalone="no"?><!DOCTYPE svg PUBLIC "-//W3C//DTD SVG 1.1//EN" "http://www.w3.org/Graphics/SVG/1.1/DTD/svg11.dtd" ><svg xmlns="http://www.w3.org/2000/svg"><metadata></metadata><defs><font id="Founder:FZLanTingHeiS-L-GB	Regular" horiz-adv-x="267"><font-face font-family="FZLanTingHeiS-L-GB" font-weight="400" font-stretch="normal" units-per-em="256" panose-1="2 0 0 0 0 0 0 0 0 0" ascent="229" descent="-66" x-height="0" bbox="-15 -65 263 216" underline-thickness="12" underline-position="-54" unicode-range="U+0027-ff1a" /><missing-glyph horiz-adv-x="256" d="M51 -10 l-21 0 l0 24 l21 0 l0 -24 ZM52 191 l-4 -147 l-15 0 l-4 147 l23 0 Z" /><glyph glyph-name="" unicode="&#39;" d="M35 193 l-4 -72 l-14 0 l-4 72 l22 0 Z" /><glyph glyph-name="" unicode="(" d="M86 -52 l-16 0 q-50 50 -52 131 q2 84 52 132 l16 0 q-52 -56 -51 -132 q-1 -76 51 -131 Z" /><glyph glyph-name="" unicode=")" d="M10 211 l16 0 q50 -48 52 -132 q-1 -81 -52 -131 l-16 0 q51 54 50 131 q1 77 -50 132 Z" /><glyph glyph-name="" unicode="," d="M26 -57 l-7 7 q22 18 21 42 l-15 0 l0 27 l27 0 q0 -7 0 -23 q1 -36 -26 -53 Z" /><glyph glyph-name="" unicode="-" d="M153 82 l-136 0 l0 15 l136 0 l0 -15 Z" /><glyph glyph-name="" unicode="." d="M52 18 l0 -27 l-27 0 l0 27 l27 0 Z" /><glyph glyph-name="" unicode="0" d="M80 194 q67 0 67 -104 q-1 -101 -66 -103 q-68 1 -69 103 q2 101 68 104 ZM80 1 q48 -1 48 89 q1 89 -49 88 q-47 -1 -47 -88 q0 -90 48 -89 Z" /><glyph glyph-name="" unicode="1" d="M68 -10 l0 169 q-16 -20 -60 -41 l0 17 q51 25 65 59 l14 0 l0 -204 l-19 0 Z" /><glyph glyph-name="" unicode="2" d="M31 5 l112 0 l0 -14 l-134 0 l0 10 q21 43 65 75 q54 38 49 61 q-1 40 -46 41 q-36 0 -47 -41 l-17 8 q15 50 68 49 q57 -2 61 -54 q5 -35 -51 -73 q-39 -26 -60 -62 Z" /><glyph glyph-name="" unicode="3" d="M10 40 l19 5 q7 -44 49 -44 q48 1 49 47 q-1 37 -52 38 q-15 0 -19 0 l0 16 q5 0 12 0 q51 0 51 39 q-1 37 -40 38 q-40 1 -46 -41 l-19 5 q12 50 65 51 q57 -2 60 -52 q-2 -37 -38 -46 l0 -1 q43 -8 45 -49 q-2 -56 -67 -58 q-59 0 -69 52 Z" /><glyph glyph-name="" unicode="4" d="M120 54 l28 0 l0 -16 l-28 0 l0 -48 l-17 0 l0 48 l-99 0 l0 11 l101 145 l15 0 l0 -140 ZM24 54 l40 0 l39 0 l0 56 l0 35 q0 11 0 24 q0 -1 -1 -2 q0 0 -1 -2 q0 -1 -3 -5 q0 -1 -2 -3 q-3 -5 -5 -9 q-4 -5 -14 -19 q-9 -13 -14 -20 q-1 -2 -4 -5 q-2 -4 -4 -6 q-4 -6 -12 -17 q-17 -24 -19 -27 Z" /><glyph glyph-name="" unicode="5" d="M11 41 l18 5 q7 -45 50 -45 q48 2 50 54 q-2 51 -50 52 q-32 0 -46 -25 l-14 2 l11 106 l107 0 l0 -16 l-91 0 l-8 -71 q18 20 46 20 q61 -3 64 -66 q-3 -67 -67 -70 q-57 0 -70 54 Z" /><glyph glyph-name="" unicode="6" d="M144 148 l-18 -5 q-10 36 -43 36 q-54 -1 -54 -91 q19 33 58 33 q57 -4 61 -66 q-4 -64 -65 -68 q-73 -1 -72 97 q0 110 74 110 q45 -1 59 -46 ZM81 1 q46 2 48 52 q-2 51 -46 53 q-49 -3 -53 -45 q2 -57 51 -60 Z" /><glyph glyph-name="" unicode="7" d="M68 -10 l-21 0 q12 86 77 184 l-111 0 l0 16 l134 0 l0 -12 q-70 -97 -79 -188 Z" /><glyph glyph-name="" unicode="8" d="M110 95 l0 -1 q39 -12 41 -53 q-2 -52 -70 -54 q-66 2 -69 56 q4 41 41 51 q0 1 0 1 q-31 11 -33 45 q4 51 61 54 q56 -4 62 -54 q-2 -34 -33 -45 ZM81 0 q48 2 50 41 q-2 43 -50 46 q-47 -1 -49 -44 q2 -41 49 -43 ZM81 179 q-39 -2 -41 -38 q1 -38 41 -40 q40 3 42 39 q-2 37 -42 39 Z" /><glyph glyph-name="" unicode="9" d="M16 31 l17 5 q9 -36 43 -35 q54 0 54 90 q-17 -32 -58 -33 q-56 4 -60 66 q4 66 65 70 q72 1 71 -98 q0 -109 -74 -109 q-46 2 -58 44 ZM129 119 q-2 58 -51 60 q-45 -2 -47 -53 q2 -50 46 -52 q48 3 52 45 Z" /><glyph glyph-name="" unicode=":" d="M52 -5 l-27 0 l0 27 l27 0 l0 -27 ZM52 105 l-27 0 l0 29 l27 0 l0 -29 Z" /><glyph glyph-name="" unicode=";" d="M53 134 l0 -29 l-28 0 l0 29 l28 0 ZM26 -55 l-7 8 q22 15 22 41 l-16 0 l0 28 l27 0 q0 -7 0 -23 q1 -37 -26 -54 Z" /><glyph glyph-name="" unicode="=" d="M150 113 l-134 0 l0 15 l134 0 l0 -15 ZM150 51 l-134 0 l0 16 l134 0 l0 -16 Z" /><glyph glyph-name="" unicode="?" d="M86 -8 l-22 0 l0 22 l22 0 l0 -22 ZM84 43 l-17 0 q0 3 0 10 q-1 29 26 46 q32 21 30 44 q-3 34 -40 36 q-43 1 -52 -43 l-19 5 q13 56 74 54 q53 -3 57 -52 q3 -31 -38 -54 q-22 -14 -21 -37 q0 -7 0 -9 Z" /><glyph glyph-name="" unicode="a" d="M106 191 l85 -201 l-21 0 l-26 62 l-97 0 l-26 -62 l-21 0 l84 201 l22 0 ZM96 173 l-1 0 l-42 -105 l85 0 l-42 105 Z" /><glyph glyph-name="" unicode="b" d="M107 -10 l-86 0 l0 201 l81 0 q59 -3 64 -48 q0 -40 -42 -47 l0 -1 q49 -8 51 -50 q-1 -54 -68 -55 ZM100 87 l-60 0 l0 -82 l63 0 q52 0 52 43 q-4 37 -55 39 ZM97 176 l-57 0 l0 -74 l57 0 q48 1 49 39 q-1 34 -49 35 Z" /><glyph glyph-name="" unicode="c" d="M189 135 l-20 -5 q-16 45 -63 47 q-66 -6 -71 -87 q4 -82 70 -88 q55 0 67 57 l21 -6 q-16 -65 -87 -66 q-87 6 -92 101 q5 101 94 106 q60 -2 81 -59 Z" /><glyph glyph-name="" unicode="d" d="M92 -10 l-71 0 l0 201 l72 0 q93 -3 96 -100 q2 -103 -97 -101 ZM92 175 l-51 0 l0 -170 l50 0 q78 -1 78 85 q-2 82 -77 85 Z" /><glyph glyph-name="" unicode="e" d="M173 -10 l-150 0 l0 201 l145 0 l0 -16 l-126 0 l0 -73 l119 0 l0 -16 l-119 0 l0 -81 l131 0 l0 -15 Z" /><glyph glyph-name="" unicode="g" d="M201 95 l0 -73 q-23 -34 -86 -35 q-95 5 -100 103 q4 99 96 104 q68 -1 90 -58 l-21 -6 q-15 47 -70 47 q-70 -5 -74 -88 q4 -81 78 -87 q49 1 69 27 l0 50 l-70 0 l0 16 l88 0 Z" /><glyph glyph-name="" unicode="h" d="M183 -10 l-19 0 l0 95 l-122 0 l0 -95 l-19 0 l0 201 l19 0 l0 -89 l122 0 l0 89 l19 0 l0 -201 Z" /><glyph glyph-name="" unicode="i" d="M25 -10 l0 201 l19 0 l0 -201 l-19 0 Z" /><glyph glyph-name="" unicode="k" d="M190 -10 l-25 0 l-78 104 l-47 -45 l0 -59 l-19 0 l0 201 l19 0 l0 -118 l119 118 l27 0 l-87 -85 l91 -116 Z" /><glyph glyph-name="" unicode="l" d="M150 -10 l-130 0 l0 201 l20 0 l0 -186 l110 0 l0 -15 Z" /><glyph glyph-name="" unicode="n" d="M23 191 l27 0 l114 -185 l1 0 l0 185 l19 0 l0 -201 l-27 0 l-115 183 l0 -183 l-19 0 l0 201 Z" /><glyph glyph-name="" unicode="o" d="M112 194 q89 -7 96 -105 q-4 -98 -98 -102 q-93 5 -97 102 q5 100 99 105 ZM109 2 q73 4 77 87 q-4 82 -76 88 q-71 -6 -76 -88 q4 -81 75 -87 Z" /><glyph glyph-name="" unicode="p" d="M106 70 l-65 0 l0 -80 l-19 0 l0 201 l86 0 q63 -3 68 -59 q-1 -61 -70 -62 ZM102 175 l-61 0 l0 -88 l61 0 q54 0 54 45 q-2 41 -54 43 Z" /><glyph glyph-name="" unicode="r" d="M199 -10 l-25 0 l-71 89 l-61 0 l0 -89 l-19 0 l0 201 l93 0 q65 -2 68 -56 q0 -52 -60 -56 l75 -89 ZM42 175 l0 -80 l68 0 q55 -1 54 41 q0 39 -54 39 l-68 0 Z" /><glyph glyph-name="" unicode="s" d="M13 49 l20 6 q8 -54 65 -53 q53 2 56 42 q4 28 -56 41 q-3 0 -8 2 q-73 12 -70 53 q4 52 72 54 q66 -1 77 -54 l-21 -5 q-7 41 -55 42 q-48 -2 -53 -37 q-3 -27 58 -38 q4 0 8 -2 q71 -14 68 -57 q-4 -54 -75 -56 q-74 -2 -86 62 Z" /><glyph glyph-name="" unicode="t" d="M169 175 l-71 0 l0 -185 l-20 0 l0 185 l-71 0 l0 16 l162 0 l0 -16 Z" /><glyph glyph-name="" unicode="u" d="M23 74 l0 117 l19 0 l0 -117 q-1 -73 61 -72 q63 0 62 72 l0 117 l20 0 l0 -117 q1 -88 -83 -87 q-79 -1 -79 87 Z" /><glyph glyph-name="" unicode="w" d="M134 172 l-1 1 q-2 -12 -3 -15 q-4 -12 -50 -168 l-20 0 l-57 201 l21 0 q34 -133 43 -165 q0 -2 4 -18 q6 21 7 24 q10 36 45 159 l21 0 q41 -148 45 -165 q0 0 2 -7 q2 -9 3 -12 l1 0 q1 11 4 19 q5 20 43 165 l21 0 l-59 -201 l-19 0 q-38 137 -47 167 q-1 7 -4 15 Z" /><glyph glyph-name="" unicode="y" d="M2 191 l22 0 q61 -87 63 -89 q0 0 4 -6 q3 -5 3 -6 q1 0 5 6 q4 5 4 5 q1 3 64 90 l22 0 l-86 -116 l0 -85 l-18 0 l0 85 l-83 116 Z" /><glyph glyph-name="" unicode="a" d="M149 -9 l-19 0 q-7 9 -7 27 q-18 -29 -64 -30 q-47 1 -48 39 q0 40 54 46 q52 6 57 16 q3 38 -41 36 q-41 1 -48 -32 l-17 4 q9 44 66 43 q62 2 59 -53 q0 -32 0 -65 q-1 -20 8 -31 ZM123 50 l0 26 q-12 -12 -48 -16 q-47 -4 -45 -33 q-1 -27 36 -26 q53 2 57 49 Z" /><glyph glyph-name="" unicode="b" d="M37 17 l0 -26 l-19 0 l0 202 l19 0 l0 -84 q15 31 50 31 q59 -3 61 -78 q-1 -71 -59 -74 q-38 0 -52 29 ZM37 77 l0 -22 q2 -52 45 -54 q47 0 47 61 q-2 61 -47 63 q-42 -7 -45 -48 Z" /><glyph glyph-name="" unicode="c" d="M140 95 l-19 -4 q-9 31 -42 33 q-48 -2 -49 -61 q1 -60 49 -62 q39 1 44 41 l19 -4 q-10 -52 -63 -50 q-67 1 -68 75 q2 74 67 77 q48 -2 62 -45 Z" /><glyph glyph-name="" unicode="d" d="M121 193 l18 0 l0 -202 l-18 0 l0 26 q-15 -29 -53 -29 q-56 3 -58 74 q2 75 61 78 q34 -1 50 -31 l0 84 ZM121 56 l0 21 q-5 41 -46 48 q-46 -2 -47 -63 q1 -60 46 -61 q46 2 47 55 Z" /><glyph glyph-name="" unicode="e" d="M128 35 l20 -4 q-12 -43 -66 -43 q-70 3 -72 73 q3 76 70 79 q67 -1 68 -79 q0 -3 0 -4 l-118 0 q2 -54 51 -56 q39 1 47 34 ZM30 71 l99 0 q-1 53 -48 54 q-48 -2 -51 -54 Z" /><glyph glyph-name="" unicode="f" d="M45 155 l0 -18 l33 0 l0 -16 l-33 0 l0 -130 l-19 0 l0 130 l-26 0 l0 16 l26 0 l0 19 q-1 41 36 40 q16 -1 29 -6 l-5 -13 q-6 4 -19 4 q-24 2 -22 -26 Z" /><glyph glyph-name="" unicode="g" d="M123 137 l19 0 l0 -127 q4 -74 -70 -71 q-40 1 -57 26 l13 7 q15 -17 44 -18 q52 -1 51 48 l0 20 q-12 -26 -52 -26 q-61 1 -62 70 q3 70 64 74 q36 -1 50 -27 l0 24 ZM123 60 l0 19 q-3 43 -45 46 q-48 -2 -50 -59 q1 -56 48 -58 q46 1 47 52 Z" /><glyph glyph-name="" unicode="h" d="M141 -9 l-19 0 l0 90 q1 45 -39 44 q-43 -1 -46 -52 l0 -82 l-18 0 l0 202 l18 0 l0 -85 q15 30 52 32 q53 1 52 -57 l0 -92 Z" /><glyph glyph-name="" unicode="i" d="M18 -9 l0 146 l19 0 l0 -146 l-19 0 ZM18 168 l0 24 l19 0 l0 -24 l-19 0 Z" /><glyph glyph-name="" unicode="j" d="M-15 -55 l3 11 q8 -3 16 -3 q19 -1 18 23 l0 161 l18 0 l0 -162 q1 -38 -31 -36 q-13 0 -24 6 ZM22 168 l0 24 l18 0 l0 -24 l-18 0 Z" /><glyph glyph-name="" unicode="l" d="M18 -9 l0 202 l19 0 l0 -202 l-19 0 Z" /><glyph glyph-name="" unicode="m" d="M220 -9 l-18 0 l0 90 q1 46 -34 44 q-36 -2 -40 -45 l0 -89 l-18 0 l0 90 q1 46 -34 44 q-37 -1 -39 -47 l0 -87 l-19 0 l0 146 l19 0 l0 -28 q13 30 45 31 q39 1 44 -35 q11 34 47 35 q48 1 47 -56 l0 -93 Z" /><glyph glyph-name="" unicode="n" d="M141 -10 l-18 0 l0 90 q1 46 -39 45 q-40 -3 -47 -45 l0 -90 l-18 0 l0 146 l18 0 l0 -29 q17 31 52 33 q53 1 52 -57 l0 -93 Z" /><glyph glyph-name="" unicode="o" d="M81 140 q65 -4 68 -77 q-1 -74 -70 -76 q-67 4 -70 74 q3 77 72 79 ZM80 0 q47 2 49 62 q-2 60 -49 63 q-49 -2 -51 -64 q2 -57 51 -61 Z" /><glyph glyph-name="" unicode="r" d="M36 69 l0 -78 l-19 0 l0 145 l19 0 l0 -27 q11 30 38 31 q14 0 27 -7 l-8 -18 q-7 7 -21 7 q-35 -2 -36 -53 Z" /><glyph glyph-name="" unicode="s" d="M127 102 l-18 -5 q-7 28 -38 28 q-36 -1 -37 -26 q-4 -21 43 -27 q2 0 7 -1 q4 -1 6 -2 q44 -10 43 -40 q-1 -41 -60 -42 q-53 -2 -64 44 l18 4 q7 -35 46 -35 q39 1 41 28 q2 20 -31 27 q-6 2 -15 3 q-56 10 -53 41 q3 39 54 41 q48 0 58 -38 Z" /><glyph glyph-name="" unicode="t" d="M45 188 l0 -52 l31 0 l0 -14 l-31 0 l0 -101 q-1 -22 17 -21 q9 0 14 3 l3 -9 q-7 -6 -23 -6 q-31 -1 -30 31 l0 103 l-23 0 l0 14 l23 0 l0 44 l19 8 Z" /><glyph glyph-name="" unicode="u" d="M140 -9 l-18 0 l0 27 q-17 -30 -52 -31 q-53 -1 -52 55 l0 95 l18 0 l0 -92 q-1 -45 40 -45 q41 3 46 48 l0 88 l18 0 l0 -145 Z" /><glyph glyph-name="" unicode="v" d="M141 137 l-60 -146 l-20 0 l-58 146 l20 0 q42 -118 44 -122 q0 -1 4 -11 q1 0 3 6 q2 5 2 5 q1 4 45 122 l20 0 Z" /><glyph glyph-name="" unicode="w" d="M209 137 l-52 -146 l-20 0 q-14 59 -29 119 q0 1 -1 6 q-2 5 -2 5 q0 -1 -3 -11 q-1 -3 -31 -119 l-20 0 l-50 146 l19 0 q36 -120 37 -123 q1 -1 3 -10 l1 0 q0 1 3 10 q1 3 31 123 l19 0 q15 -60 30 -121 q0 0 2 -6 q1 -5 1 -6 l1 0 q0 1 2 6 q1 6 1 6 q2 3 38 121 l20 0 Z" /><glyph glyph-name="" unicode="x" d="M140 137 l-55 -73 l58 -73 l-22 0 l-48 65 l-49 -65 l-22 0 l60 73 l-54 73 l21 0 l44 -65 l45 65 l22 0 Z" /><glyph glyph-name="" unicode="y" d="M121 137 l21 0 q-58 -136 -65 -154 q-19 -48 -42 -44 q-16 0 -25 5 l2 12 q8 -3 18 -3 q17 -3 30 32 q0 1 1 3 q3 7 4 8 l-61 141 l20 0 q31 -80 42 -107 q3 -6 7 -18 q1 3 5 11 q1 5 2 7 q12 31 41 107 Z" /><glyph glyph-name="" unicode="{" d="M54 175 l0 -63 q0 -27 -25 -33 l0 -1 q25 -6 25 -33 l0 -60 q0 -12 8 -18 q8 -6 27 -6 l0 -13 q-28 0 -39 9 q-11 9 -11 27 l0 60 q0 28 -32 29 l0 11 q32 1 32 29 l0 62 q0 20 12 28 q11 9 38 8 l0 -12 q-35 0 -35 -24 Z" /><glyph glyph-name="" unicode="|" d="M27 -49 l0 258 l15 0 l0 -258 l-15 0 Z" /><glyph glyph-name="" unicode="}" d="M41 112 l0 63 q0 24 -35 24 l0 12 q26 0 39 -8 q12 -9 11 -28 l0 -62 q0 -28 32 -29 l0 -11 q-32 -1 -32 -29 l0 -60 q1 -18 -11 -27 q-12 -9 -39 -9 l0 13 q22 0 29 8 q6 6 6 16 l0 60 q0 27 25 33 l0 1 q-25 6 -25 33 Z" /><glyph glyph-name="" unicode="&#x201c;" d="M189 166 l16 0 l0 -29 l-28 0 q0 7 0 25 q-1 35 26 53 l8 -8 q-23 -16 -22 -41 ZM162 215 l7 -8 q-23 -16 -22 -41 l16 0 l0 -29 l-28 0 q0 7 0 25 q-1 35 27 53 Z" /><glyph glyph-name="" unicode="&#x201d;" d="M53 136 l-7 7 q22 16 21 42 l-15 0 l0 29 l27 0 q0 -6 0 -25 q1 -37 -26 -53 ZM95 136 l-7 7 q22 16 21 42 l-16 0 l0 29 l28 0 q0 -6 0 -25 q1 -37 -26 -53 Z" /><glyph glyph-name="" unicode="&#x3001;" d="M102 -8 l-13 -12 l-51 57 l13 11 l51 -56 Z" /><glyph glyph-name="" unicode="&#x3002;" d="M42 13 q3 33 36 36 q32 -3 35 -36 q-3 -30 -35 -33 q-33 3 -36 33 ZM53 13 q2 -20 25 -22 q22 2 24 22 q-2 23 -24 25 q-23 -2 -25 -25 Z" /><glyph glyph-name="" unicode="&#x300c;" d="M117 -31 l0 243 l56 0 l0 -12 l-40 0 l0 -231 l-16 0 Z" /><glyph glyph-name="" unicode="&#x300d;" d="M138 -31 l-55 0 l0 12 l40 0 l0 231 l15 0 l0 -243 Z" /><glyph glyph-name="" unicode="&#x4e00;" d="M6 87 l0 18 l243 0 l0 -18 l-243 0 Z" /><glyph glyph-name="" unicode="&#x4e03;" d="M11 95 l-3 18 l84 10 l0 85 l19 0 l0 -83 l133 16 l2 -17 l-135 -16 l0 -83 q-2 -27 29 -25 l50 0 q26 -2 28 19 q4 14 6 35 q3 -2 13 -5 q3 -2 4 -2 q-1 -18 -6 -37 q-7 -28 -42 -27 l-59 0 q-43 -1 -42 37 l0 85 l-81 -10 Z" /><glyph glyph-name="" unicode="&#x4e07;" d="M12 174 l0 16 l234 0 l0 -16 l-143 0 q0 -6 -1 -17 q0 -24 -2 -38 l116 0 q-2 -55 -5 -95 q-2 -47 -47 -46 q-24 0 -44 0 q-1 5 -3 13 q-1 4 -1 6 q5 0 13 -1 q18 -1 32 -1 q31 -2 32 31 q4 37 4 76 l-98 0 q-7 -82 -77 -131 q-1 1 -5 5 q-6 5 -9 8 q71 46 74 130 q3 30 3 60 l-73 0 Z" /><glyph glyph-name="" unicode="&#x4e09;" d="M25 168 l0 17 l205 0 l0 -17 l-205 0 ZM10 -10 l0 16 l236 0 l0 -16 l-236 0 ZM37 83 l0 17 l181 0 l0 -17 l-181 0 Z" /><glyph glyph-name="" unicode="&#x4e0a;" d="M9 -14 l0 15 l97 0 l0 205 l19 0 l0 -74 l102 0 l0 -18 l-102 0 l0 -113 l122 0 l0 -15 l-238 0 Z" /><glyph glyph-name="" unicode="&#x4e0b;" d="M9 174 l0 17 l238 0 l0 -17 l-121 0 l0 -201 l-19 0 l0 201 l-98 0 ZM220 55 q-36 23 -91 54 l11 15 q10 -6 32 -18 q40 -22 60 -34 l-12 -17 Z" /><glyph glyph-name="" unicode="&#x4e0d;" d="M14 173 l0 16 l230 0 l0 -16 l-91 0 q-14 -23 -34 -48 l17 0 l0 -154 l-18 0 l0 152 q-41 -49 -100 -88 q-1 2 -6 8 q-4 5 -6 7 q86 55 126 123 l-118 0 ZM235 42 q-20 15 -66 46 q-11 8 -16 11 l10 13 q53 -34 84 -56 l-12 -14 Z" /><glyph glyph-name="" unicode="&#x4e0e;" d="M118 -24 q0 4 -2 12 q-1 4 -1 7 q22 -2 53 -2 q37 -1 38 27 q4 48 5 76 l-166 0 l12 114 l17 0 l-3 -38 l176 0 l0 -16 l-178 0 l-4 -43 l165 0 q0 -3 0 -8 q-4 -62 -7 -88 q-2 -42 -51 -41 q-31 0 -54 0 ZM7 39 l0 16 l178 0 l0 -16 l-178 0 Z" /><glyph glyph-name="" unicode="&#x4e13;" d="M23 162 l0 15 l73 0 q8 19 12 34 l18 -2 q-2 -9 -8 -25 q-2 -5 -3 -7 l118 0 l0 -15 l-124 0 q-2 -4 -5 -12 q-7 -16 -10 -24 l155 0 l0 -16 l-161 0 q-3 -5 -7 -15 q-6 -13 -9 -18 l148 0 l0 -18 l-66 -58 l39 -16 l-10 -15 q-63 30 -132 60 l9 13 q36 -15 76 -34 l62 52 l-145 0 l0 16 q2 5 7 15 q6 12 9 18 l-61 0 l0 16 l67 0 q0 1 1 2 q10 22 14 34 l-67 0 Z" /><glyph glyph-name="" unicode="&#x4e14;" d="M7 -16 l0 15 l36 0 l0 197 l169 0 l0 -197 l37 0 l0 -15 l-242 0 ZM60 49 l0 -50 l135 0 l0 50 l-135 0 ZM60 180 l0 -51 l135 0 l0 51 l-135 0 ZM60 114 l0 -50 l135 0 l0 50 l-135 0 Z" /><glyph glyph-name="" unicode="&#x4e16;" d="M9 131 l0 16 l32 0 l0 49 l17 0 l0 -49 l51 0 l0 60 l17 0 l0 -60 l68 0 l0 60 l17 0 l0 -60 l35 0 l0 -16 l-35 0 l0 -89 l-102 0 l0 89 l-51 0 l0 -134 l182 0 l0 -16 l-199 0 l0 150 l-32 0 ZM126 131 l0 -73 l68 0 l0 73 l-68 0 Z" /><glyph glyph-name="" unicode="&#x4e1a;" d="M7 -13 l0 14 l80 0 l0 205 l17 0 l0 -205 l47 0 l0 205 l17 0 l0 -205 l80 0 l0 -14 l-241 0 ZM197 53 l-15 6 q15 30 41 98 l16 -5 q-20 -54 -42 -99 ZM55 53 q-15 44 -37 99 l15 6 q22 -54 38 -99 l-16 -6 Z" /><glyph glyph-name="" unicode="&#x4e1c;" d="M10 157 l0 16 l65 0 q9 19 17 37 l19 -3 q-3 -7 -11 -22 q-4 -8 -6 -12 l152 0 l0 -16 l-160 0 q-20 -37 -37 -65 l79 0 l0 49 l17 0 l0 -49 l89 0 l0 -15 l-89 0 l0 -68 q2 -35 -34 -34 q-8 -1 -34 -1 q0 2 -1 6 q-1 9 -2 12 q12 -1 32 -1 q23 -1 22 21 l0 65 l-98 0 l0 18 q1 2 4 6 q13 21 33 56 l-57 0 ZM19 -17 q-4 5 -13 12 q39 35 60 61 l15 -10 q-25 -29 -62 -63 ZM236 -11 q-4 3 -11 10 q-35 31 -52 45 l12 11 q7 -6 20 -17 q12 -10 44 -38 l-13 -11 Z" /><glyph glyph-name="" unicode="&#x4e24;" d="M58 16 q-6 6 -13 11 q36 36 40 96 q0 2 0 3 l-46 0 l0 -152 l-16 0 l0 168 l63 0 q0 17 0 37 l-77 0 l0 15 l238 0 l0 -15 l-75 0 q0 -18 -1 -37 l61 0 l0 -138 q1 -28 -29 -28 q-14 -1 -35 -1 q-1 9 -3 17 q4 0 14 0 q11 -1 16 -1 q22 -1 21 15 l0 120 l-46 0 q-1 -1 -1 -4 q-2 -19 -5 -35 q14 -14 41 -43 q-2 3 5 -5 l-12 -12 q-23 28 -39 44 q-9 -32 -35 -63 q-6 6 -13 11 q40 42 43 107 l-53 0 q-1 -17 -4 -32 q6 -5 17 -15 q11 -10 17 -16 l-11 -12 q-14 14 -27 27 q-10 -33 -35 -62 ZM103 179 q0 -7 -1 -20 q0 -12 0 -17 l53 0 q0 16 0 37 l-52 0 Z" /><glyph glyph-name="" unicode="&#x4e2a;" d="M237 91 q-71 37 -108 92 q-39 -57 -111 -96 q-2 4 -8 10 q-3 4 -4 5 q84 44 120 108 l19 -3 q-1 -1 -3 -5 q-2 -3 -3 -5 q39 -57 109 -90 q-1 -1 -2 -2 q-6 -9 -9 -14 ZM119 -29 l0 148 l18 0 l0 -148 l-18 0 Z" /><glyph glyph-name="" unicode="&#x4e2d;" d="M23 45 l0 113 l96 0 l0 53 l17 0 l0 -53 l97 0 l0 -112 l-17 0 l0 13 l-80 0 l0 -90 l-17 0 l0 90 l-79 0 l0 -14 l-17 0 ZM216 142 l-80 0 l0 -67 l80 0 l0 67 ZM40 142 l0 -67 l79 0 l0 67 l-79 0 Z" /><glyph glyph-name="" unicode="&#x4e30;" d="M17 155 l0 16 l102 0 l0 39 l17 0 l0 -39 l103 0 l0 -16 l-103 0 l0 -44 l87 0 l0 -16 l-87 0 l0 -45 l111 0 l0 -16 l-111 0 l0 -64 l-17 0 l0 64 l-110 0 l0 16 l110 0 l0 45 l-87 0 l0 16 l87 0 l0 44 l-102 0 Z" /><glyph glyph-name="" unicode="&#x4e3a;" d="M25 -30 q-3 3 -13 15 q90 52 96 144 l-92 0 l0 16 l94 0 q3 31 3 66 l18 0 q0 -26 -4 -66 l106 0 q0 -50 -4 -120 q-1 -49 -47 -48 q-23 -1 -46 -1 q-1 11 -4 20 q4 0 18 0 q19 -1 27 -1 q34 -3 34 32 q3 42 5 102 l-91 0 q-7 -104 -100 -159 ZM173 41 q-19 22 -39 41 l13 10 q27 -25 40 -39 l-14 -12 ZM70 159 q-21 23 -35 36 l12 11 q1 -1 3 -3 q16 -14 34 -32 l-14 -12 Z" /><glyph glyph-name="" unicode="&#x4e3b;" d="M19 149 l0 16 l217 0 l0 -16 l-100 0 l0 -63 l91 0 l0 -16 l-91 0 l0 -70 l111 0 l0 -15 l-239 0 l0 15 l111 0 l0 70 l-90 0 l0 16 l90 0 l0 63 l-100 0 ZM127 168 q-5 15 -16 37 l16 5 q2 -4 7 -13 q9 -19 11 -23 l-18 -6 Z" /><glyph glyph-name="" unicode="&#x4e49;" d="M236 -26 q-75 25 -108 53 q-32 -28 -109 -56 q-2 4 -7 11 q-2 5 -4 8 q72 19 107 50 q-49 49 -74 146 l17 6 q22 -91 70 -139 q51 53 67 140 l18 -4 q-19 -93 -71 -149 q37 -32 105 -47 q-6 -10 -11 -19 ZM130 147 q-14 35 -26 57 l15 6 q13 -23 28 -56 l-17 -7 Z" /><glyph glyph-name="" unicode="&#x4e4b;" d="M243 -19 q-46 0 -66 0 q-25 0 -43 1 q-52 1 -79 32 q-5 4 -11 0 q-20 -18 -30 -31 l-9 17 q3 2 9 8 q4 5 16 16 q12 11 19 11 q1 0 3 0 q2 -1 3 -1 q86 52 147 113 l-178 0 l0 17 l201 0 l0 -18 q-68 -71 -155 -123 q20 -23 65 -24 q52 -2 114 0 q-1 -2 -2 -6 q-3 -9 -4 -12 ZM129 164 q-6 14 -21 40 l17 5 q15 -23 22 -39 l-18 -6 Z" /><glyph glyph-name="" unicode="&#x4e50;" d="M26 83 l13 105 q86 1 183 10 l5 -16 q-78 -7 -172 -9 l-10 -74 l77 0 l0 55 l17 0 l0 -55 l96 0 l0 -16 l-96 0 l0 -77 q2 -31 -30 -31 q-15 0 -31 0 q-3 12 -4 18 q13 -1 30 -1 q20 -2 18 17 l0 74 l-96 0 ZM234 -14 q-6 7 -21 24 q-26 32 -39 46 l13 9 q39 -45 62 -69 l-15 -10 ZM21 -15 q-7 7 -13 11 q33 31 59 69 l15 -9 q-31 -43 -61 -71 Z" /><glyph glyph-name="" unicode="&#x4e5d;" d="M20 -28 q-9 11 -13 14 q75 45 75 130 q1 5 1 13 q1 9 1 13 l-70 0 l0 17 l70 0 q2 36 2 51 l18 0 q0 -13 -2 -45 q2 23 0 -6 l81 0 l0 -146 q-2 -19 16 -17 l11 0 q16 0 19 14 q2 14 3 39 q9 -3 17 -6 q-1 -24 -4 -40 q-5 -26 -33 -25 l-17 0 q-31 -2 -30 32 l0 132 l-63 0 q-1 -5 -1 -14 q-1 -10 -1 -15 q-1 -93 -80 -141 Z" /><glyph glyph-name="" unicode="&#x4e73;" d="M30 -25 q0 1 0 3 q-1 5 -4 14 q9 -1 27 -1 q18 -1 17 15 l0 31 q-17 -2 -53 -7 q-5 -1 -8 -1 l-2 17 l63 7 l0 20 l44 31 l-97 0 l0 15 l76 0 q8 13 19 36 q7 14 10 20 l14 -6 l-27 -50 l27 0 l0 -17 l-50 -36 l0 -11 q9 1 28 4 q18 2 27 3 q0 -8 0 -16 q-28 -3 -55 -7 l0 -35 q1 -29 -30 -29 q-15 0 -26 0 ZM191 -22 q-33 -1 -31 28 l0 201 l16 0 l0 -199 q-1 -15 19 -14 l15 0 q18 0 19 15 q2 12 4 44 q8 -3 17 -5 q0 -4 -1 -10 q-2 -25 -5 -35 q-4 -26 -32 -25 l-21 0 ZM15 181 q0 3 -2 10 q-1 3 -1 5 q52 1 125 7 l3 -15 q-13 -1 -42 -2 q-54 -4 -83 -5 ZM34 127 q-10 24 -18 36 l14 5 q2 -4 6 -12 q8 -15 12 -24 l-14 -5 ZM73 133 q-6 20 -13 39 l13 3 q8 -17 14 -38 l-14 -4 Z" /><glyph glyph-name="" unicode="&#x4e86;" d="M62 -23 q-1 4 -2 12 q-2 5 -2 8 q13 -1 40 -1 q28 -2 26 22 l0 101 l85 56 l-193 0 l0 16 l217 0 l0 -20 l-91 -61 l0 -93 q2 -41 -40 -40 q-21 0 -40 0 Z" /><glyph glyph-name="" unicode="&#x4e88;" d="M219 42 q-3 1 -9 3 q-6 1 -9 2 l16 44 l-78 0 l0 -76 q2 -41 -38 -40 q-14 -1 -40 -1 q-1 9 -4 19 q4 0 11 0 q16 -1 29 -1 q25 -1 24 24 l0 75 l-108 0 l0 17 l119 0 q-3 2 -9 6 q-39 29 -59 42 l12 11 q2 -2 8 -5 q26 -18 40 -28 l69 44 l-158 0 l0 17 l183 0 l0 -19 l-80 -52 l9 -6 l-11 -10 l100 0 l0 -18 l-17 -48 Z" /><glyph glyph-name="" unicode="&#x4e8b;" d="M9 176 l0 13 l110 0 l0 22 l16 0 l0 -22 l112 0 l0 -13 l-112 0 l0 -18 l82 0 l0 -44 l-82 0 l0 -18 l87 0 l0 -34 l27 0 l0 -12 l-27 0 l0 -47 l-16 0 l0 13 l-71 0 l0 -11 q2 -30 -31 -30 q-5 0 -17 -1 q-12 0 -16 0 q0 1 -1 3 q-1 10 -3 13 q3 0 13 0 q14 -1 20 -1 q20 -1 19 18 l0 9 l-96 0 l0 12 l96 0 l0 22 l-111 0 l0 12 l111 0 l0 22 l-95 0 l0 12 l95 0 l0 18 l-81 0 l0 44 l81 0 l0 18 l-110 0 ZM135 50 l0 -22 l71 0 l0 22 l-71 0 ZM206 84 l-71 0 l0 -22 l71 0 l0 22 ZM201 147 l-66 0 l0 -22 l66 0 l0 22 ZM54 147 l0 -22 l65 0 l0 22 l-65 0 Z" /><glyph glyph-name="" unicode="&#x4e8c;" d="M29 159 l0 18 l198 0 l0 -18 l-198 0 ZM10 0 l0 16 l235 0 l0 -16 l-235 0 Z" /><glyph glyph-name="" unicode="&#x4e8e;" d="M28 176 l0 16 l201 0 l0 -16 l-89 0 l0 -68 l108 0 l0 -17 l-108 0 l0 -81 q1 -35 -34 -35 q-18 0 -37 0 q0 3 -2 9 q-1 7 -2 10 q10 -1 34 -1 q24 -2 23 21 l0 77 l-114 0 l0 17 l114 0 l0 68 l-94 0 Z" /><glyph glyph-name="" unicode="&#x4e91;" d="M9 100 l0 16 l239 0 l0 -16 l-134 0 l9 -3 q-33 -48 -69 -87 q71 2 136 5 q-26 34 -38 48 l15 9 q43 -51 68 -83 l-16 -10 l-16 21 q-41 0 -129 -4 q-11 -1 -16 -1 q-3 0 -8 -1 q-12 -1 -16 -2 l-9 17 q11 7 23 20 q31 34 53 71 l-92 0 ZM32 176 l0 17 l193 0 l0 -17 l-193 0 Z" /><glyph glyph-name="" unicode="&#x4e95;" d="M15 141 l0 16 l56 0 l0 53 l18 0 l0 -53 l82 0 l0 53 l17 0 l0 -53 l52 0 l0 -16 l-52 0 l0 -64 l60 0 l0 -16 l-60 0 l0 -89 l-17 0 l0 89 l-83 0 q2 -58 -59 -91 q-2 2 -6 7 q-5 4 -7 7 q57 27 55 77 l-63 0 l0 16 l63 0 l0 64 l-56 0 ZM89 141 l0 -64 l82 0 l0 64 l-82 0 Z" /><glyph glyph-name="" unicode="&#x4ea4;" d="M236 -27 q-72 18 -108 44 q-32 -24 -110 -46 l-9 17 q77 19 105 41 q-24 24 -43 62 l15 8 q20 -38 42 -58 q22 20 40 60 l16 -7 q-20 -43 -43 -65 q31 -24 104 -39 q-3 -4 -7 -12 q-1 -3 -2 -5 ZM11 158 l0 16 l114 0 q-7 16 -15 31 l17 5 q4 -6 11 -20 q4 -7 6 -11 l-12 -5 l113 0 l0 -16 l-234 0 ZM24 76 q-5 8 -11 15 q38 21 75 54 l13 -13 q-42 -34 -77 -56 ZM230 80 q-40 31 -75 52 l11 13 q34 -21 76 -50 l-12 -15 Z" /><glyph glyph-name="" unicode="&#x4ea6;" d="M10 152 l0 16 l118 0 q-8 21 -17 38 l18 6 q9 -18 18 -39 l-14 -5 l114 0 l0 -16 l-75 0 l0 -143 q1 -33 -28 -33 q-18 0 -34 0 q0 3 -2 9 q-1 7 -2 10 q9 -1 31 -1 q20 -1 18 17 l0 141 l-48 0 q0 -7 -1 -17 q0 -12 -1 -18 q-2 -62 -17 -90 q-14 -28 -60 -57 q-2 2 -6 6 q-4 5 -7 8 q44 25 57 51 q14 25 16 82 l1 35 l-79 0 ZM232 40 q-23 48 -38 73 l15 7 q16 -27 39 -71 l-16 -9 ZM22 41 q-8 4 -16 8 q18 32 33 71 l16 -6 q-11 -31 -33 -73 Z" /><glyph glyph-name="" unicode="&#x4ea7;" d="M19 -28 q-6 5 -14 11 q29 31 27 93 l0 34 l120 0 q3 4 8 13 q7 11 21 34 l16 -8 q-12 -18 -27 -39 l71 0 l0 -16 l-192 0 l0 -18 q2 -66 -30 -104 ZM12 166 l0 16 l116 0 q-4 12 -9 24 l18 4 q5 -12 9 -28 l101 0 l0 -16 l-235 0 ZM94 112 q-13 18 -27 38 l14 8 q7 -8 21 -27 q5 -6 7 -9 l-15 -10 Z" /><glyph glyph-name="" unicode="&#x4eab;" d="M7 20 l0 14 l115 0 l0 13 l58 19 l-151 0 l0 13 l185 0 l0 -14 l-75 -27 l0 -4 l109 0 l0 -14 l-109 0 l0 -20 q0 -27 -29 -27 q-12 -1 -35 -1 q0 1 0 2 q-1 6 -4 14 q17 0 33 0 q19 -1 18 14 l0 18 l-115 0 ZM42 100 l0 48 l169 0 l0 -48 l-169 0 ZM9 168 l0 14 l113 0 q-1 6 -6 18 q-2 5 -3 7 l18 4 q4 -14 10 -29 l105 0 l0 -14 l-237 0 ZM59 135 l0 -22 l136 0 l0 22 l-136 0 Z" /><glyph glyph-name="" unicode="&#x4eac;" d="M40 61 l0 72 l175 0 l0 -72 l-76 0 l0 -61 q1 -25 -27 -26 q-16 0 -30 0 q-1 8 -4 17 q14 -1 28 -1 q17 -1 16 12 l0 59 l-82 0 ZM57 118 l0 -42 l142 0 l0 42 l-142 0 ZM8 160 l0 15 l115 0 q-2 6 -6 16 q-4 11 -6 16 l17 4 q4 -9 12 -27 q1 -3 2 -5 l-12 -4 l118 0 l0 -15 l-240 0 ZM17 -14 q-1 2 -5 7 q-3 5 -5 7 q33 15 66 41 l11 -12 q-30 -22 -67 -43 ZM234 -12 q-7 4 -20 12 q-30 19 -46 28 l9 12 q19 -11 57 -34 q6 -4 10 -6 l-10 -12 Z" /><glyph glyph-name="" unicode="&#x4eae;" d="M49 104 l0 49 l156 0 l0 -49 l-156 0 ZM17 -30 q-1 1 -2 4 q-3 7 -6 11 q69 8 63 49 l0 15 l102 0 l0 -44 q-1 -13 14 -12 l24 0 q16 -1 18 12 q2 9 3 25 q8 -3 16 -5 q-1 -15 -4 -25 q-4 -23 -31 -22 l-30 0 q-28 -1 -27 25 l0 33 l-69 0 l0 -5 q4 -50 -71 -61 ZM16 48 l0 36 l223 0 l0 -36 l-16 0 l0 22 l-191 0 l0 -22 l-16 0 ZM12 173 l0 14 l109 0 q-1 4 -3 11 q-3 7 -4 10 l18 3 q1 -2 2 -7 q3 -11 5 -17 l104 0 l0 -14 l-231 0 ZM66 140 l0 -22 l122 0 l0 22 l-122 0 Z" /><glyph glyph-name="" unicode="&#x4eba;" d="M234 -23 q-93 46 -105 151 q-14 -102 -108 -154 q-2 2 -5 6 q-6 6 -8 8 q96 52 107 157 q4 27 4 62 l18 0 q0 -6 0 -18 q-1 -13 -1 -20 q13 -137 111 -176 q-2 -2 -5 -7 q-6 -7 -8 -9 Z" /><glyph glyph-name="" unicode="&#x4ebf;" d="M130 -18 q-42 2 -42 29 q0 18 17 41 q38 52 102 121 l-107 0 l0 17 l128 0 l0 -19 q-76 -83 -105 -123 q-18 -25 -17 -35 q-1 -16 31 -15 q28 -2 57 0 q33 0 34 24 q4 20 4 41 q2 -1 7 -3 q7 -2 10 -3 q-2 -29 -5 -44 q-4 -31 -46 -31 q-35 0 -68 0 ZM14 69 q-1 3 -4 11 q-3 6 -4 9 q40 56 59 120 l17 -4 q-10 -30 -22 -56 l0 -177 l-17 0 l0 144 q-13 -24 -29 -47 Z" /><glyph glyph-name="" unicode="&#x4ec5;" d="M238 -27 q-50 29 -76 56 q-28 -28 -82 -58 l-11 16 q52 25 82 56 q-36 43 -53 133 l-11 0 l0 15 l146 0 l0 -15 q-21 -90 -59 -134 q31 -31 76 -52 q-1 -1 -2 -3 q-7 -8 -10 -14 ZM215 176 l-100 0 q14 -79 48 -120 q35 42 52 120 ZM12 76 q-1 3 -3 10 q-3 7 -4 10 q35 46 58 114 l17 -5 q-2 -4 -5 -12 q-11 -30 -19 -45 l0 -176 l-17 0 l0 145 q-13 -23 -27 -41 Z" /><glyph glyph-name="" unicode="&#x4ece;" d="M91 -28 q-7 7 -14 14 q76 59 77 158 q1 22 1 64 l18 0 q0 -22 -1 -45 q7 -127 77 -173 q-1 -2 -4 -5 q-6 -7 -8 -10 q-62 46 -72 134 q-7 -79 -74 -137 ZM116 54 q-5 6 -14 17 q-8 11 -32 38 q-6 -78 -50 -134 q-8 7 -15 12 q47 53 51 157 q0 2 0 5 q2 36 2 58 l17 0 q0 -35 -3 -72 l-1 -15 l7 5 q20 -22 51 -59 l-13 -12 Z" /><glyph glyph-name="" unicode="&#x4ed6;" d="M155 21 l0 101 l-45 -14 l0 -92 q-2 -24 26 -22 l62 0 q28 -1 31 18 q3 15 5 33 q5 -2 12 -5 q3 -1 4 -1 q0 -3 -1 -8 q-2 -18 -5 -27 q-5 -26 -42 -25 l-72 0 q-38 -1 -36 32 l0 92 l-22 -6 l-2 16 l24 7 l0 60 l16 0 l0 -55 l45 13 l0 70 l17 0 l0 -65 l64 19 q0 -6 -1 -17 q-1 -49 -2 -59 q-1 -37 -27 -35 q-9 -1 -19 -1 q0 3 -1 8 q-1 5 -2 8 q8 0 17 0 q16 -2 16 20 q2 34 2 55 l-47 -14 l0 -106 l-17 0 ZM12 71 q-1 3 -3 9 q-2 7 -4 11 q38 55 57 118 l17 -5 q-10 -30 -24 -59 l0 -174 l-17 0 l0 142 q-14 -25 -26 -42 Z" /><glyph glyph-name="" unicode="&#x4ee3;" d="M80 108 l-3 16 l58 6 q-3 34 -3 79 l17 0 q0 -21 2 -57 q1 -13 1 -20 l91 10 l2 -16 l-92 -10 q5 -61 23 -97 q14 -29 33 -29 q14 -1 18 16 q4 13 6 32 q2 -1 4 -2 q5 -1 12 -3 q-2 -15 -7 -33 q-8 -27 -31 -27 q-31 0 -50 38 q-20 35 -25 103 l-56 -6 ZM41 -29 l0 148 q-13 -24 -30 -45 q-1 3 -3 10 q-2 6 -3 9 q38 52 59 115 l17 -4 q-11 -28 -23 -54 l0 -179 l-17 0 ZM216 151 q-14 13 -42 37 l11 10 q12 -9 34 -28 q6 -5 9 -7 l-12 -12 Z" /><glyph glyph-name="" unicode="&#x4ee4;" d="M161 -31 q-28 20 -77 49 q-15 9 -22 14 l11 13 q7 -4 24 -15 q21 -13 32 -20 l62 59 l-157 0 l0 16 l179 0 l0 -17 l-69 -68 q14 -7 29 -17 l-12 -14 ZM239 99 q-73 35 -110 89 q-38 -49 -114 -92 q-1 3 -5 8 q-4 6 -6 8 q83 42 120 100 l20 -3 l-6 -9 q43 -55 111 -84 q-1 -2 -5 -8 q-3 -6 -5 -9 ZM136 96 q-8 11 -25 28 q-5 6 -8 9 l13 10 q6 -6 17 -18 q12 -13 17 -19 l-14 -10 Z" /><glyph glyph-name="" unicode="&#x4ee5;" d="M235 -22 q-28 34 -51 59 q-19 -35 -83 -67 q-3 4 -10 14 q-1 1 -2 2 q106 42 104 153 q1 19 1 65 l18 0 q0 -18 -2 -55 q0 -7 0 -10 q-2 -52 -17 -86 q10 -10 30 -32 q18 -21 27 -29 l-15 -14 ZM29 -10 l-12 14 q10 10 9 24 l0 172 l17 0 l0 -178 q33 20 69 44 q1 -11 4 -20 q-5 -3 -17 -10 q-35 -22 -55 -36 q-7 -3 -15 -10 ZM123 140 q-17 34 -34 61 l14 8 q15 -22 36 -60 l-16 -9 Z" /><glyph glyph-name="" unicode="&#x4eec;" d="M166 -26 q-1 9 -3 18 q5 0 15 0 q12 -1 19 -1 q23 -1 22 21 l0 161 l-62 0 l0 16 l80 0 l0 -181 q1 -33 -34 -34 q-20 0 -37 0 ZM12 71 q-4 15 -6 22 q35 55 53 114 l17 -5 q-10 -28 -21 -54 l0 -177 l-17 0 l0 144 q-6 -11 -19 -32 q-5 -8 -7 -12 ZM95 -26 l0 177 l17 0 l0 -177 l-17 0 ZM127 161 q-12 17 -29 37 l13 9 q3 -4 10 -12 q15 -17 20 -24 l-14 -10 Z" /><glyph glyph-name="" unicode="&#x4ef6;" d="M96 91 q-8 5 -16 8 q24 45 34 92 l17 -4 q-1 -6 -5 -17 q-3 -12 -5 -18 l45 0 l0 57 l17 0 l0 -57 l58 0 l0 -16 l-58 0 l0 -65 l67 0 l0 -16 l-67 0 l0 -84 l-17 0 l0 84 l-89 0 l0 16 l89 0 l0 65 l-51 0 q-8 -24 -19 -45 ZM12 69 q-3 12 -6 21 q34 49 53 118 l17 -5 q-8 -27 -19 -52 l0 -180 l-17 0 l0 144 q-13 -25 -28 -46 Z" /><glyph glyph-name="" unicode="&#x4ef7;" d="M13 70 q-1 5 -5 13 q-1 5 -2 7 q34 54 52 119 l17 -4 q-9 -29 -20 -55 l0 -179 l-16 0 l0 143 q-11 -22 -26 -44 ZM240 109 q-52 31 -79 75 q-27 -43 -80 -78 q-1 3 -6 9 q-3 4 -4 6 q62 37 87 90 l18 -2 q-1 -2 -3 -5 q-2 -4 -3 -6 q29 -46 80 -74 q-3 -3 -8 -12 q-1 -2 -2 -3 ZM90 -30 q-5 6 -14 12 q41 29 38 98 l0 31 l17 0 l0 -31 q3 -75 -41 -110 ZM186 -27 l0 138 l17 0 l0 -138 l-17 0 Z" /><glyph glyph-name="" unicode="&#x4efb;" d="M95 169 q0 8 -2 16 q80 3 143 11 l4 -17 q-11 -1 -33 -3 q-20 -1 -30 -2 l0 -78 l73 0 l0 -16 l-73 0 l0 -80 l69 0 l0 -15 l-158 0 l0 15 l72 0 l0 80 l-76 0 l0 16 l76 0 l0 77 l-65 -4 ZM12 73 q-1 4 -4 14 q-1 3 -2 5 q37 51 58 117 l17 -5 q-9 -28 -22 -54 l0 -179 l-17 0 l0 147 q-10 -20 -30 -45 Z" /><glyph glyph-name="" unicode="&#x4efd;" d="M140 -25 q-2 9 -5 18 q12 -1 32 -1 q26 -1 27 23 q1 14 2 47 q1 17 1 25 l-58 0 q1 -75 -57 -116 q-6 7 -13 13 q55 36 53 103 l-28 0 l0 15 l120 0 q0 -38 -4 -90 q0 -36 -39 -36 q-11 -1 -31 -1 ZM13 76 q-1 3 -3 10 q-3 6 -4 9 q36 50 56 113 l17 -5 q-11 -33 -26 -61 l0 -171 l-16 0 l0 141 q-10 -18 -24 -36 ZM238 102 q-51 41 -71 100 l15 6 q22 -58 67 -89 q-1 -2 -4 -6 q-5 -7 -7 -11 ZM79 97 q-2 3 -5 7 q-4 5 -6 7 q42 37 62 88 l16 -6 q-23 -56 -67 -96 Z" /><glyph glyph-name="" unicode="&#x4f01;" d="M11 -17 l0 16 l40 0 l0 94 l17 0 l0 -94 l56 0 l0 135 l17 0 l0 -54 l74 0 l0 -16 l-74 0 l0 -65 l100 0 l0 -16 l-230 0 ZM238 105 q-72 37 -109 84 q-39 -50 -112 -87 q-1 2 -5 8 q-4 5 -6 7 q84 41 119 94 l19 -3 q-1 -1 -2 -4 q-2 -2 -3 -3 q39 -50 110 -80 q-7 -9 -11 -16 Z" /><glyph glyph-name="" unicode="&#x4f18;" d="M76 126 l0 16 l54 0 q2 41 2 66 l17 0 q0 -27 -2 -66 l97 0 l0 -16 l-67 0 l0 -118 q0 -12 17 -12 l15 0 q18 -1 20 17 q1 8 3 36 q9 -3 17 -6 q-1 -6 -2 -17 q-2 -16 -3 -22 q-5 -24 -33 -24 l-21 0 q-30 -1 -29 27 l0 119 l-15 0 l0 -11 q-5 -85 -66 -143 q-2 2 -6 6 q-5 4 -7 6 q58 55 62 132 l0 10 l-53 0 ZM13 74 q-3 11 -7 20 q37 49 57 114 l17 -5 q-10 -31 -24 -59 l0 -173 l-17 0 l0 142 q-12 -21 -26 -39 ZM212 158 q-20 18 -38 31 l10 11 q15 -10 39 -30 l-11 -12 Z" /><glyph glyph-name="" unicode="&#x4f1a;" d="M15 55 l0 16 l225 0 l0 -16 l-119 0 q-25 -31 -56 -57 q14 0 46 2 q48 0 71 1 q-13 14 -28 27 l13 10 q40 -38 59 -56 l-14 -11 l-16 17 q-81 -2 -128 -6 q-13 -2 -23 -3 l-10 17 q10 4 19 11 q21 18 45 48 l-84 0 ZM237 108 q-73 35 -107 80 q-39 -46 -113 -84 q-2 4 -8 11 q-2 3 -3 4 q79 37 121 93 l20 -3 l-7 -8 q35 -48 109 -77 q-1 -1 -2 -2 q-7 -10 -10 -14 ZM61 106 l0 16 l132 0 l0 -16 l-132 0 Z" /><glyph glyph-name="" unicode="&#x4f20;" d="M89 159 l0 15 l45 0 q2 6 5 18 q3 11 4 17 l18 -2 q-4 -16 -9 -33 l87 0 l0 -15 l-91 0 l-10 -36 l111 0 l0 -14 l-115 0 l-10 -35 l109 0 l0 -16 l-55 -56 l34 -17 l-11 -15 q-43 27 -108 60 l9 12 l61 -32 l50 50 l-107 0 l0 16 q6 15 10 33 l-40 0 l0 14 l45 0 q5 18 9 36 l-41 0 ZM13 71 q-3 10 -7 19 q36 54 54 119 l17 -4 q-8 -28 -20 -54 l0 -179 l-16 0 l0 144 q-13 -25 -28 -45 Z" /><glyph glyph-name="" unicode="&#x4f2f;" d="M99 -27 l0 198 l42 0 q3 8 7 22 q3 11 5 17 l18 -3 q-6 -16 -12 -36 l76 0 l0 -197 l-17 0 l0 20 l-102 0 l0 -21 l-17 0 ZM116 75 l0 -67 l102 0 l0 67 l-102 0 ZM116 156 l0 -66 l102 0 l0 66 l-102 0 ZM12 74 q-1 4 -4 13 q-2 5 -3 7 q36 52 56 116 l17 -5 q-1 -3 -4 -10 q-11 -30 -18 -44 l0 -180 l-17 0 l0 147 q-13 -24 -27 -44 Z" /><glyph glyph-name="" unicode="&#x4f3c;" d="M237 -23 q-2 3 -6 8 q-14 15 -34 41 q-15 -24 -56 -55 q-2 2 -6 6 q-4 5 -7 8 q47 30 60 60 q16 28 18 96 q2 33 2 62 l17 0 q-1 -10 -1 -31 q-1 -21 -1 -31 q-4 -72 -19 -101 q34 -37 46 -51 l-13 -12 ZM38 -29 l0 145 q-11 -23 -26 -43 q-1 3 -3 10 q-2 7 -3 10 q31 45 52 117 l15 -4 q-4 -15 -14 -43 q-3 -7 -4 -11 l0 -181 l-17 0 ZM95 2 l-12 15 q9 9 8 24 l0 143 l16 0 l0 -150 q28 17 60 39 q0 -10 2 -19 q-46 -29 -62 -42 q-8 -6 -12 -10 ZM160 138 q-6 13 -20 41 q-8 14 -11 20 l14 7 q3 -6 11 -20 q14 -27 21 -40 l-15 -8 Z" /><glyph glyph-name="" unicode="&#x4f4d;" d="M74 -17 l0 16 l89 0 q26 66 46 132 l18 -6 q-28 -80 -46 -126 l69 0 l0 -16 l-176 0 ZM13 72 q-1 5 -5 13 q-1 5 -2 7 q35 53 54 118 l17 -5 q-9 -28 -20 -52 l0 -183 l-16 0 l0 149 q-12 -25 -28 -47 ZM162 165 q-4 9 -12 30 q-4 7 -5 11 l17 4 q10 -23 16 -41 l-16 -4 ZM243 164 l0 -16 l-162 0 l0 16 l162 0 ZM128 20 q-13 48 -32 105 l16 5 q8 -23 25 -77 q5 -18 8 -27 l-17 -6 Z" /><glyph glyph-name="" unicode="&#x4f53;" d="M77 144 l0 15 l70 0 l0 50 l16 0 l0 -50 l76 0 l0 -15 l-65 0 q26 -73 76 -112 q-1 -1 -2 -3 q-7 -9 -9 -13 q-54 51 -76 123 l0 -103 l41 0 l0 -16 l-41 0 l0 -49 l-16 0 l0 49 l-41 0 l0 16 l41 0 l0 103 q-22 -74 -76 -127 q0 1 -2 2 q-6 10 -10 13 q54 47 76 117 l-58 0 ZM38 -29 l0 143 q-3 -4 -8 -13 q-5 -8 -18 -27 q-5 12 -7 19 q36 50 56 116 l16 -4 q-11 -32 -23 -59 l0 -175 l-16 0 Z" /><glyph glyph-name="" unicode="&#x4f55;" d="M94 35 l0 102 l81 0 l0 -102 l-81 0 ZM87 174 l0 16 l162 0 l0 -16 l-21 0 l0 -165 q1 -34 -34 -34 q-7 0 -24 -1 q-11 0 -13 0 q-1 5 -2 12 q-1 4 -1 6 q7 0 18 -1 q11 0 16 0 q24 -1 23 19 l0 164 l-124 0 ZM12 77 q-1 4 -4 14 q-1 3 -2 5 q36 48 57 113 l17 -5 q-10 -27 -21 -50 l0 -183 l-17 0 l0 151 q-13 -22 -30 -45 ZM110 123 l0 -73 l49 0 l0 73 l-49 0 Z" /><glyph glyph-name="" unicode="&#x4f5b;" d="M82 -29 q-3 4 -12 13 q41 28 47 69 l-46 0 l8 66 l42 0 l0 39 l-45 0 l0 15 l44 0 l0 35 l16 0 l0 -35 l33 0 l0 35 l15 0 l0 -35 l47 0 l0 -68 l-47 0 l0 -37 l59 0 q0 -26 -2 -44 q-1 -24 -24 -24 q-4 0 -11 -1 q-7 0 -10 0 q-1 7 -3 14 q9 0 18 0 q15 0 16 14 q0 14 0 26 l-43 0 l0 -78 l-15 0 l0 78 l-36 0 q-6 -49 -51 -82 ZM35 -29 l0 143 q-11 -21 -23 -40 q-3 11 -6 19 q33 55 50 117 l15 -4 q-8 -30 -20 -59 l0 -176 l-16 0 ZM136 158 l0 -39 l33 0 l0 39 l-33 0 ZM216 158 l-32 0 l0 -39 l32 0 l0 39 ZM136 105 q0 -21 -2 -37 l35 0 l0 37 l-33 0 ZM119 68 q1 5 1 18 q1 13 1 19 l-29 0 l-4 -37 l31 0 Z" /><glyph glyph-name="" unicode="&#x4f5c;" d="M88 99 q-2 2 -7 6 q-4 3 -7 5 q33 40 53 100 l17 -3 q-6 -19 -14 -36 l119 0 l0 -16 l-89 0 l0 -46 l75 0 l0 -15 l-75 0 l0 -48 l82 0 l0 -15 l-82 0 l0 -60 l-17 0 l0 184 l-21 0 q-12 -26 -34 -56 ZM14 72 q-3 9 -8 18 q35 50 57 120 l16 -4 q-9 -29 -22 -56 l0 -179 l-16 0 l0 145 q-12 -23 -27 -44 Z" /><glyph glyph-name="" unicode="&#x4f60;" d="M13 70 l-7 20 q39 54 58 120 l18 -5 q-10 -29 -24 -58 l0 -176 l-16 0 l0 144 q-15 -27 -29 -45 ZM228 111 q-8 3 -17 5 l17 40 l-106 0 q-12 -24 -27 -47 q-7 4 -14 10 q27 39 46 90 l17 -5 q-6 -16 -14 -33 l115 0 l0 -16 l-17 -44 ZM115 -26 q-1 9 -4 18 q9 -1 27 -1 q20 -1 19 16 l0 126 l17 0 l0 -128 q1 -31 -31 -30 q-10 -1 -28 -1 ZM96 9 q-7 5 -16 7 q21 37 37 83 l15 -6 q-15 -39 -36 -84 ZM233 11 q-19 46 -36 82 l14 6 q3 -5 8 -16 q21 -43 30 -65 l-16 -7 Z" /><glyph glyph-name="" unicode="&#x4f73;" d="M90 42 l0 15 l64 0 l0 32 l17 0 l0 -32 l66 0 l0 -15 l-66 0 l0 -44 l77 0 l0 -16 l-170 0 l0 16 l76 0 l0 44 l-64 0 ZM91 157 l0 15 l63 0 l0 36 l17 0 l0 -36 l64 0 l0 -15 l-64 0 l0 -42 l73 0 l0 -15 l-162 0 l0 15 l72 0 l0 42 l-63 0 ZM14 78 q-1 4 -4 10 q-2 7 -4 10 q35 45 58 112 l17 -5 q-1 -4 -4 -11 q-12 -31 -20 -45 l0 -178 l-17 0 l0 147 q-12 -21 -26 -40 Z" /><glyph glyph-name="" unicode="&#x4f7f;" d="M238 -27 q-66 8 -100 27 q-21 -16 -63 -30 q-2 3 -6 9 q-3 4 -4 6 q45 15 59 25 q-18 15 -31 37 l13 9 q14 -22 29 -34 q13 16 16 45 l-65 0 l0 67 l66 0 l0 28 l-76 0 l0 15 l76 0 l1 32 l16 0 l0 -32 l79 0 l0 -15 l-79 0 l0 -28 l66 0 l0 -76 l-16 0 l0 9 l-52 0 q-3 -36 -18 -55 q27 -16 97 -23 q-1 -1 -2 -4 q-5 -8 -6 -12 ZM36 -29 l0 141 q-10 -20 -23 -38 q-3 10 -7 19 q34 51 52 116 l16 -4 q-9 -31 -22 -60 l0 -174 l-16 0 ZM169 105 q0 -4 0 -12 q-1 -8 -1 -12 l51 0 l0 39 l-50 0 l0 -15 ZM152 81 q0 12 0 24 l0 15 l-50 0 l0 -39 l50 0 Z" /><glyph glyph-name="" unicode="&#x4f9b;" d="M81 141 l0 15 l32 0 l0 53 l17 0 l0 -53 l58 0 l0 53 l16 0 l0 -53 l34 0 l0 -15 l-34 0 l0 -74 l44 0 l0 -16 l-178 0 l0 16 l43 0 l0 74 l-32 0 ZM12 77 q-3 9 -6 20 q36 49 55 112 l17 -5 q-10 -29 -22 -53 l0 -180 l-16 0 l0 148 q-11 -18 -28 -42 ZM130 141 l0 -74 l58 0 l0 74 l-58 0 ZM82 -28 q-2 3 -13 12 q33 24 59 54 l14 -10 q-24 -26 -60 -56 ZM234 -28 q-10 11 -40 40 q-12 11 -17 16 l12 11 q28 -26 59 -55 l-14 -12 Z" /><glyph glyph-name="" unicode="&#x4fb5;" d="M234 -27 q-50 12 -77 26 q-23 -13 -80 -28 q-5 10 -8 15 q46 12 72 21 q-24 18 -41 45 l-11 0 l0 14 l128 0 l0 -15 q-19 -27 -44 -45 q24 -9 69 -18 q-4 -6 -8 -15 ZM93 152 l0 12 l116 0 l0 21 l-122 0 l0 13 l138 0 l0 -79 l-142 0 l0 13 l126 0 l0 20 l-116 0 ZM36 -29 l0 142 q-10 -19 -23 -39 q-1 3 -3 8 q-3 7 -4 10 q34 53 51 117 l16 -5 q-9 -31 -21 -59 l0 -174 l-16 0 ZM69 62 l0 36 l173 0 l0 -35 l-16 0 l0 22 l-141 0 l0 -23 l-16 0 ZM199 52 l-80 0 q16 -24 38 -37 q22 13 42 37 Z" /><glyph glyph-name="" unicode="&#x4fdd;" d="M92 116 l0 81 l135 0 l0 -81 l-135 0 ZM70 66 l0 15 l81 0 l0 28 l17 0 l0 -28 l80 0 l0 -15 l-69 0 q23 -40 70 -63 q-4 -3 -10 -13 q-51 25 -71 71 l0 -90 l-17 0 l0 89 q-24 -48 -75 -74 q-1 1 -2 3 q-6 8 -9 11 q50 23 74 66 l-69 0 ZM109 182 l0 -50 l102 0 l0 50 l-102 0 ZM37 -29 l0 142 q-10 -19 -24 -39 q-1 3 -3 8 q-3 7 -4 10 q34 53 51 117 l17 -5 q-2 -4 -4 -13 q-10 -30 -17 -44 l0 -176 l-16 0 Z" /><glyph glyph-name="" unicode="&#x4fe1;" d="M93 -29 l0 85 l139 0 l0 -85 l-16 0 l0 15 l-106 0 l0 -15 l-17 0 ZM37 -29 l0 144 q-14 -27 -24 -41 q-3 10 -7 19 q33 49 53 116 l16 -4 q-5 -16 -17 -46 q-3 -7 -4 -11 l0 -177 l-17 0 ZM110 41 l0 -41 l106 0 l0 41 l-106 0 ZM78 162 l0 15 l80 0 q-2 7 -7 18 q-3 7 -5 11 l17 4 q2 -4 6 -13 q5 -11 7 -17 l-9 -3 l81 0 l0 -15 l-170 0 ZM91 82 l0 14 l143 0 l0 -14 l-143 0 ZM91 122 l0 14 l143 0 l0 -14 l-143 0 Z" /><glyph glyph-name="" unicode="&#x4fee;" d="M243 92 q-41 11 -68 26 q-20 -14 -71 -31 q-3 6 -8 14 q39 10 66 26 q-18 14 -31 32 q-10 -13 -23 -27 q-5 5 -10 10 q28 29 45 67 l15 -3 q-2 -5 -7 -14 q-2 -4 -3 -6 l81 0 l0 -15 q-16 -26 -40 -44 q24 -13 60 -20 q-3 -7 -6 -15 ZM35 -29 l0 146 q-11 -24 -23 -43 q-3 10 -6 19 q31 56 45 117 l16 -3 q-8 -27 -17 -53 l0 -183 l-15 0 ZM100 -29 q-3 6 -8 14 q85 18 141 61 l10 -12 q-54 -42 -143 -63 ZM73 15 l0 155 l15 0 l0 -155 l-15 0 ZM115 11 q-3 6 -9 14 q63 18 106 51 l10 -11 q-49 -35 -107 -54 ZM212 172 l-73 0 l0 -1 q16 -22 36 -36 q22 15 37 37 ZM115 50 q-1 2 -3 5 q-4 6 -6 8 q47 15 82 39 l10 -12 q-36 -23 -83 -40 Z" /><glyph glyph-name="" unicode="&#x4ff1;" d="M68 31 l0 14 l26 0 l0 153 l129 0 l0 -153 l27 0 l0 -14 l-182 0 ZM39 -29 l0 146 q-12 -20 -27 -41 q-3 9 -7 18 q35 44 57 115 l16 -5 q-10 -30 -23 -57 l0 -176 l-16 0 ZM110 71 l0 -26 l97 0 l0 26 l-97 0 ZM110 185 l0 -26 l97 0 l0 26 l-97 0 ZM110 109 l0 -26 l97 0 l0 26 l-97 0 ZM110 147 l0 -26 l97 0 l0 26 l-97 0 ZM82 -30 l-10 14 q31 16 58 41 l11 -11 q-31 -27 -59 -44 ZM234 -28 q-23 18 -58 42 l11 11 q3 -2 9 -6 q31 -21 48 -35 l-10 -12 Z" /><glyph glyph-name="" unicode="&#x5047;" d="M77 -29 l0 225 l72 0 l0 -75 l-56 0 l0 -33 l49 0 l0 -15 l-49 0 l0 -33 l52 0 l0 -14 l-52 0 l0 -55 l-16 0 ZM241 -26 q-28 16 -46 33 q-21 -20 -57 -37 q-5 6 -11 14 q42 17 58 34 q-19 27 -27 65 l-7 0 l0 15 l85 0 l0 -14 q-10 -41 -30 -66 q14 -16 45 -30 q-1 -2 -5 -7 q-3 -5 -5 -7 ZM34 -29 l0 145 q-10 -24 -22 -43 q-3 11 -7 19 q29 53 43 118 l16 -4 q-6 -24 -15 -51 l0 -184 l-15 0 ZM162 121 l0 14 l56 0 l0 46 l-55 0 l0 14 l71 0 l0 -74 l-72 0 ZM93 182 l0 -47 l41 0 l0 47 l-41 0 ZM220 83 l-47 0 q7 -31 23 -53 q17 22 24 53 Z" /><glyph glyph-name="" unicode="&#x505a;" d="M239 -25 q-24 21 -39 43 q-17 -23 -45 -48 q-1 2 -6 8 q-4 4 -5 6 q31 24 47 49 q-16 30 -22 82 q-6 -12 -12 -22 q-1 2 -6 8 q-3 3 -4 5 q27 45 39 103 l16 -1 q-6 -24 -13 -45 l59 0 l0 -15 l-13 0 q-5 -77 -26 -115 q15 -23 41 -43 q-6 -8 -11 -15 ZM64 144 l0 14 l38 0 l0 50 l16 0 l0 -50 l38 0 l0 -14 l-38 0 l0 -50 l28 0 l0 -90 l-57 0 l0 -14 l-15 0 l0 104 l28 0 l0 50 l-38 0 ZM35 -29 l0 148 q-2 -4 -6 -11 q-5 -11 -17 -31 q-4 10 -7 19 q27 44 47 113 l15 -3 q-8 -27 -17 -51 l0 -184 l-15 0 ZM89 79 l0 -60 l42 0 l0 60 l-42 0 ZM200 50 q16 31 20 98 l-36 0 q0 -1 -1 -2 q0 -1 -3 -6 q6 -59 20 -90 Z" /><glyph glyph-name="" unicode="&#x5143;" d="M10 105 l0 16 l236 0 l0 -16 l-79 0 l0 -91 q-1 -20 20 -18 l16 0 q22 -1 25 18 q3 19 4 32 q5 -3 17 -5 q-1 -7 -3 -22 q-1 -6 -1 -9 q-4 -31 -40 -30 l-22 0 q-34 -1 -33 30 l0 95 l-53 0 l0 -16 q2 -83 -75 -118 q0 1 -2 2 q-6 10 -10 13 q42 21 54 41 q13 18 15 62 q0 2 0 7 q1 6 1 9 l-70 0 ZM33 178 l0 16 l190 0 l0 -16 l-190 0 Z" /><glyph glyph-name="" unicode="&#x5149;" d="M9 90 l0 16 l110 0 l0 104 l17 0 l0 -104 l112 0 l0 -16 l-81 0 l0 -81 q-1 -17 18 -16 l25 0 q18 -1 20 13 q2 13 3 34 q9 -3 17 -6 q0 -2 -1 -4 q-2 -20 -4 -30 q-4 -23 -33 -23 l-31 0 q-31 0 -31 29 l0 84 l-53 0 q0 -10 -1 -19 q-1 -70 -79 -100 q-6 10 -11 15 q71 24 73 87 q1 3 1 8 q1 6 1 9 l-72 0 ZM180 126 l-13 11 q31 30 48 53 l14 -10 q-22 -25 -49 -54 ZM71 127 q-20 28 -44 53 l13 10 q20 -21 45 -51 l-14 -12 Z" /><glyph glyph-name="" unicode="&#x5165;" d="M234 -21 q-60 40 -99 133 l-9 18 q-28 -96 -106 -153 l-13 16 q81 54 108 158 q-17 30 -38 46 l13 10 q31 -23 60 -87 q39 -92 99 -124 q-2 -3 -7 -9 q-5 -5 -8 -8 Z" /><glyph glyph-name="" unicode="&#x5168;" d="M50 101 l0 16 l155 0 l0 -16 l-69 0 l0 -42 l81 0 l0 -15 l-81 0 l0 -44 l103 0 l0 -16 l-222 0 l0 16 l102 0 l0 44 l-80 0 l0 15 l80 0 l0 42 l-69 0 ZM238 106 q-74 36 -109 85 q-45 -53 -112 -87 q-2 3 -7 9 q-3 4 -4 5 q80 41 118 94 l19 -3 q-1 -1 -2 -3 q-2 -2 -3 -3 q38 -50 111 -82 q-3 -3 -11 -15 Z" /><glyph glyph-name="" unicode="&#x5170;" d="M17 140 l0 17 l128 0 q11 13 36 47 q-2 -2 3 5 l17 -8 q-5 -6 -16 -20 q-14 -16 -20 -24 l74 0 l0 -17 l-222 0 ZM8 -11 l0 15 l239 0 l0 -15 l-239 0 ZM36 65 l0 16 l184 0 l0 -16 l-184 0 ZM89 159 q-20 27 -33 41 l13 10 q10 -11 31 -36 q-2 2 4 -5 l-15 -10 Z" /><glyph glyph-name="" unicode="&#x5173;" d="M27 142 l0 15 l117 0 q28 34 40 53 l16 -8 q-6 -7 -17 -22 q-12 -15 -18 -23 l64 0 l0 -15 l-93 0 q0 -20 -2 -50 l110 0 l0 -15 l-106 0 q23 -70 108 -87 l-10 -17 q-89 27 -109 91 q-13 -60 -106 -93 q-6 7 -11 15 q96 31 104 91 l-101 0 l0 15 l103 0 q3 20 3 50 l-92 0 ZM88 159 q-20 25 -34 42 l14 8 q18 -20 35 -41 l-15 -9 Z" /><glyph glyph-name="" unicode="&#x5174;" d="M8 76 l0 16 l240 0 l0 -16 l-240 0 ZM26 -27 q-3 4 -13 14 q34 22 75 70 l14 -10 q-33 -40 -76 -74 ZM229 -25 q-21 23 -75 71 l13 11 q17 -15 45 -41 q22 -20 31 -28 l-14 -13 ZM63 111 q-5 10 -15 28 q-15 28 -23 43 l15 7 q18 -31 39 -70 l-16 -8 ZM190 112 l-16 9 q27 37 43 72 l17 -7 q-18 -33 -44 -74 ZM129 120 q-7 31 -22 81 l17 4 q4 -14 12 -40 q7 -26 11 -41 l-18 -4 Z" /><glyph glyph-name="" unicode="&#x5176;" d="M13 163 l0 15 l37 0 l0 31 l17 0 l0 -31 l121 0 l0 31 l17 0 l0 -31 l38 0 l0 -15 l-38 0 l0 -118 l44 0 l0 -15 l-242 0 l0 15 l43 0 l0 118 l-37 0 ZM67 76 l0 -31 l121 0 l0 31 l-121 0 ZM67 163 l0 -30 l121 0 l0 30 l-121 0 ZM67 119 l0 -29 l121 0 l0 29 l-121 0 ZM16 -30 q-3 9 -8 15 q42 14 86 35 l10 -14 q-58 -25 -88 -36 ZM239 -29 q-44 21 -88 35 l8 14 q47 -17 88 -33 l-8 -16 Z" /><glyph glyph-name="" unicode="&#x517c;" d="M9 168 l0 14 l77 0 q-15 15 -21 22 l15 7 q20 -20 23 -24 l-10 -5 l53 0 q9 11 20 29 l17 -6 q-2 -3 -7 -9 q-7 -10 -10 -14 l81 0 l0 -14 l-91 0 l0 -25 l61 0 l0 -39 l31 0 l0 -14 l-31 0 l0 -40 l-58 0 q32 -38 83 -55 q-5 -7 -10 -15 q-50 22 -76 54 l0 -63 l-15 0 l0 79 l-39 0 l0 -79 l-16 0 l0 60 q-22 -30 -70 -52 q-2 3 -8 11 q-1 2 -2 3 q53 20 78 57 l-62 0 l0 14 l64 0 l0 26 l-78 0 l0 14 l78 0 l0 26 l-60 0 l0 13 l60 0 l0 25 l-77 0 ZM156 64 l46 0 l0 26 l-46 0 l0 -26 ZM202 130 l-46 0 l0 -26 l46 0 l0 26 ZM102 90 l0 -26 l39 0 l0 26 l-39 0 ZM102 130 l0 -26 l39 0 l0 26 l-39 0 ZM102 168 l0 -25 l39 0 l0 25 l-39 0 Z" /><glyph glyph-name="" unicode="&#x518c;" d="M132 -29 q-3 3 -9 7 q-3 3 -5 4 q16 23 20 44 q5 20 5 66 l-31 0 l0 -86 q1 -23 -23 -24 q-9 0 -24 0 q0 2 -1 7 q-1 7 -2 9 q6 -1 19 -1 q16 -1 15 13 l0 82 l-45 0 q0 -46 -5 -71 q-5 -23 -21 -50 l-14 11 q15 24 19 45 q5 21 5 65 l-28 0 l0 16 l28 0 l0 90 l77 0 l0 -90 l31 0 l0 90 l80 0 l0 -90 l26 0 l0 -16 l-26 0 l0 -92 q1 -24 -26 -24 q-13 0 -26 0 q0 9 -3 16 q14 0 23 0 q17 -1 16 12 l0 88 l-48 0 q0 -49 -5 -72 q-5 -23 -22 -49 ZM159 183 l0 -75 l48 0 l0 75 l-48 0 ZM51 182 l0 -74 l45 0 l0 74 l-45 0 Z" /><glyph glyph-name="" unicode="&#x51b2;" d="M152 -29 l0 82 l-49 0 l0 -12 l-16 0 l0 120 l65 0 l0 49 l17 0 l0 -49 l66 0 l0 -120 l-16 0 l0 12 l-50 0 l0 -82 l-17 0 ZM103 145 l0 -76 l49 0 l0 76 l-49 0 ZM219 145 l-50 0 l0 -76 l50 0 l0 76 ZM27 -19 l-18 8 q18 42 36 103 q8 -4 17 -7 q-13 -35 -35 -104 ZM46 135 q-5 8 -13 21 q-14 23 -21 34 l14 8 q21 -31 35 -54 l-15 -9 Z" /><glyph glyph-name="" unicode="&#x51c6;" d="M89 -29 l0 157 q-4 -6 -13 -17 q-7 -9 -10 -14 q-1 3 -8 11 q-2 3 -3 4 q38 41 60 98 l16 -5 q-8 -21 -20 -40 l135 0 l0 -15 l-63 0 l0 -39 l60 0 l0 -15 l-60 0 l0 -39 l60 0 l0 -15 l-60 0 l0 -40 l65 0 l0 -12 l-143 0 l0 -19 l-16 0 ZM105 42 l0 -40 l61 0 l0 40 l-61 0 ZM105 96 l0 -39 l61 0 l0 39 l-61 0 ZM105 150 l0 -39 l61 0 l0 39 l-61 0 ZM28 -19 l-18 8 q20 49 33 97 q4 -2 13 -5 q3 -1 4 -1 q-3 -8 -8 -26 q-16 -49 -24 -73 ZM43 131 q-15 33 -29 58 l14 6 q16 -27 31 -56 l-16 -8 ZM176 166 q-5 11 -20 36 l14 7 q13 -19 22 -36 l-16 -7 Z" /><glyph glyph-name="" unicode="&#x51e4;" d="M19 -29 q-1 1 -6 6 q-5 4 -7 6 q16 21 20 44 q4 22 4 79 l0 89 l182 0 l0 -112 q0 -70 7 -84 q3 -7 8 -7 q5 3 6 9 q2 10 5 41 q7 -3 13 -4 q0 -1 0 -3 q-2 -29 -5 -38 q-3 -24 -20 -24 q-15 0 -22 18 q-9 13 -8 91 l0 98 l-149 0 l0 -71 q0 -61 -5 -86 q-5 -25 -23 -52 ZM167 -1 q-5 5 -17 17 q-15 18 -23 26 q-22 -27 -65 -50 q-2 2 -7 7 q-4 4 -5 5 q42 23 66 51 q-22 26 -45 49 l13 10 q7 -7 21 -23 q14 -15 21 -23 q17 24 26 66 l-87 0 l0 15 l104 0 l0 -15 q-11 -49 -31 -78 q4 -5 13 -15 q20 -22 29 -33 l-13 -9 Z" /><glyph glyph-name="" unicode="&#x51ef;" d="M116 -30 q-7 7 -13 13 q24 23 30 46 q7 22 7 79 l0 88 l74 0 l0 -193 q-1 -10 8 -9 l2 0 q9 -1 10 12 q3 14 3 40 q1 0 5 -2 q6 -2 9 -2 q-1 -11 -2 -28 q-1 -9 -1 -14 q-2 -23 -23 -22 l-6 0 q-22 -1 -21 22 l0 181 l-42 0 l0 -73 q0 -59 -8 -85 q-7 -26 -32 -53 ZM24 -21 l-10 15 q7 6 7 16 l0 52 l75 0 l0 34 l-83 0 l0 14 l99 0 l0 -62 l-75 0 l0 -48 q30 5 73 15 q0 -11 0 -15 q-36 -6 -66 -14 q-12 -2 -20 -7 ZM15 134 l0 61 l14 0 l0 -47 l30 0 l0 63 l14 0 l0 -63 l30 0 l0 47 l14 0 l0 -61 l-102 0 Z" /><glyph glyph-name="" unicode="&#x51fa;" d="M32 99 l0 86 l17 0 l0 -70 l70 0 l0 93 l17 0 l0 -93 l70 0 l0 70 l17 0 l0 -86 l-87 0 l0 -99 l77 0 l0 68 l17 0 l0 -93 l-17 0 l0 9 l-188 0 l0 84 l16 0 l0 -68 l78 0 l0 99 l-87 0 Z" /><glyph glyph-name="" unicode="&#x51fb;" d="M25 151 l0 16 l94 0 l0 43 l18 0 l0 -43 l94 0 l0 -16 l-94 0 l0 -49 l111 0 l0 -15 l-111 0 l0 -87 l70 0 l0 61 l18 0 l0 -90 l-18 0 l0 15 l-176 0 l0 75 l17 0 l0 -61 l71 0 l0 87 l-111 0 l0 15 l111 0 l0 49 l-94 0 Z" /><glyph glyph-name="" unicode="&#x5206;" d="M115 -23 q-1 9 -3 18 q4 0 14 0 q16 -1 25 -1 q29 -2 29 28 q3 30 3 64 l-81 0 q0 -19 -4 -34 q-9 -52 -74 -82 q-1 1 -4 5 q-4 7 -7 10 q58 22 68 71 q3 14 4 30 l-46 0 l0 16 l162 0 q-1 -33 -3 -83 q-2 -41 -46 -41 q-22 -1 -37 -1 ZM236 96 q-61 39 -90 108 l16 6 q27 -67 86 -98 q-3 -3 -12 -16 ZM17 95 q-5 8 -11 16 q56 36 87 96 l16 -8 q-37 -65 -92 -104 Z" /><glyph glyph-name="" unicode="&#x5212;" d="M12 115 l-2 16 l39 6 q-1 15 -2 49 q-1 16 -1 24 l17 0 q0 -40 2 -71 l81 14 l2 -15 l-82 -14 q3 -46 10 -69 q24 21 48 57 l14 -8 q-26 -41 -57 -67 q7 -20 20 -37 q9 -10 19 -10 q8 0 11 11 q5 17 8 35 q1 0 3 -2 q3 -1 12 -5 q-4 -24 -9 -34 q-7 -21 -24 -22 q-20 -1 -33 19 q-13 14 -21 35 q-22 -18 -52 -30 q-1 2 -5 6 q-3 4 -5 6 q32 15 57 34 q-9 30 -12 79 l-38 -7 ZM172 -26 q-1 9 -4 18 q15 -1 29 -1 q22 -1 21 18 l0 199 l16 0 l0 -203 q1 -30 -30 -30 q-9 -1 -32 -1 ZM165 36 l0 148 l16 0 l0 -148 l-16 0 ZM116 161 q-12 11 -35 28 l11 11 q22 -16 35 -27 l-11 -12 Z" /><glyph glyph-name="" unicode="&#x5217;" d="M16 182 l0 16 l131 0 l0 -16 l-65 0 q-5 -22 -13 -42 l65 0 l0 -15 q-18 -100 -105 -154 q-2 2 -6 7 q-4 4 -6 7 q83 49 101 140 l-56 0 q-5 -11 -13 -24 q20 -16 38 -33 l-11 -13 q-9 9 -26 24 q-7 6 -10 9 q-10 -15 -24 -30 q-1 1 -5 5 q-4 5 -6 7 q45 49 60 112 l-49 0 ZM169 -26 q0 1 0 2 q-1 7 -4 17 q10 -1 32 -1 q22 -1 21 16 l0 199 l16 0 l0 -201 q1 -32 -30 -31 q-4 0 -17 -1 q-13 0 -18 0 ZM163 30 l0 148 l16 0 l0 -148 l-16 0 Z" /><glyph glyph-name="" unicode="&#x521b;" d="M66 -21 q-34 -1 -33 30 l0 114 l100 0 q0 -25 -2 -52 q-2 -30 -34 -31 q-13 0 -27 0 q-1 7 -3 16 q14 -1 27 -1 q20 0 21 19 q1 4 1 17 q1 12 1 17 l-68 0 l0 -97 q-1 -18 20 -17 l36 0 q21 0 25 13 q3 11 5 28 q9 -4 17 -6 q0 -1 -1 -3 q-3 -19 -6 -26 q-5 -21 -37 -21 l-42 0 ZM174 -25 q-1 9 -4 18 q13 -1 32 -1 q18 0 17 15 l0 202 l16 0 l0 -205 q1 -27 -28 -28 q-16 -1 -33 -1 ZM140 130 q-29 31 -55 55 q-25 -40 -70 -74 q-1 1 -2 3 q-4 7 -7 11 q51 37 75 86 l18 -3 l-6 -10 q25 -23 60 -56 l-13 -12 ZM166 30 l0 153 l16 0 l0 -153 l-16 0 Z" /><glyph glyph-name="" unicode="&#x521d;" d="M158 -21 q0 3 -2 12 q-1 4 -1 6 q11 -1 38 -1 q24 -1 24 22 q3 109 3 155 l-58 0 q0 -30 -2 -52 q-1 -104 -68 -150 q-4 3 -14 13 q64 41 65 136 q2 30 2 53 l-44 0 l0 15 l137 0 q0 -12 -1 -43 q-1 -105 -3 -128 q-1 -38 -38 -38 q-19 0 -38 0 ZM100 44 q-22 20 -40 33 l0 -105 l-16 0 l0 108 q-15 -16 -33 -31 q-1 4 -5 15 q-1 1 -1 2 q41 30 66 79 l-59 0 l0 15 l76 0 l0 -15 q-13 -27 -28 -46 l0 -5 q8 -5 15 -11 q3 4 8 11 q11 15 16 23 l12 -9 q-14 -19 -25 -33 l25 -18 l-11 -13 ZM57 164 q-14 26 -20 38 l14 7 q9 -15 21 -37 l-15 -8 Z" /><glyph glyph-name="" unicode="&#x5229;" d="M9 117 l0 15 l57 0 l0 46 q-14 -2 -41 -3 q-6 -1 -9 -1 q-1 4 -3 11 q-1 3 -1 4 q67 4 117 11 l4 -15 q-15 -2 -51 -6 l0 -47 l56 0 l0 -15 l-56 0 l0 -31 l7 7 q20 -16 51 -43 l-12 -12 q-32 30 -46 42 l0 -108 l-16 0 l0 117 q-18 -42 -52 -78 q-4 10 -8 20 q38 34 59 86 l-56 0 ZM170 -25 q-1 12 -4 18 q18 0 36 0 q17 -1 16 14 l0 201 l16 0 l0 -203 q1 -28 -28 -29 q-3 0 -16 0 q-16 -1 -20 -1 ZM155 29 l0 152 l17 0 l0 -152 l-17 0 Z" /><glyph glyph-name="" unicode="&#x522b;" d="M23 116 l0 80 l109 0 l0 -80 l-109 0 ZM65 -23 q0 4 -2 11 q-1 4 -1 6 q5 0 15 -1 q10 0 14 0 q24 -1 25 22 q2 27 2 53 l-48 0 q-1 -61 -52 -97 q-3 4 -13 12 q47 31 48 85 l-39 0 l0 14 l40 0 q0 4 0 12 q1 8 1 13 l16 0 q0 -13 -1 -25 l65 0 q-1 -12 -2 -44 q-1 -18 -1 -26 q-1 -36 -37 -35 q-16 0 -30 0 ZM168 -25 q-1 10 -3 17 q13 0 32 0 q23 -1 21 16 l0 200 l17 0 l0 -203 q1 -30 -33 -30 q-18 0 -34 0 ZM39 181 l0 -50 l77 0 l0 50 l-77 0 ZM166 30 l0 153 l17 0 l0 -153 l-17 0 Z" /><glyph glyph-name="" unicode="&#x5230;" d="M11 180 l0 16 l137 0 l0 -16 l-69 0 q-18 -28 -40 -58 q12 1 38 2 q27 2 38 2 q-2 4 -7 11 q-8 12 -12 18 l13 7 q20 -29 38 -58 l-15 -8 q-1 3 -4 8 q-3 6 -5 8 q-19 -1 -53 -3 q-16 -1 -23 -1 q-1 0 -4 0 q-15 -2 -21 -4 l-8 16 q9 6 12 11 q17 21 33 49 l-48 0 ZM14 52 l0 15 l57 0 l0 30 l16 0 l0 -30 l56 0 l0 -15 l-56 0 l0 -48 l61 8 q0 -8 0 -14 q-65 -8 -137 -18 l-3 17 q29 3 63 5 l0 50 l-57 0 ZM174 -25 q-1 7 -2 16 q0 -2 -1 2 q7 -1 33 -1 q16 0 16 15 l0 201 l16 0 l0 -203 q1 -29 -28 -29 q-3 0 -15 0 q-15 -1 -19 -1 ZM166 30 l0 153 l17 0 l0 -153 l-17 0 Z" /><glyph glyph-name="" unicode="&#x5236;" d="M7 105 l0 15 l71 0 l0 36 l-40 0 q-6 -13 -13 -26 q-7 4 -14 7 q18 32 25 62 l15 -3 q-3 -13 -8 -25 l35 0 l0 37 l16 0 l0 -37 l53 0 l0 -15 l-53 0 l0 -36 l63 0 l0 -15 l-63 0 l0 -31 l54 0 l0 -59 q1 -22 -23 -23 q-7 0 -18 0 q0 1 -1 2 q0 4 -3 11 q8 0 18 0 q12 -1 11 12 l0 43 l-38 0 l0 -90 l-16 0 l0 90 l-38 0 l0 -71 l-15 0 l0 85 l53 0 l0 31 l-71 0 ZM176 -25 q0 2 -1 8 q-1 6 -2 9 q5 0 15 -1 q10 0 15 0 q18 -1 17 16 l0 201 l16 0 l0 -203 q1 -30 -28 -30 q-17 0 -32 0 ZM172 35 l0 149 l16 0 l0 -149 l-16 0 Z" /><glyph glyph-name="" unicode="&#x524d;" d="M25 -29 l0 160 l103 0 l0 -131 q1 -24 -27 -24 q-14 0 -29 0 q0 9 -3 15 q15 0 29 0 q15 -1 14 11 l0 27 l-71 0 l0 -58 l-16 0 ZM8 159 l0 14 l76 0 q-12 15 -25 30 l14 7 q14 -14 29 -31 l-11 -6 l61 0 q22 26 30 37 l16 -8 q-4 -4 -11 -13 q-9 -11 -14 -16 l75 0 l0 -14 l-240 0 ZM170 -24 l-3 17 q10 -1 28 -1 q20 -1 19 17 l0 130 l16 0 l0 -133 q1 -30 -29 -30 q-16 0 -31 0 ZM41 73 l0 -30 l71 0 l0 30 l-71 0 ZM41 117 l0 -30 l71 0 l0 30 l-71 0 ZM162 19 l0 108 l15 0 l0 -108 l-15 0 Z" /><glyph glyph-name="" unicode="&#x529b;" d="M22 -27 q-2 2 -7 8 q-4 5 -5 6 q87 47 88 144 q0 3 0 6 l-81 0 l0 17 l82 0 q2 36 2 55 l18 0 q0 -18 -2 -47 q0 -5 0 -8 l113 0 q-2 -71 -5 -123 q0 -53 -49 -51 q-29 -1 -44 -1 q-1 6 -2 15 q0 -3 -1 4 q17 -1 44 -1 q34 -3 35 40 q0 6 1 21 q2 55 2 79 l-95 0 l0 -2 q-2 -113 -94 -162 Z" /><glyph glyph-name="" unicode="&#x52a0;" d="M148 -23 l0 201 l91 0 l0 -201 l-17 0 l0 23 l-57 0 l0 -23 l-17 0 ZM18 -28 q-8 6 -14 11 q41 50 42 155 q0 6 0 11 l-34 0 l0 16 l34 0 q1 14 1 45 l16 0 l0 -45 l57 0 q0 -5 0 -15 q-2 -104 -4 -137 q-1 -36 -33 -35 q-13 -1 -26 -1 q0 4 -2 13 q-1 4 -1 6 q12 -1 24 -1 q22 -2 22 20 q3 50 3 134 l-41 0 q0 -6 0 -12 q0 -115 -44 -165 ZM165 162 l0 -146 l57 0 l0 146 l-57 0 Z" /><glyph glyph-name="" unicode="&#x5305;" d="M78 -21 q-39 -1 -38 35 l0 115 q-10 -15 -25 -31 q-2 5 -7 14 q-2 2 -2 3 q41 43 61 96 l19 -4 q-6 -13 -13 -25 l145 0 q0 -6 0 -18 q-2 -65 -4 -98 q0 -43 -40 -42 q-17 0 -32 0 l-4 18 q15 -1 33 -1 q26 -1 26 25 q3 48 3 100 l-135 0 q-2 -3 -6 -9 q-4 -8 -16 -25 l107 0 l0 -72 l-93 0 l0 -44 q-1 -22 25 -21 l116 0 q25 0 28 16 q4 17 5 35 q9 -3 17 -6 q-2 -18 -6 -36 q-6 -25 -41 -25 l-123 0 ZM57 118 l0 -43 l76 0 l0 43 l-76 0 Z" /><glyph glyph-name="" unicode="&#x5316;" d="M86 42 q-1 2 -5 8 q-4 6 -6 8 q33 16 60 34 l0 114 l17 0 l0 -101 q40 30 71 71 l15 -11 q-37 -46 -86 -82 l0 -67 q-1 -21 23 -20 l26 0 q22 0 25 15 q3 12 6 44 l17 -6 q-4 -32 -6 -44 q-5 -26 -41 -25 l-32 0 q-37 -2 -35 34 l0 57 q-24 -15 -49 -29 ZM15 69 q-1 4 -5 10 q-3 7 -4 9 q43 50 68 120 l18 -6 q-15 -33 -30 -62 l0 -168 l-17 0 l0 140 q-13 -23 -30 -43 Z" /><glyph glyph-name="" unicode="&#x5317;" d="M185 -20 q-34 -1 -33 33 l0 194 l17 0 l0 -85 q35 18 65 38 l11 -15 q-36 -21 -76 -41 l0 -88 q-1 -21 20 -20 l13 0 q24 -2 26 21 q2 8 4 32 q0 1 0 2 q2 -1 8 -3 q7 -2 9 -3 q0 -1 0 -3 q-1 -10 -5 -31 q-3 -32 -40 -31 l-19 0 ZM11 122 l0 16 l70 0 l0 69 l18 0 l0 -234 l-18 0 l0 50 q-8 -3 -27 -11 q-29 -11 -41 -15 l-6 16 q42 14 74 27 l0 82 l-70 0 Z" /><glyph glyph-name="" unicode="&#x533a;" d="M27 -15 l0 208 l209 0 l0 -16 l-193 0 l0 -177 l197 0 l0 -15 l-213 0 ZM205 17 q-30 30 -61 60 q-33 -33 -71 -63 q-8 11 -13 14 q37 26 72 60 q-25 25 -63 59 l12 11 q13 -12 42 -38 q14 -13 21 -19 q27 29 50 61 l15 -9 q-24 -33 -53 -64 q34 -30 64 -59 l-15 -13 Z" /><glyph glyph-name="" unicode="&#x5347;" d="M18 166 q0 3 -2 11 q-1 3 -1 5 q75 5 129 13 l3 -16 q-26 -4 -58 -7 l0 -69 l84 0 l0 106 l17 0 l0 -106 l58 0 l0 -16 l-58 0 l0 -115 l-17 0 l0 115 l-84 0 q5 -78 -65 -117 q-2 2 -6 7 q-5 5 -7 8 q64 30 61 102 l-64 0 l0 16 l64 0 l0 67 q-25 -3 -54 -4 Z" /><glyph glyph-name="" unicode="&#x534e;" d="M90 110 q-3 8 -8 15 q2 1 7 2 q35 12 50 19 l0 61 l16 0 l0 -54 q36 16 68 41 l11 -12 q-39 -28 -79 -46 l0 -18 q-2 -22 23 -20 l24 0 q21 -1 24 16 q2 6 4 26 q10 -4 16 -6 q-2 -17 -5 -29 q-5 -23 -35 -22 l-33 0 q-36 -2 -34 32 l0 13 q-22 -9 -49 -18 ZM9 30 l0 16 l110 0 l0 31 l17 0 l0 -31 l110 0 l0 -16 l-110 0 l0 -59 l-17 0 l0 59 l-110 0 ZM16 119 q-1 3 -5 10 q-2 4 -3 6 q43 30 74 75 l15 -6 q-14 -21 -29 -37 l0 -91 l-16 0 l0 73 q-22 -21 -36 -30 Z" /><glyph glyph-name="" unicode="&#x5353;" d="M42 54 l0 97 l72 0 l0 60 l17 0 l0 -22 l103 0 l0 -14 l-103 0 l0 -24 l83 0 l0 -97 l-78 0 l0 -26 l111 0 l0 -15 l-111 0 l0 -42 l-17 0 l0 42 l-110 0 l0 15 l110 0 l0 26 l-77 0 ZM59 96 l0 -28 l138 0 l0 28 l-138 0 ZM59 137 l0 -27 l138 0 l0 27 l-138 0 Z" /><glyph glyph-name="" unicode="&#x5357;" d="M9 167 l0 15 l110 0 l0 27 l17 0 l0 -27 l110 0 l0 -15 l-110 0 l0 -29 l97 0 l0 -138 q0 -26 -28 -27 q-15 0 -37 0 q0 2 -2 7 q-1 7 -2 10 q11 -1 34 -1 q19 -1 18 14 l0 121 l-176 0 l0 -152 l-16 0 l0 166 l95 0 l0 29 l-110 0 ZM63 66 l0 13 l73 0 q5 7 15 21 q8 11 11 16 l15 -6 q-11 -15 -23 -31 l40 0 l0 -13 l-58 0 l0 -29 l65 0 l0 -14 l-65 0 l0 -46 l-16 0 l0 46 l-65 0 l0 14 l65 0 l0 29 l-57 0 ZM101 82 q-4 4 -12 15 q-6 8 -9 11 l13 7 q7 -6 21 -24 q1 -1 1 -2 l-14 -7 Z" /><glyph glyph-name="" unicode="&#x535a;" d="M72 169 l0 14 l77 0 l0 27 l15 0 l0 -27 l79 0 l0 -14 l-79 0 l0 -20 l65 0 l0 -91 l-15 0 l0 15 l-50 0 l0 -17 l-15 0 l0 17 l-50 0 l0 -20 l-15 0 l0 96 l65 0 l0 20 l-77 0 ZM7 125 l0 15 l25 0 l0 70 l16 0 l0 -70 l23 0 l0 -15 l-23 0 l0 -154 l-16 0 l0 154 l-25 0 ZM68 28 l0 13 l127 0 l0 18 l15 0 l0 -18 l39 0 l0 -13 l-39 0 l0 -28 q1 -25 -29 -25 q-20 0 -32 0 q0 1 -1 4 q-2 8 -3 12 q17 -1 33 -1 q18 -1 17 13 l0 25 l-127 0 ZM99 137 l0 -20 l50 0 l0 20 l-50 0 ZM99 105 l0 -20 l50 0 l0 20 l-50 0 ZM164 105 l0 -20 l50 0 l0 20 l-50 0 ZM214 137 l-50 0 l0 -20 l50 0 l0 20 ZM129 -11 q-6 5 -22 15 q-9 7 -13 10 l10 11 q13 -10 35 -25 l-10 -11 ZM207 183 q-6 7 -20 21 l12 7 q15 -13 20 -20 l-12 -8 Z" /><glyph glyph-name="" unicode="&#x5361;" d="M10 99 l0 15 l98 0 l0 96 l17 0 l0 -36 l105 0 l0 -16 l-105 0 l0 -44 l122 0 l0 -15 l-237 0 ZM221 8 q-38 22 -96 50 l0 -87 l-17 0 l0 119 l17 0 l0 -31 l9 12 q20 -9 64 -31 q22 -11 33 -16 l-10 -16 Z" /><glyph glyph-name="" unicode="&#x5370;" d="M133 -29 l0 221 l103 0 l0 -148 q0 -30 -31 -31 q-3 0 -13 0 q-14 -1 -20 -1 q-1 4 -2 11 q-2 5 -2 7 q15 -1 31 -1 q21 0 20 19 l0 128 l-68 0 l0 -205 l-18 0 ZM26 -3 l-12 13 q8 8 8 22 l0 158 q48 9 89 20 l7 -15 q-51 -13 -80 -18 l0 -59 l75 0 l0 -16 l-75 0 l0 -81 q1 0 4 1 q38 12 72 24 q0 -10 1 -18 q-24 -7 -73 -24 q-9 -2 -16 -7 Z" /><glyph glyph-name="" unicode="&#x5373;" d="M122 -5 q-8 9 -19 24 q-6 -3 -19 -9 q-14 -6 -42 -18 q-7 -4 -15 -10 l-11 14 q8 5 7 18 l0 181 l96 0 l0 -120 l-80 0 l0 -69 q21 9 55 27 l-18 23 l14 7 q30 -39 45 -61 l-13 -7 ZM150 -29 l0 219 l84 0 l0 -149 q2 -30 -29 -30 q-9 -1 -25 -1 q0 3 -1 9 q-1 5 -2 8 q13 0 22 0 q21 -1 19 17 l0 130 l-52 0 l0 -203 l-16 0 ZM39 90 l64 0 l0 38 l-64 0 l0 -38 ZM39 180 l0 -38 l64 0 l0 38 l-64 0 Z" /><glyph glyph-name="" unicode="&#x5374;" d="M16 150 l0 15 l49 0 l0 45 l16 0 l0 -45 l46 0 l0 -15 l-46 0 l0 -48 l53 0 l0 -15 l-64 0 l7 -2 q-30 -49 -45 -69 q12 1 37 2 q25 1 36 1 q-9 20 -20 39 l14 7 q19 -37 38 -72 l-16 -6 l-9 18 q-42 -1 -73 -4 q-12 0 -22 -1 l-7 14 q7 5 16 18 q18 25 32 55 l-49 0 l0 15 l56 0 l0 48 l-49 0 ZM148 -29 l0 219 l88 0 l0 -141 q2 -36 -35 -36 q-14 0 -22 0 q0 3 -1 8 q-1 6 -2 8 q9 0 22 0 q23 -2 21 23 l0 123 l-55 0 l0 -204 l-16 0 Z" /><glyph glyph-name="" unicode="&#x5386;" d="M64 -29 q-2 2 -7 8 q-5 5 -6 6 q74 41 73 119 l-54 0 l0 16 l55 0 q1 15 1 45 l18 0 l-2 -45 l86 0 q0 -36 -3 -95 q-2 -46 -42 -45 q-16 -1 -37 -1 q0 10 -3 18 q18 0 35 0 q29 -3 30 31 q2 44 2 76 l-68 0 q-1 -89 -78 -133 ZM20 -28 q-5 6 -13 13 q17 26 22 50 q5 24 5 70 l0 90 l213 0 l0 -17 l-196 0 l0 -69 q0 -54 -6 -81 q-6 -28 -25 -56 Z" /><glyph glyph-name="" unicode="&#x539f;" d="M19 -29 q-3 3 -8 7 q-4 3 -5 4 q15 23 21 49 q5 25 5 75 l0 89 l214 0 l0 -15 l-92 0 l-10 -30 l83 0 l0 -95 l-63 0 l0 -55 q0 -24 -27 -26 q-15 0 -30 0 q0 2 -2 8 q-1 5 -2 8 q16 -1 28 -1 q16 0 16 13 l0 53 l-70 0 l0 95 l50 0 l9 30 l-88 0 l0 -76 q0 -53 -5 -78 q-6 -26 -24 -55 ZM93 136 l0 -27 l118 0 l0 27 l-118 0 ZM93 96 l0 -27 l118 0 l0 27 l-118 0 ZM61 -18 q-5 3 -11 12 q26 17 51 47 l13 -10 q-16 -17 -49 -46 q2 2 -4 -3 ZM236 -17 q-12 13 -36 34 q-9 8 -13 12 l11 11 q9 -8 25 -23 q16 -15 25 -22 l-12 -12 Z" /><glyph glyph-name="" unicode="&#x53c8;" d="M18 -28 q-2 2 -5 8 q-4 5 -6 8 q70 21 107 52 q-45 45 -64 135 q0 0 1 1 l-23 0 l0 16 l182 0 l0 -17 q-21 -86 -69 -135 q34 -30 106 -48 q-5 -7 -4 -5 q-5 -7 -8 -12 q-73 23 -107 52 q-35 -27 -110 -55 ZM68 176 q16 -81 59 -124 q46 44 64 124 l-123 0 Z" /><glyph glyph-name="" unicode="&#x53ca;" d="M70 -30 q-6 8 -11 17 q49 15 79 39 q-33 32 -57 94 q-7 -89 -62 -146 q-2 3 -9 9 q-3 3 -4 4 q56 54 59 146 q2 20 2 44 l-46 0 l0 17 l177 0 l0 -18 l-27 -51 l49 0 l0 -16 q-23 -54 -55 -83 q29 -22 82 -35 q-6 -9 -10 -17 q-48 15 -85 40 q-35 -25 -82 -44 ZM85 177 q0 -4 0 -12 q-1 -9 -1 -13 l0 1 q30 -82 68 -116 q30 29 49 73 l-50 0 l0 15 l28 52 l-94 0 Z" /><glyph glyph-name="" unicode="&#x53cc;" d="M238 -25 q-43 27 -62 53 q-25 -31 -74 -58 q-2 4 -8 11 q-2 3 -3 4 q49 25 75 57 q-32 47 -41 133 l-7 0 l0 16 l116 0 l0 -16 q-14 -90 -47 -133 q23 -32 63 -51 q-6 -8 -12 -16 ZM100 3 l-27 45 q-20 -36 -54 -69 q-6 6 -13 13 q36 34 56 72 q-24 39 -50 78 l14 9 q10 -15 29 -43 q11 -17 16 -25 q15 40 21 92 l-82 0 l0 16 l99 0 l0 -16 q-9 -68 -28 -109 q10 -14 27 -42 q4 -7 6 -10 l-14 -11 ZM217 175 l-76 0 q9 -79 36 -119 q29 40 40 119 Z" /><glyph glyph-name="" unicode="&#x53d1;" d="M18 139 l0 18 q12 24 18 44 l17 -4 q-2 -5 -6 -14 q-8 -20 -12 -28 l57 0 q6 25 11 55 l18 -2 q-1 -6 -4 -17 q-4 -24 -8 -36 l138 0 l0 -16 l-142 0 q-4 -17 -11 -35 l125 0 l0 -14 q-18 -43 -53 -72 q28 -18 80 -28 q-4 -6 -9 -17 q-56 16 -86 35 q-28 -16 -92 -38 q-4 9 -10 17 q57 13 88 31 q-32 27 -49 71 q-25 -60 -72 -106 q-6 10 -11 15 q60 57 83 141 l-70 0 ZM200 90 l-95 0 q16 -38 47 -62 q34 26 48 62 ZM204 164 q-13 11 -35 28 q-3 3 -5 4 l10 11 q21 -15 42 -30 l-12 -13 Z" /><glyph glyph-name="" unicode="&#x53d6;" d="M12 183 l0 15 l113 0 l0 -15 l-14 0 l0 -144 l23 4 q0 -8 0 -15 l-23 -3 l0 -54 l-16 0 l0 51 q-23 -3 -72 -11 q-10 -2 -15 -3 l-2 16 q11 2 21 3 l0 156 l-15 0 ZM237 -25 q-36 31 -51 52 q-16 -23 -56 -55 q-5 6 -11 14 q36 25 58 55 q-29 45 -37 131 l-8 0 l0 15 l105 0 l0 -16 q-11 -86 -41 -130 q20 -28 53 -51 l-12 -15 ZM220 172 l-65 0 q9 -77 32 -115 q24 40 33 115 ZM43 29 q26 3 52 8 l0 38 l-52 0 l0 -46 ZM43 183 l0 -40 l52 0 l0 40 l-52 0 ZM43 129 l0 -40 l52 0 l0 40 l-52 0 Z" /><glyph glyph-name="" unicode="&#x53d7;" d="M239 -27 q-74 12 -111 29 q-37 -18 -110 -32 q-1 2 -4 8 q-3 5 -5 8 q68 11 102 26 q-27 19 -51 57 l-16 0 l0 15 l157 0 l0 -17 q-22 -34 -56 -55 q32 -15 102 -22 q-5 -8 -8 -17 ZM15 82 l0 46 l152 0 q17 26 30 48 l17 -6 q-3 -4 -9 -13 q-4 -6 -20 -29 l55 0 l0 -46 l-17 0 l0 31 l-191 0 l0 -31 l-17 0 ZM27 180 q0 1 0 2 q-1 6 -4 14 q110 0 202 7 l4 -16 q-114 -5 -202 -7 ZM182 69 l-102 0 q20 -31 48 -48 q32 19 54 48 ZM127 134 q-4 10 -12 27 q-3 6 -4 9 l15 5 q4 -7 10 -20 q5 -10 7 -15 l-16 -6 ZM61 132 q-3 4 -8 12 q-9 15 -14 21 l16 7 q2 -4 7 -12 q10 -16 14 -21 l-15 -7 Z" /><glyph glyph-name="" unicode="&#x53d8;" d="M238 -27 q-71 10 -111 28 q-39 -18 -109 -31 q-3 8 -9 16 q66 10 102 26 q-28 18 -51 54 l-24 0 l0 15 l167 0 l0 -16 q-27 -35 -58 -54 q38 -15 101 -21 q-4 -11 -8 -17 ZM11 163 l0 15 l115 0 q-2 4 -5 13 q-4 11 -6 16 l17 4 q2 -5 6 -15 q4 -10 6 -15 l-10 -3 l110 0 l0 -15 l-79 0 l0 -66 l-16 0 l0 66 l-43 0 l0 -66 l-16 0 l0 66 l-79 0 ZM183 66 l-104 0 q21 -29 49 -46 q30 16 55 46 ZM234 86 q-5 5 -16 16 q-20 21 -32 32 l11 10 q18 -15 49 -46 l-12 -12 ZM20 87 q-4 6 -12 12 q25 19 47 46 l12 -11 q-22 -25 -47 -47 Z" /><glyph glyph-name="" unicode="&#x53e0;" d="M8 -21 l0 12 l40 0 l0 68 l159 0 l0 -68 l41 0 l0 -12 l-240 0 ZM215 145 q-23 5 -74 14 q-6 1 -9 2 q-42 -10 -99 -16 q-1 2 -2 6 q-2 4 -3 6 q42 3 76 9 l-59 9 l3 10 q12 -2 37 -6 q31 -5 46 -7 q28 7 50 16 l-143 0 l0 11 l170 0 l0 -11 q-25 -11 -52 -20 q34 -6 64 -11 l-5 -12 ZM238 89 q-11 3 -30 8 q-14 4 -21 6 q-1 0 -4 -2 q-29 -9 -48 -13 q-1 2 -2 6 q-2 3 -3 5 q22 3 40 9 l-35 9 l4 9 l48 -12 q15 7 29 16 l-80 0 l0 11 l98 0 l0 -11 q-14 -11 -32 -20 q20 -5 40 -11 l-4 -10 ZM17 54 l0 30 l222 0 l0 -30 l-15 0 l0 19 l-192 0 l0 -19 l-15 0 ZM114 91 q-22 6 -41 12 q-30 -11 -55 -15 q-1 2 -3 6 q-1 3 -2 4 q23 4 43 10 q-5 1 -14 4 q-14 4 -21 6 l5 9 q8 -2 23 -6 q16 -5 23 -7 q18 7 31 16 l-85 0 l0 11 l102 0 l0 -11 q-15 -12 -32 -20 l31 -9 l-5 -10 ZM63 26 l0 -14 l129 0 l0 14 l-129 0 ZM63 2 l0 -11 l129 0 l0 11 l-129 0 ZM63 49 l0 -14 l129 0 l0 14 l-129 0 Z" /><glyph glyph-name="" unicode="&#x53e3;" d="M30 -20 l0 206 l196 0 l0 -206 l-18 0 l0 23 l-160 0 l0 -23 l-18 0 ZM48 169 l0 -150 l160 0 l0 150 l-160 0 Z" /><glyph glyph-name="" unicode="&#x53e4;" d="M7 147 l0 16 l112 0 l0 47 l17 0 l0 -47 l112 0 l0 -16 l-112 0 l0 -56 l81 0 l0 -120 l-17 0 l0 18 l-145 0 l0 -18 l-17 0 l0 120 l81 0 l0 56 l-112 0 ZM55 74 l0 -71 l145 0 l0 71 l-145 0 Z" /><glyph glyph-name="" unicode="&#x53eb;" d="M23 -1 l0 188 l77 0 l0 -186 l-16 0 l0 24 l-45 0 l0 -26 l-16 0 ZM142 26 l-11 15 q6 7 6 22 l0 124 l17 0 l0 -135 q10 3 29 9 q20 5 29 8 l0 139 l17 0 l0 -237 l-17 0 l0 79 q-9 -2 -28 -8 q-14 -4 -21 -6 q-12 -3 -21 -10 ZM39 171 l0 -130 l45 0 l0 130 l-45 0 Z" /><glyph glyph-name="" unicode="&#x53ef;" d="M35 16 l0 119 l106 0 l0 -100 l-90 0 l0 -19 l-16 0 ZM8 175 l0 16 l241 0 l0 -16 l-40 0 l0 -168 q1 -30 -34 -31 q-18 -1 -40 -1 q0 2 -1 6 q-1 7 -2 12 q14 -1 37 -1 q24 -1 23 20 l0 163 l-184 0 ZM51 120 l0 -69 l73 0 l0 69 l-73 0 Z" /><glyph glyph-name="" unicode="&#x53f0;" d="M40 -29 l0 108 l176 0 l0 -108 l-18 0 l0 16 l-141 0 l0 -16 l-17 0 ZM57 63 l0 -62 l141 0 l0 62 l-141 0 ZM234 94 q-3 4 -9 11 q-7 7 -10 10 q-17 -1 -50 -2 q-80 -2 -117 -4 q-15 0 -26 -3 l-9 17 q12 5 21 13 q45 38 76 76 l17 -9 q-29 -33 -81 -78 q39 1 132 4 q15 1 22 1 q-18 18 -37 37 l13 10 q50 -48 73 -72 l-15 -11 Z" /><glyph glyph-name="" unicode="&#x53f6;" d="M21 0 l0 187 l77 0 l0 -184 l-17 0 l0 21 l-43 0 l0 -24 l-17 0 ZM110 107 l0 16 l61 0 l0 86 l17 0 l0 -86 l61 0 l0 -16 l-61 0 l0 -136 l-17 0 l0 136 l-61 0 ZM38 171 l0 -131 l43 0 l0 131 l-43 0 Z" /><glyph glyph-name="" unicode="&#x53f8;" d="M34 0 l0 100 l131 0 l0 -84 l-114 0 l0 -16 l-17 0 ZM148 31 l0 54 l-97 0 l0 -54 l97 0 ZM10 133 l0 15 l184 0 l0 -15 l-184 0 ZM158 -26 q0 1 -1 4 q-1 9 -3 14 q15 -1 42 -1 q22 -1 22 19 l0 172 l-195 0 l0 15 l212 0 l0 -189 q1 -33 -33 -34 q-20 0 -44 0 Z" /><glyph glyph-name="" unicode="&#x5404;" d="M44 -29 l0 96 l167 0 l0 -96 l-17 0 l0 15 l-133 0 l0 -15 l-17 0 ZM14 69 q-3 8 -8 17 q69 11 107 28 q-24 15 -49 45 q-18 -19 -40 -39 q-5 7 -11 13 q43 34 69 78 l18 -4 q-2 -3 -7 -11 q-5 -7 -8 -11 l128 0 l0 -18 q-31 -34 -65 -53 q42 -17 99 -24 q-2 -4 -6 -13 q-1 -2 -1 -3 q-68 10 -109 30 q-45 -20 -117 -35 ZM61 52 l0 -52 l133 0 l0 52 l-133 0 ZM193 170 l-118 0 q25 -29 56 -47 q36 18 62 47 Z" /><glyph glyph-name="" unicode="&#x5408;" d="M42 -29 l0 105 l171 0 l0 -105 l-17 0 l0 16 l-137 0 l0 -16 l-17 0 ZM59 60 l0 -60 l137 0 l0 60 l-137 0 ZM238 105 q-72 33 -109 82 q-39 -47 -112 -85 q-3 7 -10 15 q82 39 118 95 l20 -3 l-7 -9 q43 -53 110 -79 q-6 -7 -10 -16 ZM58 110 l0 15 l139 0 l0 -15 l-139 0 Z" /><glyph glyph-name="" unicode="&#x540c;" d="M23 -26 l0 223 l209 0 l0 -191 q2 -30 -31 -30 q-16 -1 -36 -1 q0 3 -2 12 q-1 4 -1 6 q9 -1 33 -1 q23 -1 21 17 l0 172 l-176 0 l0 -207 l-17 0 ZM77 24 l0 77 l102 0 l0 -77 l-102 0 ZM93 86 l0 -47 l70 0 l0 47 l-70 0 ZM58 133 l0 15 l139 0 l0 -15 l-139 0 Z" /><glyph glyph-name="" unicode="&#x540d;" d="M103 109 q-14 14 -36 34 q1 -1 -2 2 q-20 -15 -44 -30 q-1 2 -4 5 q-1 3 -7 9 q61 33 97 81 l18 -5 q-9 -12 -20 -22 l120 0 l0 -17 q-50 -56 -131 -89 l131 0 l0 -106 l-17 0 l0 15 l-136 0 l0 -15 l-16 0 l0 91 q-3 -1 -9 -3 q-11 -3 -32 -10 q-1 3 -5 10 q-2 4 -3 6 q124 30 196 102 l-113 0 l-13 -12 q10 -8 31 -26 q6 -6 10 -9 l-15 -11 ZM72 62 l0 -62 l136 0 l0 62 l-136 0 Z" /><glyph glyph-name="" unicode="&#x540e;" d="M79 -27 l0 105 l146 0 l0 -105 l-17 0 l0 15 l-113 0 l0 -15 l-16 0 ZM21 -28 l-15 12 q18 26 24 53 q6 27 6 77 l0 75 q85 1 191 13 l7 -17 q-83 -8 -181 -12 l0 -37 l194 0 l0 -16 l-194 0 l0 -6 q0 -52 -6 -80 q-6 -28 -26 -62 ZM95 62 l0 -60 l113 0 l0 60 l-113 0 Z" /><glyph glyph-name="" unicode="&#x5448;" d="M39 124 l0 72 l177 0 l0 -72 l-177 0 ZM21 82 l0 15 l213 0 l0 -15 l-98 0 l0 -35 l85 0 l0 -14 l-85 0 l0 -37 l109 0 l0 -14 l-235 0 l0 14 l109 0 l0 37 l-84 0 l0 14 l84 0 l0 35 l-98 0 ZM57 182 l0 -43 l142 0 l0 43 l-142 0 Z" /><glyph glyph-name="" unicode="&#x5468;" d="M20 -29 q-7 5 -15 10 q15 22 19 47 q5 25 5 77 l0 95 l207 0 l0 -193 q1 -32 -32 -32 q-11 -1 -35 -1 q-2 8 -5 18 q6 0 20 -1 q11 0 15 0 q22 -1 20 17 l0 177 l-173 0 l0 -81 q0 -53 -5 -80 q-5 -26 -21 -53 ZM80 8 l0 65 l105 0 l0 -65 l-105 0 ZM73 139 l0 14 l51 0 l0 24 l17 0 l0 -24 l52 0 l0 -14 l-52 0 l0 -28 l63 0 l0 -14 l-142 0 l0 14 l62 0 l0 28 l-51 0 ZM168 23 l0 36 l-73 0 l0 -36 l73 0 Z" /><glyph glyph-name="" unicode="&#x5473;" d="M102 152 l0 15 l53 0 l0 43 l17 0 l0 -43 l57 0 l0 -15 l-57 0 l0 -42 l69 0 l0 -15 l-61 0 q22 -54 71 -88 q-2 -2 -6 -7 q-5 -4 -7 -6 q-48 37 -66 94 l0 -118 l-17 0 l0 118 q-24 -66 -71 -99 q-6 8 -13 12 q50 35 76 94 l-55 0 l0 15 l63 0 l0 42 l-53 0 ZM20 7 l0 177 l63 0 l0 -157 l-48 0 l0 -20 l-15 0 ZM35 169 l0 -127 l33 0 l0 127 l-33 0 Z" /><glyph glyph-name="" unicode="&#x547d;" d="M31 -8 l0 103 l78 0 l0 -100 l-16 0 l0 14 l-46 0 l0 -17 l-16 0 ZM140 -29 l0 127 l87 0 l0 -68 q1 -30 -27 -30 q-12 0 -25 0 q0 1 -1 6 q-1 7 -2 9 q9 0 23 0 q17 -1 16 18 l0 50 l-55 0 l0 -112 l-16 0 ZM239 121 q-72 29 -110 72 q-39 -43 -111 -75 q-1 2 -4 5 q-6 7 -8 10 q81 33 118 79 l20 -2 l-6 -7 q43 -42 111 -66 q-6 -8 -10 -16 ZM47 81 l0 -57 l46 0 l0 57 l-46 0 ZM71 125 l0 15 l114 0 l0 -15 l-114 0 Z" /><glyph glyph-name="" unicode="&#x548c;" d="M133 -22 l0 204 l105 0 l0 -203 l-17 0 l0 22 l-71 0 l0 -23 l-17 0 ZM150 166 l0 -150 l71 0 l0 150 l-71 0 ZM10 120 l0 15 l46 0 l0 42 q-21 -1 -41 -3 q0 1 0 2 q-1 6 -4 14 q51 2 98 7 l3 -15 l-40 -4 l0 -43 l44 0 l0 -15 l-44 0 l0 -35 l7 7 q8 -7 25 -22 q8 -8 12 -12 l-11 -13 q-16 18 -33 34 l0 -107 l-16 0 l0 120 q-16 -43 -43 -75 q-4 10 -8 18 q31 35 49 85 l-44 0 Z" /><glyph glyph-name="" unicode="&#x54b8;" d="M141 -25 q-1 1 -3 3 q-6 7 -9 9 q27 20 44 43 q-12 41 -16 106 l-1 19 l-109 0 l0 -47 q0 -57 -5 -83 q-6 -25 -23 -52 q-2 1 -8 5 q-4 3 -6 4 q16 25 21 48 q5 24 5 74 l0 65 l125 0 q-1 20 -1 41 l16 0 q0 -8 1 -22 q0 -13 0 -19 l75 0 l0 -14 l-74 0 l0 -17 q4 -63 12 -90 q17 30 32 79 l15 -6 q-19 -58 -42 -94 q12 -34 27 -36 q8 0 12 12 q1 5 4 21 q1 9 2 13 q4 -2 10 -4 q3 -1 4 -2 q-2 -18 -7 -36 q-5 -21 -25 -21 q-21 1 -38 38 q-16 -18 -38 -37 ZM66 4 l0 80 l72 0 l0 -80 l-72 0 ZM81 70 l0 -52 l43 0 l0 52 l-43 0 ZM60 112 l0 14 l83 0 l0 -14 l-83 0 ZM216 171 q-12 12 -28 25 l11 10 q6 -5 14 -12 q9 -8 14 -13 l-11 -10 Z" /><glyph glyph-name="" unicode="&#x54c1;" d="M44 112 l0 87 l168 0 l0 -87 l-168 0 ZM145 -29 l0 110 l91 0 l0 -110 l-16 0 l0 16 l-59 0 l0 -16 l-16 0 ZM19 -29 l0 110 l91 0 l0 -110 l-16 0 l0 16 l-59 0 l0 -16 l-16 0 ZM61 184 l0 -56 l134 0 l0 56 l-134 0 ZM161 66 l0 -66 l59 0 l0 66 l-59 0 ZM35 66 l0 -66 l59 0 l0 66 l-59 0 Z" /><glyph glyph-name="" unicode="&#x552e;" d="M38 58 l0 88 q-5 -6 -15 -17 q-5 -6 -8 -9 q-2 4 -6 10 q-2 3 -3 5 q38 37 54 76 l17 -4 q-7 -14 -15 -26 l78 0 q-1 2 -5 8 q-7 13 -10 18 l15 5 q11 -15 16 -27 l-11 -4 l94 0 l0 -13 l-87 0 l0 -21 l79 0 l0 -12 l-79 0 l0 -21 l79 0 l0 -12 l-79 0 l0 -22 l91 0 l0 -12 l-189 0 l0 -10 l-16 0 ZM37 -29 l0 74 l185 0 l0 -74 l-17 0 l0 12 l-152 0 l0 -12 l-16 0 ZM53 32 l0 -36 l152 0 l0 36 l-152 0 ZM54 135 l0 -21 l81 0 l0 21 l-81 0 ZM54 102 l0 -22 l81 0 l0 22 l-81 0 ZM54 168 l0 -21 l81 0 l0 21 l-81 0 Z" /><glyph glyph-name="" unicode="&#x552f;" d="M89 99 q-2 5 -10 13 l0 -112 l-14 0 l0 19 l-30 0 l0 -20 l-15 0 l0 185 l59 0 l0 -70 q37 44 52 96 l17 -5 q-9 -22 -18 -41 l115 0 l0 -14 l-51 0 l0 -40 l48 0 l0 -14 l-48 0 l0 -40 l48 0 l0 -14 l-48 0 l0 -42 l54 0 l0 -12 l-122 0 l0 -17 l-16 0 l0 158 q-9 -15 -21 -30 ZM35 168 l0 -133 l30 0 l0 133 l-30 0 ZM126 42 l0 -42 l52 0 l0 42 l-52 0 ZM126 96 l0 -40 l52 0 l0 40 l-52 0 ZM126 150 l0 -40 l52 0 l0 40 l-52 0 ZM187 166 q-9 21 -19 38 l16 5 q1 -3 5 -9 q9 -19 13 -28 l-15 -6 Z" /><glyph glyph-name="" unicode="&#x5546;" d="M25 -29 l0 160 l62 0 q-4 5 -14 19 q-5 8 -7 11 l14 6 q5 -6 14 -19 q7 -8 9 -11 l-14 -6 l59 0 q13 18 25 36 l15 -6 q-4 -7 -14 -20 q-5 -7 -7 -10 l62 0 l0 -128 q1 -27 -29 -27 q-14 0 -31 0 q0 3 -1 8 q-1 5 -2 8 q5 0 14 0 q9 -1 15 -1 q19 -1 18 14 l0 112 l-172 0 l0 -146 l-16 0 ZM80 5 l0 66 l95 0 l0 -66 l-95 0 ZM8 168 l0 14 l115 0 q-3 13 -8 25 l17 4 q6 -14 10 -29 l106 0 l0 -14 l-240 0 ZM160 19 l0 39 l-65 0 l0 -39 l65 0 ZM58 62 q-3 6 -10 12 q37 22 54 38 l11 -11 q-19 -16 -55 -39 ZM197 63 q-24 19 -55 38 l10 10 q23 -14 55 -35 l-10 -13 Z" /><glyph glyph-name="" unicode="&#x559c;" d="M9 43 l0 13 l78 0 q-10 12 -19 21 l12 5 l-41 0 l0 45 l177 0 l0 -45 l-42 0 l14 -5 q-3 -4 -12 -14 q-4 -5 -6 -7 l78 0 l0 -13 l-239 0 ZM36 -29 l0 54 l183 0 l0 -54 l-16 0 l0 9 l-151 0 l0 -9 l-16 0 ZM14 176 l0 13 l105 0 l0 21 l17 0 l0 -21 l106 0 l0 -13 l-106 0 l0 -19 l89 0 l0 -12 l-195 0 l0 12 l89 0 l0 19 l-105 0 ZM52 13 l0 -20 l151 0 l0 20 l-151 0 ZM55 115 l0 -21 l145 0 l0 21 l-145 0 ZM103 61 l-10 -5 l58 0 q13 15 21 26 l-89 0 q13 -11 20 -21 Z" /><glyph glyph-name="" unicode="&#x559d;" d="M103 116 l0 83 l123 0 l0 -83 l-123 0 ZM18 4 l0 183 l59 0 l0 -180 l-15 0 l0 21 l-30 0 l0 -24 l-14 0 ZM174 -26 q-1 7 -4 16 q4 0 14 0 q10 -1 15 -1 q18 -1 19 21 q3 34 3 69 l-104 0 q-12 -14 -28 -29 q-1 2 -5 6 q-3 4 -5 6 q26 19 44 51 l14 -4 q-2 -4 -7 -13 q-2 -3 -3 -4 l111 0 q-2 -59 -4 -85 q0 -33 -32 -33 q-14 0 -28 0 ZM32 172 l0 -130 l30 0 l0 130 l-30 0 ZM118 151 l0 -22 l92 0 l0 22 l-92 0 ZM118 186 l0 -22 l92 0 l0 22 l-92 0 ZM102 0 l0 58 l16 0 l0 -45 l83 0 l0 -13 l-99 0 ZM134 22 q-1 2 -5 5 q-3 4 -5 6 q29 16 39 42 l14 -3 q-1 -1 -2 -4 q-3 -6 -4 -8 q5 -4 16 -11 q13 -9 20 -15 l-11 -11 q-5 5 -16 13 q-10 9 -16 13 q-11 -16 -30 -27 Z" /><glyph glyph-name="" unicode="&#x56db;" d="M25 -29 l0 221 l211 0 l0 -221 l-17 0 l0 16 l-178 0 l0 -16 l-16 0 ZM178 53 q-30 -1 -29 28 l0 95 l-39 0 q0 -26 0 -47 q3 -59 -49 -95 q-6 7 -13 13 q48 29 45 83 q1 12 1 46 l-53 0 l0 -175 l178 0 l0 175 l-54 0 l0 -91 q-1 -17 18 -16 l31 0 q-1 -9 -3 -16 l-33 0 Z" /><glyph glyph-name="" unicode="&#x56e2;" d="M21 -29 l0 227 l214 0 l0 -227 l-17 0 l0 12 l-181 0 l0 -12 l-16 0 ZM37 183 l0 -185 l181 0 l0 185 l-181 0 ZM54 122 l0 15 l95 0 l0 34 l16 0 l0 -34 l40 0 l0 -15 l-40 0 l0 -79 q1 -29 -31 -30 q-16 0 -28 0 q-1 7 -4 16 q16 -1 28 -1 q20 -1 19 17 l0 73 q-26 -48 -91 -89 q-5 8 -11 15 q59 31 89 78 l-82 0 Z" /><glyph glyph-name="" unicode="&#x56ed;" d="M20 -29 l0 227 l215 0 l0 -227 l-16 0 l0 13 l-182 0 l0 -13 l-17 0 ZM37 183 l0 -184 l182 0 l0 184 l-182 0 ZM52 94 l0 14 l151 0 l0 -14 l-47 0 l0 -49 q-1 -12 12 -11 l10 0 q12 0 13 13 q3 10 3 25 q8 -3 14 -5 q-1 -13 -4 -27 q-4 -20 -25 -21 l-14 0 q-25 -1 -24 23 l0 52 l-35 0 q2 -55 -48 -82 q-5 6 -11 12 q46 23 44 70 l-39 0 ZM64 140 l0 14 l128 0 l0 -14 l-128 0 Z" /><glyph glyph-name="" unicode="&#x56fd;" d="M20 -29 l0 227 l215 0 l0 -227 l-16 0 l0 13 l-182 0 l0 -13 l-17 0 ZM37 183 l0 -184 l182 0 l0 184 l-182 0 ZM57 141 l0 14 l142 0 l0 -14 l-64 0 l0 -36 l59 0 l0 -14 l-59 0 l0 -51 l67 0 l0 -14 l-149 0 l0 14 l66 0 l0 51 l-58 0 l0 14 l58 0 l0 36 l-62 0 ZM177 47 q-13 15 -25 25 l10 9 q10 -8 26 -24 l-11 -10 Z" /><glyph glyph-name="" unicode="&#x5703;" d="M19 -29 l0 229 l216 0 l0 -229 l-15 0 l0 13 l-186 0 l0 -13 l-15 0 ZM34 187 l0 -190 l186 0 l0 190 l-186 0 ZM51 143 l0 12 l69 0 l0 24 l14 0 l0 -24 l41 0 q-3 3 -10 9 q-6 6 -10 9 l10 6 q1 -1 2 -2 q12 -9 18 -16 l-8 -6 l31 0 l0 -12 l-74 0 l0 -20 l59 0 l0 -90 q2 -22 -23 -22 q-10 -1 -22 -1 q-1 7 -3 13 q11 0 22 0 q13 -1 12 11 l0 14 l-45 0 l0 -39 l-14 0 l0 39 l-44 0 l0 -40 l-14 0 l0 115 l58 0 l0 20 l-69 0 ZM134 80 l0 -21 l45 0 l0 21 l-45 0 ZM179 111 l-45 0 l0 -20 l45 0 l0 20 ZM76 80 l0 -21 l44 0 l0 21 l-44 0 ZM76 111 l0 -20 l44 0 l0 20 l-44 0 Z" /><glyph glyph-name="" unicode="&#x5706;" d="M19 -29 l0 229 l216 0 l0 -229 l-16 0 l0 14 l-183 0 l0 -14 l-17 0 ZM36 186 l0 -187 l183 0 l0 187 l-183 0 ZM73 120 l0 47 l109 0 l0 -47 l-109 0 ZM65 45 l0 56 l124 0 l0 -55 l-15 0 l0 43 l-94 0 l0 -44 l-15 0 ZM55 7 q-3 7 -7 14 q78 11 73 58 l15 0 q-1 -14 -4 -23 q21 -10 59 -31 q6 -3 9 -5 l-8 -12 q-42 24 -65 36 q-13 -25 -72 -37 ZM87 155 l0 -24 l80 0 l0 24 l-80 0 Z" /><glyph glyph-name="" unicode="&#x5728;" d="M17 160 l0 16 l71 0 q1 4 5 12 q5 15 8 23 l18 -3 q-3 -8 -9 -21 q-3 -8 -4 -11 l142 0 l0 -16 l-149 0 q-14 -29 -34 -57 l0 -131 l-17 0 l0 111 q-14 -15 -32 -31 q-3 8 -10 15 q51 45 74 93 l-63 0 ZM88 78 l0 15 l65 0 l0 49 l16 0 l0 -49 l65 0 l0 -15 l-65 0 l0 -75 l79 0 l0 -13 l-172 0 l0 13 l77 0 l0 75 l-65 0 Z" /><glyph glyph-name="" unicode="&#x5730;" d="M187 54 q0 1 -1 4 q-1 6 -2 12 q8 -1 17 -1 q16 -1 16 21 q0 8 1 25 q1 21 2 30 l-44 -15 l0 -107 l-17 0 l0 101 l-41 -14 l0 -93 q-2 -24 26 -22 l54 0 q28 -1 31 18 q3 15 5 33 q3 -1 8 -3 q5 -2 8 -3 q0 -3 -1 -8 q-2 -18 -5 -27 q-6 -26 -41 -25 l-65 0 q-38 -1 -36 32 l0 93 l-20 -7 l-3 16 l23 7 l0 59 l16 0 l0 -53 l41 14 l0 69 l17 0 l0 -64 l60 20 q0 -5 -1 -16 q-1 -49 -2 -61 q-1 -36 -27 -34 q-9 -1 -19 -1 ZM12 125 l0 15 l27 0 l0 69 l16 0 l0 -69 l26 0 l0 -15 l-26 0 l0 -97 l33 10 q0 -4 1 -15 q-31 -10 -80 -23 l-4 14 q16 4 34 10 l0 101 l-27 0 Z" /><glyph glyph-name="" unicode="&#x5733;" d="M10 133 l0 16 l30 0 l0 59 l16 0 l0 -59 l30 0 l0 -16 l-30 0 l0 -82 q7 2 20 6 q8 2 12 3 q0 -8 1 -16 q-39 -11 -80 -23 l-2 18 q14 3 33 8 l0 86 l-30 0 ZM77 -28 q-6 6 -14 12 q29 26 35 52 q8 25 8 91 l0 79 l16 0 l0 -79 q0 -70 -8 -97 q-8 -28 -37 -58 ZM218 -25 l0 231 l16 0 l0 -231 l-16 0 ZM161 -6 l0 203 l16 0 l0 -203 l-16 0 Z" /><glyph glyph-name="" unicode="&#x573a;" d="M74 -3 q-5 5 -13 11 q54 36 66 92 l-34 0 l0 17 l105 63 l-99 0 l0 15 l126 0 l0 -17 l-106 -63 l121 0 q-1 -22 -3 -68 q-1 -21 -1 -29 q-1 -42 -38 -41 q-9 -1 -27 -1 q-2 10 -4 18 q8 -1 28 -1 q24 -2 25 25 q1 13 2 52 q1 21 1 30 l-31 0 q-14 -90 -70 -130 q-1 1 -6 5 q-5 5 -7 7 q54 37 67 118 l-33 0 q-14 -68 -69 -103 ZM10 130 l0 16 l31 0 l0 62 l17 0 l0 -62 l28 0 l0 -16 l-28 0 l0 -83 l26 11 q0 -9 2 -16 q-28 -11 -73 -33 l-6 17 q16 6 34 14 l0 90 l-31 0 Z" /><glyph glyph-name="" unicode="&#x5747;" d="M105 108 q-7 6 -15 10 q29 39 46 91 l18 -4 q-2 -5 -6 -15 q-5 -14 -8 -20 l100 0 q-2 -100 -4 -152 q0 -42 -46 -41 q-24 0 -40 0 q-1 4 -2 11 q-2 5 -2 7 q6 0 17 0 q15 -1 25 -1 q30 -2 31 28 q3 92 3 132 l-90 0 q-12 -25 -27 -46 ZM11 130 l0 15 l33 0 l0 63 l16 0 l0 -63 l31 0 l0 -15 l-31 0 l0 -95 l35 13 q0 -11 1 -18 q-18 -6 -66 -24 q-12 -4 -17 -6 l-6 18 q16 5 37 12 l0 100 l-33 0 ZM111 18 l-7 17 q52 20 98 41 q0 -6 2 -18 q-30 -12 -93 -40 ZM162 77 q-14 17 -36 37 l12 11 q7 -6 19 -18 q12 -12 19 -18 l-14 -12 Z" /><glyph glyph-name="" unicode="&#x574a;" d="M93 152 l0 16 l75 0 q-5 16 -14 38 l17 4 q6 -15 15 -39 l-13 -3 l73 0 l0 -16 l-103 0 l-1 -42 l89 0 q-1 -30 -2 -76 q-1 -9 -1 -14 q1 -44 -41 -42 q-13 -1 -30 -1 q-2 10 -4 18 q11 -1 32 -1 q25 -2 26 25 q0 9 1 26 q2 31 2 50 l-73 0 q0 -78 -53 -124 q-8 8 -15 12 q54 44 52 122 l1 47 l-33 0 ZM12 128 l0 16 l32 0 l0 64 l16 0 l0 -64 l30 0 l0 -16 l-30 0 l0 -87 q16 6 34 13 q0 -2 0 -7 q1 -7 1 -10 q-26 -9 -82 -31 l-5 17 l36 12 l0 93 l-32 0 Z" /><glyph glyph-name="" unicode="&#x5750;" d="M36 48 l0 15 l83 0 l0 147 l17 0 l0 -147 l84 0 l0 -15 l-84 0 l0 -48 l112 0 l0 -15 l-240 0 l0 15 l111 0 l0 48 l-83 0 ZM98 84 q-18 24 -39 50 q-12 -31 -40 -64 q-5 7 -12 12 q40 42 50 107 l17 -2 q-3 -15 -9 -36 q25 -29 46 -56 l-13 -11 ZM234 81 q-20 26 -43 53 q-9 -20 -34 -51 q-6 6 -13 11 q39 41 48 94 l16 -3 q-5 -21 -11 -37 q17 -18 44 -48 q4 -5 6 -7 l-13 -12 Z" /><glyph glyph-name="" unicode="&#x575a;" d="M239 78 q-42 12 -66 29 q-25 -16 -62 -29 q0 1 -1 2 q-4 10 -8 13 q35 11 57 25 q-22 20 -37 60 l-12 0 l0 15 l121 0 l0 -15 q-19 -41 -45 -61 q21 -13 61 -24 q-5 -10 -8 -15 ZM30 35 l0 15 l89 0 l0 24 l17 0 l0 -24 l89 0 l0 -15 l-89 0 l0 -36 l111 0 l0 -16 l-239 0 l0 16 l111 0 l0 36 l-89 0 ZM214 178 l-76 0 q13 -32 35 -51 q23 17 41 51 ZM77 75 l0 132 l17 0 l0 -132 l-17 0 ZM25 81 l0 116 l16 0 l0 -116 l-16 0 Z" /><glyph glyph-name="" unicode="&#x5766;" d="M107 39 l0 156 l124 0 l0 -156 l-124 0 ZM9 127 l0 15 l31 0 l0 67 l17 0 l0 -67 l29 0 l0 -15 l-29 0 l0 -95 q17 5 33 9 q0 -9 1 -17 q-39 -9 -82 -21 l-3 17 q17 5 34 8 l0 99 l-31 0 ZM123 110 l0 -55 l92 0 l0 55 l-92 0 ZM123 180 l0 -55 l92 0 l0 55 l-92 0 ZM80 -16 l0 16 l169 0 l0 -16 l-169 0 Z" /><glyph glyph-name="" unicode="&#x57ce;" d="M225 -25 q-24 -1 -37 40 q-21 -24 -42 -41 q-6 6 -12 12 q30 21 49 48 q-10 41 -13 112 l-66 0 l0 -37 l48 0 q0 -49 -2 -74 q0 -28 -28 -28 q-3 0 -8 -1 q-5 0 -7 0 q0 3 -1 9 q-1 6 -2 8 q4 0 15 0 q17 -2 17 16 q0 7 0 24 q1 21 1 31 l-33 0 q0 -48 -7 -73 q-6 -24 -26 -50 q-5 5 -13 10 q20 25 25 46 q6 22 6 71 l0 63 l80 0 q0 7 0 22 q-1 18 -1 27 l16 0 l1 -49 l63 0 l0 -15 l-63 0 q3 -60 11 -94 q16 24 30 65 l14 -5 q-18 -50 -40 -81 q9 -38 24 -39 q5 0 7 8 q3 15 6 36 q3 -1 7 -3 q5 -2 7 -3 q-3 -26 -6 -35 q-5 -21 -20 -20 ZM9 134 l0 14 l27 0 l0 62 l15 0 l0 -62 l26 0 l0 -14 l-26 0 l0 -92 l26 8 q0 -3 1 -8 q0 -5 0 -7 q-33 -10 -69 -23 l-3 16 q14 5 30 9 l0 97 l-27 0 ZM226 167 q-10 10 -30 26 l10 9 q8 -5 22 -17 q6 -5 9 -7 l-11 -11 Z" /><glyph glyph-name="" unicode="&#x57df;" d="M83 151 l0 14 l86 0 q0 22 0 45 l16 0 q0 -21 0 -45 l61 0 l0 -14 l-60 0 q0 -14 0 -26 q3 -49 7 -73 q19 31 32 71 l14 -6 q-17 -51 -41 -86 q6 -21 14 -31 q6 -9 11 -9 q6 -1 8 10 q3 12 4 36 q8 -3 14 -5 q-1 -20 -5 -38 q-4 -21 -21 -21 q-12 0 -23 16 q-10 14 -14 26 q-18 -22 -42 -44 q-6 6 -12 13 q28 23 49 49 q-7 31 -10 90 q-1 13 -1 28 l-87 0 ZM8 126 l0 16 l28 0 l0 68 l16 0 l0 -68 l26 0 l0 -16 l-26 0 l0 -95 q4 2 13 5 q8 3 12 4 q0 -3 1 -8 q0 -6 1 -8 q-40 -12 -70 -22 l-3 17 q6 1 21 6 q6 1 9 2 l0 99 l-28 0 ZM89 49 l0 73 l59 0 l0 -73 l-59 0 ZM103 108 l0 -45 l31 0 l0 45 l-31 0 ZM75 -1 l-4 14 q48 8 86 15 q0 -10 1 -15 q-48 -8 -83 -14 ZM223 175 q-5 5 -16 16 q-5 5 -7 7 l10 9 q13 -12 25 -22 l-12 -10 Z" /><glyph glyph-name="" unicode="&#x57fa;" d="M17 171 l0 14 l40 0 l0 25 l17 0 l0 -25 l109 0 l0 25 l16 0 l0 -25 l41 0 l0 -14 l-41 0 l0 -86 l48 0 l0 -14 l-74 0 q27 -27 75 -44 q-3 -7 -8 -15 q-58 24 -86 59 l-54 0 q-28 -35 -84 -62 q-3 7 -9 14 q43 18 74 48 l-72 0 l0 14 l48 0 l0 86 l-40 0 ZM63 23 l0 13 l57 0 l0 23 l16 0 l0 -23 l57 0 l0 -13 l-57 0 l0 -26 l96 0 l0 -14 l-208 0 l0 14 l96 0 l0 26 l-57 0 ZM74 106 l0 -21 l109 0 l0 21 l-109 0 ZM74 138 l0 -20 l109 0 l0 20 l-109 0 ZM74 171 l0 -20 l109 0 l0 20 l-109 0 Z" /><glyph glyph-name="" unicode="&#x58eb;" d="M8 115 l0 17 l110 0 l0 78 l19 0 l0 -78 l110 0 l0 -17 l-110 0 l0 -111 l93 0 l0 -15 l-205 0 l0 15 l93 0 l0 111 l-110 0 Z" /><glyph glyph-name="" unicode="&#x58f9;" d="M45 20 l0 48 l166 0 l0 -48 l-34 0 l11 -4 q-8 -10 -20 -22 l80 0 l0 -14 l-240 0 l0 14 l80 0 q-1 1 -2 3 q-7 7 -17 19 l8 4 l-32 0 ZM12 177 l0 12 l108 0 l0 22 l16 0 l0 -22 l109 0 l0 -12 l-109 0 l0 -19 l89 0 l0 -12 l-195 0 l0 12 l90 0 l0 19 l-108 0 ZM15 87 l0 42 l225 0 l0 -42 l-16 0 l0 29 l-193 0 l0 -29 l-16 0 ZM61 56 l0 -23 l133 0 l0 23 l-133 0 ZM46 86 l0 12 l163 0 l0 -12 l-163 0 ZM104 -2 l-8 -4 l52 0 q13 13 22 26 l-86 0 q8 -8 20 -22 Z" /><glyph glyph-name="" unicode="&#x5907;" d="M39 -29 l0 113 l177 0 l0 -113 l-16 0 l0 11 l-145 0 l0 -11 l-16 0 ZM13 86 q-2 3 -5 10 q-1 4 -2 5 q71 11 106 25 q-26 13 -48 39 q-18 -18 -40 -36 q-2 2 -6 6 q-4 4 -6 5 q48 35 69 72 l16 -6 q-2 -3 -6 -9 q-5 -6 -7 -9 l132 0 l0 -14 q-28 -29 -66 -49 q40 -13 98 -18 q-1 -2 -3 -8 q-3 -5 -4 -8 q-71 9 -110 26 q-46 -19 -118 -31 ZM194 175 l-118 0 q21 -25 55 -42 q36 16 63 42 ZM200 70 l-65 0 l0 -32 l65 0 l0 32 ZM55 70 l0 -32 l65 0 l0 32 l-65 0 ZM135 26 l0 -30 l65 0 l0 30 l-65 0 ZM55 26 l0 -30 l65 0 l0 30 l-65 0 Z" /><glyph glyph-name="" unicode="&#x590f;" d="M13 186 l0 13 l233 0 l0 -13 l-116 0 l-8 -20 l98 0 l0 -99 l-118 0 q-9 -10 -18 -19 l135 0 l0 -14 q-25 -21 -59 -34 q36 -6 86 -12 q-3 -8 -6 -15 q-59 7 -103 21 q-45 -15 -112 -25 q-3 7 -8 15 q52 6 99 16 q-28 12 -52 30 q-19 -15 -45 -28 l-10 13 q47 20 74 52 l-44 0 l0 99 l66 0 l7 20 l-99 0 ZM55 97 l0 -18 l149 0 l0 18 l-149 0 ZM55 125 l0 -18 l149 0 l0 18 l-149 0 ZM55 154 l0 -18 l149 0 l0 18 l-149 0 ZM196 35 l-115 0 q25 -18 56 -28 q33 11 59 28 Z" /><glyph glyph-name="" unicode="&#x5916;" d="M15 69 q-1 4 -8 11 q-2 3 -3 4 q37 50 57 126 l18 -4 q-3 -9 -9 -27 q-3 -8 -4 -12 l66 0 l0 -17 q-12 -117 -108 -178 q-2 2 -6 7 q-5 6 -7 8 q51 29 76 73 q-7 5 -20 16 q-15 13 -23 19 l9 13 q7 -5 21 -16 q14 -11 21 -16 q15 32 20 75 l-56 0 q-17 -45 -44 -82 ZM161 -29 l0 238 l17 0 l0 -85 l9 8 q20 -14 54 -42 q5 -4 8 -6 l-12 -14 q-18 16 -54 45 q-3 3 -5 4 l0 -148 l-17 0 Z" /><glyph glyph-name="" unicode="&#x591a;" d="M37 29 q-3 4 -7 11 q-3 3 -3 4 q76 26 126 71 l16 -7 q-11 -10 -23 -19 l92 0 l0 -16 q-71 -78 -216 -103 q-1 2 -3 8 q-3 5 -4 8 q131 18 201 89 l-90 0 q-11 -8 -22 -14 q8 -6 24 -17 q10 -7 15 -11 l-13 -11 q-4 3 -12 9 q-9 8 -28 22 q-23 -13 -53 -24 ZM32 135 q-1 2 -4 7 q-3 5 -5 7 q62 26 101 64 l18 -4 q-12 -12 -26 -23 l111 0 l0 -15 q-73 -65 -209 -98 q0 1 -1 3 q-2 5 -6 13 q125 28 192 83 l-106 0 q-2 -1 -6 -4 q-4 -2 -6 -4 q19 -13 40 -28 l-13 -11 q-19 17 -41 31 q-23 -14 -39 -21 Z" /><glyph glyph-name="" unicode="&#x5927;" d="M11 125 l0 17 l107 0 q3 34 2 67 l18 0 q0 -10 0 -33 q-1 -23 -1 -34 l108 0 l0 -17 l-108 0 q14 -95 111 -132 q-9 -12 -12 -17 q-92 41 -108 123 q-12 -81 -106 -127 l-13 15 q101 47 108 138 l-106 0 Z" /><glyph glyph-name="" unicode="&#x5929;" d="M23 178 l0 16 l210 0 l0 -16 l-96 0 q0 -10 -1 -32 q0 -22 -1 -32 l111 0 l0 -17 l-107 0 q17 -81 109 -105 q-4 -6 -9 -14 q-1 -2 -2 -3 q-93 32 -109 108 q-14 -71 -107 -111 q-1 2 -4 5 q-5 7 -8 10 q96 39 106 110 l-106 0 l0 17 l108 0 q3 28 2 64 l-96 0 Z" /><glyph glyph-name="" unicode="&#x592a;" d="M11 130 l0 17 l107 0 q2 19 2 62 l18 0 q0 -20 -2 -62 l108 0 l0 -17 l-106 0 q19 -100 110 -139 q-9 -11 -12 -15 q-92 46 -108 137 q-14 -86 -107 -141 q-2 2 -6 7 q-5 5 -7 8 q95 51 107 143 l-104 0 ZM130 -17 q-12 16 -40 45 l13 9 q8 -7 29 -31 q9 -8 12 -12 l-14 -11 Z" /><glyph glyph-name="" unicode="&#x592e;" d="M239 -27 q-86 22 -111 79 q-16 -52 -110 -82 q-5 9 -11 18 q92 22 109 76 l-107 0 l0 16 l29 0 l0 86 l81 0 l0 44 l18 0 l0 -44 l80 0 l0 -86 l30 0 l0 -16 l-108 0 q26 -59 110 -72 q-6 -9 -10 -19 ZM118 80 q1 27 1 71 l-65 0 l0 -71 l64 0 ZM137 151 q0 -12 -1 -35 q0 -25 -1 -36 l65 0 l0 71 l-63 0 Z" /><glyph glyph-name="" unicode="&#x5947;" d="M38 -7 l0 79 l109 0 l0 -64 l-92 0 l0 -15 l-17 0 ZM24 168 l0 15 l97 0 q2 13 2 27 l17 0 q0 -16 -3 -27 l96 0 l0 -15 l-100 0 q0 -1 -1 -3 q-1 -3 -2 -4 q11 -4 36 -11 q39 -12 59 -19 l-8 -15 q-8 3 -24 9 q-49 17 -72 24 q-20 -22 -91 -34 q-1 3 -5 10 q-2 4 -3 6 q80 8 94 37 l-92 0 ZM10 96 l0 14 l237 0 l0 -14 l-38 0 l0 -93 q1 -28 -30 -29 q-3 0 -12 0 q-15 -1 -24 -1 q0 1 -1 4 q-1 9 -3 14 q19 -1 34 -1 q21 -1 20 15 l0 91 l-183 0 ZM55 58 l0 -36 l76 0 l0 36 l-76 0 Z" /><glyph glyph-name="" unicode="&#x5951;" d="M14 39 l0 15 l105 0 q3 7 3 16 l17 0 q0 -2 -1 -8 q-1 -5 -2 -8 l106 0 l0 -15 l-102 0 q28 -42 106 -51 q-1 -3 -3 -8 q-3 -6 -4 -8 q-83 14 -111 61 q-19 -44 -112 -63 q-3 8 -8 17 q89 13 106 52 l-100 0 ZM18 173 l0 13 l44 0 l0 24 l16 0 l0 -24 l43 0 l0 -13 l-43 0 l0 -25 l38 0 l0 -13 l-38 0 l0 -25 l45 0 l0 -14 l-45 0 l0 -25 l-16 0 l0 25 l-46 0 l0 14 l46 0 l0 25 l-38 0 l0 13 l38 0 l0 25 l-44 0 ZM175 81 q0 1 -1 4 q-2 8 -3 12 q13 0 25 0 q19 -1 19 18 q2 36 2 64 l-39 0 q2 -66 -42 -102 q-3 5 -12 11 q40 31 39 91 l-28 0 l0 14 l99 0 q-2 -62 -4 -80 q0 -32 -29 -32 q-10 0 -26 0 Z" /><glyph glyph-name="" unicode="&#x5965;" d="M13 28 l0 14 l104 0 q0 1 1 4 q1 6 2 12 l16 0 q0 -3 -1 -8 q0 -5 -1 -8 l106 0 l0 -14 l-96 0 q19 -32 102 -40 q-3 -5 -8 -15 q-92 11 -109 54 q-14 -40 -113 -58 q-3 7 -8 15 q93 15 103 44 l-98 0 ZM32 58 l0 127 l74 0 q6 13 8 26 l18 -2 l-8 -24 l100 0 l0 -127 l-16 0 l0 113 l-160 0 l0 -113 l-16 0 ZM63 107 l0 13 l57 0 l0 42 l15 0 l0 -42 l57 0 l0 -13 l-57 0 l0 -17 l7 9 q6 -3 18 -9 q23 -12 35 -19 l-9 -12 q-34 21 -51 29 l0 -22 l-15 0 l0 28 q-19 -19 -51 -35 q-6 8 -10 12 q35 14 57 36 l-53 0 ZM99 125 q-14 12 -30 24 l9 9 q7 -5 29 -21 q1 -1 2 -2 l-10 -10 ZM156 125 l-9 10 q1 1 5 4 q19 13 25 18 l9 -9 q-4 -3 -15 -11 q-11 -9 -15 -12 Z" /><glyph glyph-name="" unicode="&#x5976;" d="M17 -26 q-2 3 -12 13 q33 24 49 49 l-37 30 q9 35 16 76 l-26 0 l0 15 l29 0 q2 14 6 42 q1 7 1 10 l17 -1 q-4 -27 -9 -51 l46 0 l0 -13 q-5 -71 -24 -105 l26 -21 l-11 -13 q-6 6 -19 18 q9 -8 -3 2 q-15 -23 -49 -51 ZM157 -22 q0 3 -2 12 q-1 4 -1 6 q13 -1 37 -1 q29 -2 28 28 q3 38 3 77 l-38 0 l0 17 l18 59 l-54 0 q0 -27 -1 -48 q0 -108 -48 -156 q-1 1 -5 4 q-6 5 -9 8 q46 44 46 145 q0 7 0 21 q1 16 1 26 l-28 0 l0 16 l115 0 l0 -17 l-18 -60 l38 0 q0 -11 -1 -36 q-1 -45 -2 -57 q-1 -45 -40 -43 q-14 -1 -39 -1 ZM33 70 q13 -9 28 -21 q16 34 20 93 l-32 0 q-6 -31 -16 -72 Z" /><glyph glyph-name="" unicode="&#x597d;" d="M98 -1 q-5 3 -19 15 q-9 7 -13 11 q-14 -23 -47 -50 q-2 2 -7 7 q-4 5 -5 6 q33 24 47 48 l-37 31 q9 35 16 76 l-23 0 l0 15 l26 0 q2 14 6 42 q1 6 1 9 l17 -1 q-3 -26 -8 -50 l47 0 l0 -16 q-6 -68 -24 -102 q20 -16 36 -30 l-13 -11 ZM105 83 l0 16 l66 0 l0 37 l48 42 l-105 0 l0 16 l126 0 l0 -18 l-52 -46 l0 -31 l61 0 l0 -16 l-61 0 l0 -78 q1 -30 -31 -30 q-16 0 -30 0 q-1 3 -2 12 q-1 4 -1 6 q15 -1 30 -1 q18 -1 17 16 l0 75 l-66 0 ZM83 143 l-34 0 q-7 -41 -15 -71 q13 -9 28 -22 q17 36 21 93 Z" /><glyph glyph-name="" unicode="&#x5999;" d="M92 2 q-3 2 -9 8 q-11 10 -17 15 q-13 -21 -48 -50 q-6 8 -12 14 q33 23 48 47 q-18 15 -37 31 q9 35 16 76 l-23 0 l0 16 l26 0 q1 9 4 26 q2 17 3 25 l17 -2 q-1 -7 -4 -22 q-2 -19 -4 -27 l47 0 l0 -16 q-7 -70 -25 -104 q3 -3 10 -8 q14 -10 20 -16 l-12 -13 ZM82 143 l-33 0 q-8 -41 -16 -71 l28 -22 q19 36 21 93 ZM100 -31 q-6 9 -12 16 q92 27 130 101 l15 -8 q-41 -76 -133 -109 ZM165 56 l0 154 l17 0 l0 -154 l-17 0 ZM114 74 l-16 7 q19 39 34 82 l15 -5 q-15 -40 -33 -84 ZM237 91 q-9 16 -27 45 q-9 16 -14 24 l13 7 q24 -36 42 -67 l-14 -9 Z" /><glyph glyph-name="" unicode="&#x59cb;" d="M117 -29 l0 107 l114 0 l0 -107 l-16 0 l0 17 l-82 0 l0 -17 l-16 0 ZM93 -3 q-5 3 -14 12 q-9 9 -14 13 q-14 -20 -48 -48 q-1 1 -4 4 q-6 7 -8 9 q31 23 47 46 q-7 7 -21 19 q-10 9 -15 13 q9 35 16 77 l-25 0 l0 15 l28 0 q1 11 4 31 q2 14 3 21 l17 -1 q-1 -3 -2 -9 q-3 -18 -6 -42 l47 0 l0 -15 q-7 -74 -25 -106 q10 -8 29 -26 q2 -1 3 -2 l-12 -11 ZM133 63 l0 -63 l82 0 l0 63 l-82 0 ZM112 108 l-8 16 q9 5 17 17 q23 32 41 69 l17 -6 q-32 -54 -50 -79 q4 0 13 1 q46 1 73 3 q-11 19 -23 37 l14 8 q6 -10 4 -6 q26 -42 39 -65 l-15 -8 q-5 10 -11 19 q-21 -1 -60 -3 q-20 -1 -29 -1 q-12 0 -22 -2 ZM82 142 l-34 0 q-7 -42 -15 -72 l27 -23 q16 28 22 95 Z" /><glyph glyph-name="" unicode="&#x5b63;" d="M31 182 q0 3 -1 7 q-1 5 -2 7 q107 2 194 6 l3 -14 q-44 -3 -89 -4 l0 -29 l107 0 l0 -14 l-92 0 q33 -25 98 -41 q-1 -2 -3 -5 q-5 -7 -6 -10 q-69 20 -104 53 l0 -37 l-16 0 l0 37 q-37 -34 -104 -56 q-2 3 -6 9 q-3 4 -4 6 q64 18 98 44 l-94 0 l0 14 l110 0 l0 29 q-47 -2 -89 -2 ZM7 26 l0 15 l115 0 l0 11 l45 22 l-110 0 l0 15 l136 0 l0 -15 l-54 -28 l0 -5 l110 0 l0 -15 l-110 0 l0 -23 q2 -29 -31 -30 q-21 0 -38 0 q0 4 -2 13 q2 -6 0 3 q16 0 36 0 q19 -1 18 16 l0 21 l-115 0 Z" /><glyph glyph-name="" unicode="&#x5b66;" d="M8 37 l0 16 l116 0 l0 14 l52 29 l-121 0 l0 16 l143 0 l0 -18 l-56 -34 l0 -7 l106 0 l0 -16 l-106 0 l0 -35 q1 -30 -30 -29 q-12 -1 -35 -1 q-1 9 -3 19 q15 -1 32 -1 q19 -1 18 16 l0 31 l-116 0 ZM17 108 l0 48 l223 0 l0 -48 l-18 0 l0 33 l-188 0 l0 -33 l-17 0 ZM185 157 l-16 9 q22 24 34 41 l16 -9 q-17 -20 -4 -5 q-13 -15 -30 -36 ZM129 165 q-2 3 -5 8 q-8 13 -21 31 l16 7 q5 -6 13 -19 q9 -13 13 -20 l-16 -7 ZM62 161 q-9 15 -26 36 l14 8 q7 -8 21 -26 q6 -6 8 -9 l-17 -9 Z" /><glyph glyph-name="" unicode="&#x5b81;" d="M9 83 l0 17 l239 0 l0 -17 l-106 0 l0 -72 q2 -36 -38 -36 q-18 0 -39 0 q0 3 -1 10 q-2 5 -2 8 q13 -1 39 -1 q25 -1 24 21 l0 70 l-116 0 ZM18 126 l0 48 l108 0 q-1 4 -4 12 q-5 15 -8 22 l18 4 q7 -16 13 -36 l-11 -2 l104 0 l0 -48 l-17 0 l0 31 l-186 0 l0 -31 l-17 0 Z" /><glyph glyph-name="" unicode="&#x5b89;" d="M7 89 l0 16 l76 0 q12 21 23 44 l18 -6 q-10 -20 -22 -38 l147 0 l0 -16 l-51 0 q-16 -43 -46 -66 q15 -7 45 -20 q24 -9 35 -14 l-9 -16 q-53 25 -86 38 q-44 -26 -112 -40 q-4 9 -9 17 q66 10 103 31 l-70 32 q6 9 19 29 q4 6 6 9 l-67 0 ZM20 131 l0 44 l110 0 q-2 3 -6 10 q-8 14 -12 20 l16 6 q14 -21 19 -31 l-11 -5 l100 0 l0 -44 l-17 0 l0 28 l-182 0 l0 -28 l-17 0 ZM72 56 q12 -5 36 -15 q18 -7 27 -11 q30 23 45 59 l-87 0 q-10 -18 -21 -33 Z" /><glyph glyph-name="" unicode="&#x5b8c;" d="M14 61 l0 15 l229 0 l0 -15 l-80 0 l0 -49 q-1 -20 20 -18 l23 0 q20 -1 22 13 q2 11 4 27 q10 -3 16 -5 q0 -2 -1 -5 q-1 -17 -3 -23 q-4 -23 -36 -22 l-29 0 q-35 -1 -33 29 l0 53 l-47 0 q4 -66 -79 -90 l-11 15 q44 14 57 28 q14 14 16 47 l-68 0 ZM20 136 l0 44 l104 0 q-1 5 -7 17 q-3 7 -4 10 l17 4 q4 -5 12 -26 q1 -2 1 -3 l-9 -2 l102 0 l0 -44 l-17 0 l0 29 l-182 0 l0 -29 l-17 0 ZM43 113 l0 15 l171 0 l0 -15 l-171 0 Z" /><glyph glyph-name="" unicode="&#x5b98;" d="M199 -28 l0 13 l-133 0 l0 -14 l-17 0 l0 167 l157 0 l0 -62 l-140 0 l0 -27 l149 0 l0 -77 l-16 0 ZM199 35 l-133 0 l0 -36 l133 0 l0 36 ZM16 135 l0 44 l109 0 q-6 16 -12 28 l18 4 q1 -3 4 -10 q5 -12 8 -20 l-8 -2 l104 0 l0 -44 l-17 0 l0 29 l-189 0 l0 -29 l-17 0 ZM66 124 l0 -34 l123 0 l0 34 l-123 0 Z" /><glyph glyph-name="" unicode="&#x5b9a;" d="M13 107 l0 16 l229 0 l0 -16 l-100 0 l0 -44 l86 0 l0 -15 l-86 0 l0 -52 q49 -2 106 0 q-3 -10 -5 -18 q-81 0 -109 1 q-51 2 -78 45 q-12 -29 -38 -53 q-5 6 -11 14 q40 34 47 101 l17 -2 q-3 -23 -9 -41 q24 -43 63 -46 l0 110 l-112 0 ZM220 137 l0 29 l-183 0 l0 -28 l-17 0 l0 43 l103 0 q-1 5 -3 14 q-3 9 -4 13 l18 3 q2 -6 5 -18 q2 -8 3 -12 l95 0 l0 -44 l-17 0 Z" /><glyph glyph-name="" unicode="&#x5b9d;" d="M24 111 l0 15 l205 0 l0 -15 l-94 0 l0 -40 l88 0 l0 -15 l-88 0 l0 -56 l112 0 l0 -16 l-238 0 l0 16 l110 0 l0 56 l-87 0 l0 15 l87 0 l0 40 l-95 0 ZM17 139 l0 38 l109 0 q-10 20 -15 29 l17 5 q1 -2 4 -7 q10 -18 13 -24 l-9 -3 l102 0 l0 -38 l-16 0 l0 23 l-189 0 l0 -23 l-16 0 ZM196 6 q-11 15 -28 32 l13 9 q13 -13 29 -31 l-14 -10 Z" /><glyph glyph-name="" unicode="&#x5b9e;" d="M11 42 l0 16 l121 0 q12 26 11 89 l18 0 q0 -57 -10 -89 l95 0 l0 -16 l-101 0 q0 -1 -2 -4 q-1 -3 -2 -5 q48 -21 101 -44 l-10 -15 q-32 15 -82 37 q-12 6 -19 9 q-29 -32 -112 -50 q-4 8 -10 17 q99 17 117 55 l-115 0 ZM15 132 l0 45 l111 0 q-6 16 -14 28 l17 6 q4 -7 12 -22 q2 -6 4 -9 l-10 -3 l105 0 l0 -45 l-17 0 l0 30 l-191 0 l0 -30 l-17 0 ZM87 69 q-4 2 -13 7 q-12 7 -37 19 l9 13 q6 -3 18 -9 q20 -10 32 -16 l-9 -14 ZM110 105 q-25 16 -49 28 l9 12 q9 -4 25 -13 q16 -8 24 -13 l-9 -14 Z" /><glyph glyph-name="" unicode="&#x5ba1;" d="M119 -29 l0 51 l-66 0 l0 -12 l-16 0 l0 120 l82 0 l0 25 l17 0 l0 -25 l82 0 l0 -120 l-16 0 l0 12 l-66 0 l0 -51 l-17 0 ZM16 140 l0 42 l108 0 q-2 5 -6 13 q-4 8 -6 12 l17 5 q7 -13 13 -26 l-10 -4 l108 0 l0 -42 l-17 0 l0 27 l-191 0 l0 -27 l-16 0 ZM53 69 l0 -33 l66 0 l0 33 l-66 0 ZM136 69 l0 -33 l66 0 l0 33 l-66 0 ZM202 115 l-66 0 l0 -33 l66 0 l0 33 ZM53 115 l0 -33 l66 0 l0 33 l-66 0 Z" /><glyph glyph-name="" unicode="&#x5ba2;" d="M48 -29 l0 76 l160 0 l0 -76 l-16 0 l0 12 l-127 0 l0 -12 l-17 0 ZM13 49 q-1 4 -4 12 q-1 3 -2 4 q69 8 104 21 q-22 12 -41 33 q-16 -14 -38 -29 q-2 2 -5 6 q-3 4 -5 6 q41 23 68 60 l15 -5 q-6 -9 -13 -15 l113 0 l0 -16 q-25 -25 -57 -41 q32 -11 98 -15 q-3 -7 -6 -16 q-77 7 -110 23 q-46 -18 -117 -28 ZM65 33 l0 -36 l127 0 l0 36 l-127 0 ZM222 139 l0 29 l-187 0 l0 -29 l-16 0 l0 44 l104 0 l-7 26 l17 2 q3 -12 7 -28 l98 0 l0 -44 l-16 0 ZM185 128 l-103 0 q24 -25 48 -35 q30 13 55 35 Z" /><glyph glyph-name="" unicode="&#x5ba4;" d="M214 57 q-1 1 -3 3 q-7 6 -15 13 q-10 0 -30 0 q-20 -1 -30 -1 l0 -33 l89 0 l0 -14 l-89 0 l0 -30 l112 0 l0 -15 l-240 0 l0 15 l111 0 l0 30 l-89 0 l0 14 l89 0 l0 32 l-52 -2 q-12 0 -23 -1 l-8 15 q5 2 16 8 q-1 0 2 1 q18 12 38 30 l-50 0 l0 14 l173 0 l0 -14 l-98 0 q-15 -13 -43 -33 q-5 -4 -8 -6 q4 0 12 0 q70 2 103 4 l-23 20 l11 10 q33 -26 57 -48 l-12 -12 ZM16 137 l0 42 l110 0 q-5 14 -14 27 l17 5 q3 -4 7 -14 q5 -9 8 -15 l-10 -3 l106 0 l0 -42 l-17 0 l0 28 l-190 0 l0 -28 l-17 0 Z" /><glyph glyph-name="" unicode="&#x5bb6;" d="M44 125 l0 13 l168 0 l0 -13 l-75 0 q-11 -9 -22 -17 q14 -16 23 -34 q44 20 75 38 l9 -14 q-5 -2 -14 -7 q-7 -4 -32 -16 q17 -52 70 -72 q-1 -1 -2 -2 q-3 -3 -8 -11 q-56 24 -74 79 l-18 -9 q7 -19 7 -40 q1 -46 -37 -46 q-15 0 -32 0 q-1 9 -4 16 q18 0 31 0 q26 -2 25 30 q0 11 -3 22 q-41 -41 -113 -64 q-4 7 -9 16 q72 18 118 63 q-3 9 -8 17 q-38 -33 -99 -53 q-4 9 -9 15 q61 17 101 50 q-2 3 -7 9 q-2 3 -3 4 q-32 -19 -84 -36 q-1 1 -2 4 q-4 8 -7 12 q62 13 105 46 l-70 0 ZM15 140 l0 39 l111 0 q-4 15 -12 29 l17 4 q7 -14 13 -29 l-10 -4 l106 0 l0 -39 l-17 0 l0 25 l-191 0 l0 -25 l-17 0 Z" /><glyph glyph-name="" unicode="&#x5bb9;" d="M48 -29 l0 83 q-15 -9 -33 -16 q-3 5 -9 14 q76 30 120 79 l18 -3 q-3 -3 -6 -7 q42 -43 111 -65 q-1 -1 -2 -3 q-5 -9 -6 -12 q-8 3 -21 9 q-9 3 -13 5 l0 -84 l-17 0 l0 13 l-125 0 l0 -13 l-17 0 ZM65 42 l0 -43 l125 0 l0 43 l-125 0 ZM18 140 l0 42 l104 0 q-1 4 -3 14 q-2 9 -3 13 l18 2 q3 -15 6 -29 l97 0 l0 -42 l-16 0 l0 27 l-186 0 l0 -27 l-17 0 ZM128 111 q-33 -31 -73 -54 l149 0 q-43 19 -76 54 ZM27 99 q-2 3 -8 11 q-1 2 -2 3 q42 17 76 38 l10 -12 q-37 -22 -76 -40 ZM228 100 q-37 21 -77 39 l9 12 q50 -23 77 -37 l-9 -14 Z" /><glyph glyph-name="" unicode="&#x5bc6;" d="M14 50 q-2 5 -8 14 q35 9 68 23 l0 3 l0 54 l15 0 l0 -50 q56 25 102 59 l11 -12 q-53 -37 -110 -62 q4 -8 20 -8 l47 0 q18 0 20 14 q2 8 3 20 q3 -1 8 -3 q6 -2 8 -3 q-2 -13 -5 -23 q-5 -20 -32 -19 l-55 0 q-24 0 -29 15 q-31 -12 -63 -22 ZM35 -18 l0 58 l17 0 l0 -43 l67 0 l0 54 l17 0 l0 -54 l67 0 l0 43 l17 0 l0 -69 l-17 0 l0 11 l-168 0 ZM15 144 l0 41 l106 0 q-3 11 -8 22 l18 4 q2 -4 5 -15 q3 -8 4 -11 l100 0 l0 -41 l-16 0 l0 26 l-192 0 l0 -26 l-17 0 ZM233 81 q-13 22 -30 40 l13 9 q16 -19 31 -39 l-14 -10 ZM32 87 q-6 5 -14 8 q17 24 26 44 l14 -7 q-4 -7 -14 -24 q-8 -14 -12 -21 ZM133 128 q-14 14 -28 26 l11 9 q15 -12 29 -25 l-12 -10 Z" /><glyph glyph-name="" unicode="&#x5bcc;" d="M31 -29 l0 94 l194 0 l0 -94 l-17 0 l0 13 l-161 0 l0 -13 l-16 0 ZM52 81 l0 45 l151 0 l0 -45 l-151 0 ZM17 139 l0 46 l104 0 q-1 6 -3 17 q-1 5 -2 7 l18 2 l4 -26 l101 0 l0 -46 l-17 0 l0 33 l-189 0 l0 -33 l-16 0 ZM69 115 l0 -22 l117 0 l0 22 l-117 0 ZM49 143 l0 11 l158 0 l0 -11 l-158 0 ZM136 17 l0 -21 l72 0 l0 21 l-72 0 ZM208 52 l-72 0 l0 -23 l72 0 l0 23 ZM47 17 l0 -21 l73 0 l0 21 l-73 0 ZM47 52 l0 -23 l73 0 l0 23 l-73 0 Z" /><glyph glyph-name="" unicode="&#x5be8;" d="M38 138 l0 13 l45 0 l0 15 l16 0 l0 -15 l57 0 l0 15 l17 0 l0 -15 l45 0 l0 -13 l-45 0 l0 -18 l50 0 l0 -12 l-50 0 l0 -20 l74 0 l0 -13 l-71 0 q24 -25 72 -38 q-5 -6 -8 -14 q-52 16 -82 52 l-60 0 q-31 -36 -83 -54 q-3 6 -8 14 q47 16 72 40 l-71 0 l0 13 l75 0 l0 20 l-50 0 l0 12 l50 0 l0 18 l-45 0 ZM15 152 l0 36 l106 0 q-2 11 -5 21 l18 2 l5 -23 l101 0 l0 -36 l-16 0 l0 23 l-193 0 l0 -23 l-16 0 ZM68 32 l0 12 l55 0 l0 19 l16 0 l0 -19 l48 0 l0 -12 l-48 0 l0 -29 q1 -27 -29 -28 q-13 0 -27 0 q-1 6 -3 14 q11 0 24 0 q20 -1 19 16 l0 27 l-55 0 ZM99 108 l0 -20 l57 0 l0 20 l-57 0 ZM99 138 l0 -18 l57 0 l0 18 l-57 0 ZM223 -19 q-40 18 -65 25 l7 13 q36 -15 66 -25 l-8 -13 ZM31 -20 q-4 6 -9 13 q36 11 64 27 l8 -12 q-8 -3 -23 -10 q-25 -12 -40 -18 Z" /><glyph glyph-name="" unicode="&#x5bf9;" d="M104 0 l-32 50 q-22 -39 -55 -70 l-12 15 q37 33 56 71 q-20 30 -47 70 l14 8 q6 -9 19 -28 q15 -21 22 -32 q15 33 21 83 l-77 0 l0 16 l94 0 l0 -18 q-8 -55 -26 -97 q20 -30 38 -58 l-15 -10 ZM122 140 l0 16 l81 0 l0 53 l17 0 l0 -53 l30 0 l0 -16 l-30 0 l0 -128 q2 -37 -35 -36 q-11 -1 -34 -1 q0 8 -4 19 q8 -1 33 -1 q25 -2 23 22 l0 125 l-81 0 ZM157 51 q-1 2 -3 5 q-18 32 -29 49 l13 8 q21 -29 34 -53 l-15 -9 Z" /><glyph glyph-name="" unicode="&#x5c06;" d="M92 137 q-1 2 -6 8 q-3 3 -4 5 q39 24 69 61 l16 -6 q-4 -4 -11 -12 q-7 -8 -11 -12 l94 0 l0 -16 q-44 -55 -146 -79 q-5 10 -9 15 q92 18 136 65 l-90 0 l-7 -5 q2 -2 7 -6 q19 -14 28 -22 l-13 -10 q-19 18 -33 29 q-9 -7 -20 -15 ZM83 60 l0 15 l115 0 l0 31 l17 0 l0 -31 l35 0 l0 -15 l-35 0 l0 -56 q1 -28 -31 -29 q-6 0 -16 -1 q-10 0 -15 0 q0 7 -3 18 q14 -1 29 -1 q20 -1 19 16 l0 53 l-115 0 ZM13 27 l-8 17 q30 26 50 47 l0 118 l16 0 l0 -239 l-16 0 l0 99 q-5 -5 -14 -14 q-18 -19 -28 -28 ZM35 107 q-17 37 -29 58 l14 6 q16 -29 30 -58 l-15 -6 ZM142 6 q-15 18 -35 38 l12 10 q7 -7 25 -25 q8 -8 12 -12 l-14 -11 Z" /><glyph glyph-name="" unicode="&#x5c0f;" d="M25 23 q-9 6 -17 9 q31 53 52 121 l18 -5 q-23 -68 -53 -125 ZM231 27 q-21 46 -56 119 l16 6 q4 -8 13 -26 q33 -64 45 -91 l-18 -8 ZM72 -26 q-1 10 -4 19 q15 0 32 0 q23 -2 21 19 l0 195 l19 0 l0 -200 q1 -33 -33 -32 q-10 -1 -35 -1 Z" /><glyph glyph-name="" unicode="&#x5c1a;" d="M23 -27 l0 165 l96 0 l0 72 l17 0 l0 -72 l96 0 l0 -134 q1 -27 -30 -28 q-8 -1 -33 -1 q-2 9 -5 18 q6 0 21 -1 q9 0 12 0 q18 0 18 13 l0 118 l-176 0 l0 -150 l-16 0 ZM75 19 l0 72 l104 0 l0 -72 l-104 0 ZM91 77 l0 -43 l72 0 l0 43 l-72 0 ZM178 148 l-11 12 q27 21 46 40 l12 -11 q-20 -20 -47 -41 ZM73 150 q-27 26 -44 39 l11 11 q9 -7 28 -23 q12 -10 18 -15 l-13 -12 Z" /><glyph glyph-name="" unicode="&#x5c31;" d="M131 126 l0 14 l27 0 q0 10 0 31 q1 24 1 39 l16 0 q0 -24 -2 -70 l69 0 l0 -14 l-43 0 l0 -120 q-1 -14 13 -13 l5 0 q13 -1 15 14 q3 18 4 35 q6 -3 14 -5 q-1 -21 -4 -35 q-4 -26 -28 -25 l-9 0 q-25 0 -25 24 l0 125 l-11 0 q-3 -100 -55 -155 q-6 3 -14 10 q53 52 53 145 l-26 0 ZM24 71 l0 67 l95 0 l0 -67 l-39 0 l0 -70 q1 -26 -26 -26 q-10 0 -19 0 q0 1 -1 4 q-1 7 -3 11 q11 0 19 0 q15 0 14 12 l0 69 l-40 0 ZM39 124 l0 -39 l65 0 l0 39 l-65 0 ZM9 163 l0 14 l59 0 q-3 15 -8 32 l16 2 q1 -4 3 -12 q2 -5 5 -20 l-7 -2 l55 0 l0 -14 l-123 0 ZM21 0 q-2 0 -8 2 q-4 2 -6 3 q13 21 25 49 l14 -5 q-15 -34 -25 -49 ZM222 157 q-1 1 -4 3 q-17 16 -29 24 l11 10 q24 -18 33 -26 l-11 -11 ZM111 19 q-2 2 -5 9 q-10 16 -15 23 l12 6 q1 -2 4 -5 q12 -16 17 -26 l-13 -7 Z" /><glyph glyph-name="" unicode="&#x5c42;" d="M18 -28 l-12 14 q19 30 23 57 q6 27 6 87 l0 68 l201 0 l0 -67 l-185 0 l0 -1 q0 -65 -6 -95 q-7 -32 -27 -63 ZM56 43 l0 15 l193 0 l0 -15 l-106 0 q-29 -30 -51 -47 q55 3 107 3 q-7 4 -19 16 q-7 6 -10 9 l13 10 q32 -29 7 -7 q25 -22 51 -45 l-13 -11 l-15 14 q-44 0 -120 -3 q-10 0 -22 -3 l-8 16 q9 4 19 10 q2 2 6 6 q23 20 33 32 l-65 0 ZM51 184 l0 -39 l169 0 l0 39 l-169 0 ZM76 89 l0 14 l151 0 l0 -14 l-151 0 Z" /><glyph glyph-name="" unicode="&#x5c55;" d="M238 -23 q-90 21 -115 79 l-28 0 l0 -63 l47 13 q0 -6 0 -14 q-25 -9 -42 -14 q-3 -2 -11 -5 q-5 -2 -7 -3 l-9 13 q6 7 6 20 l0 53 l-33 0 q-2 -50 -26 -84 q-1 1 -6 6 q-5 4 -7 6 q16 23 20 46 q5 23 5 72 l0 96 l199 0 l0 -54 l-183 0 l0 -35 q0 -22 -1 -40 l55 0 l0 31 l-43 0 l0 13 l43 0 l0 22 l16 0 l0 -22 l53 0 l0 22 l16 0 l0 -22 l46 0 l0 -13 l-46 0 l0 -31 l57 0 l0 -13 l-105 0 q13 -21 29 -34 q37 18 50 25 l9 -12 q-8 -5 -46 -22 q18 -12 66 -22 q-6 -8 -9 -14 ZM48 185 l0 -27 l168 0 l0 27 l-168 0 ZM118 100 l0 -31 l53 0 l0 31 l-53 0 Z" /><glyph glyph-name="" unicode="&#x5c6f;" d="M136 60 l0 -44 q-1 -21 24 -20 l38 0 q26 -1 29 17 q3 13 4 34 q8 -3 17 -5 q-1 -20 -5 -38 q-6 -25 -42 -25 l-46 0 q-37 0 -37 34 l0 47 l-84 0 l0 78 l17 0 l0 -62 l67 0 l0 84 l-103 0 l0 16 l103 0 l0 34 l18 0 l0 -34 l105 0 l0 -16 l-105 0 l0 -84 l68 0 l0 62 l17 0 l0 -78 l-85 0 Z" /><glyph glyph-name="" unicode="&#x5c71;" d="M27 -7 l0 169 l17 0 l0 -155 l75 0 l0 201 l18 0 l0 -201 l74 0 l0 155 l18 0 l0 -189 l-18 0 l0 20 l-184 0 Z" /><glyph glyph-name="" unicode="&#x5c97;" d="M26 -28 l0 155 l203 0 l0 -122 q2 -31 -29 -31 q-17 0 -35 0 q0 8 -3 16 q16 0 33 0 q19 -1 18 16 l0 107 l-170 0 l0 -141 l-17 0 ZM29 153 l0 46 l17 0 l0 -31 l73 0 l0 42 l16 0 l0 -42 l74 0 l0 31 l16 0 l0 -46 l-196 0 ZM65 -2 q-5 4 -11 12 q36 20 61 40 l-52 37 l10 12 q29 -19 56 -39 q11 9 33 29 q9 7 13 11 l11 -10 q-29 -27 -44 -39 l51 -38 l-11 -13 q-28 21 -53 40 q-31 -24 -64 -42 Z" /><glyph glyph-name="" unicode="&#x5cad;" d="M16 9 l0 154 l13 0 l0 -138 l19 0 l0 184 l14 0 l0 -183 l19 1 l0 136 l13 0 l0 -163 l-13 0 l0 13 l-65 -4 ZM198 -29 q-18 14 -55 38 q-16 11 -24 17 l10 12 l35 -24 l50 54 l-102 0 l0 15 l121 0 l0 -17 l-56 -61 q8 -5 25 -16 q4 -3 6 -4 l-10 -14 ZM240 106 q-45 38 -65 80 q-23 -42 -67 -82 q-4 8 -9 15 q48 40 70 92 l18 -2 l-5 -9 q27 -48 68 -79 q-6 -7 -10 -15 ZM178 95 q-12 18 -23 35 l12 7 q14 -16 24 -34 l-13 -8 Z" /><glyph glyph-name="" unicode="&#x5cb8;" d="M73 73 l0 14 l153 0 l0 -14 l-69 0 l0 -36 l88 0 l0 -14 l-88 0 l0 -52 l-16 0 l0 52 l-83 0 l0 14 l83 0 l0 36 l-68 0 ZM19 -29 q-5 5 -13 11 q31 31 28 95 l0 53 l210 0 l0 -15 l-194 0 l0 -38 q0 -40 -6 -61 q-6 -20 -25 -45 ZM37 155 l0 47 l17 0 l0 -33 l70 0 l0 41 l17 0 l0 -41 l70 0 l0 33 l17 0 l0 -47 l-191 0 Z" /><glyph glyph-name="" unicode="&#x5cf0;" d="M15 5 l0 160 l13 0 l0 -145 l20 2 l0 182 l14 0 l0 -181 l20 1 l0 141 l13 0 l0 -170 l-13 0 l0 14 l-67 -4 ZM242 103 q-41 9 -66 22 q-18 -11 -66 -25 q-5 8 -8 14 q36 9 60 19 q-16 12 -28 29 q-10 -10 -22 -21 q-1 1 -5 6 q-4 4 -5 5 q31 25 49 59 l16 -5 q-2 -3 -6 -8 q-4 -6 -6 -9 l76 0 l0 -14 q-20 -28 -40 -42 q23 -10 59 -15 q-5 -7 -8 -15 ZM113 74 l0 13 l53 0 l0 20 l17 0 l0 -20 l54 0 l0 -13 l-54 0 l0 -22 l50 0 l0 -13 l-50 0 l0 -22 l62 0 l0 -13 l-62 0 l0 -33 l-17 0 l0 33 l-60 0 l0 13 l60 0 l0 22 l-50 0 l0 13 l50 0 l0 22 l-53 0 ZM214 176 l-69 0 l-2 -3 q14 -19 33 -32 q22 15 38 35 Z" /><glyph glyph-name="" unicode="&#x5d07;" d="M11 38 l0 14 l234 0 l0 -14 l-105 0 l0 -38 q1 -27 -28 -27 q-14 0 -29 0 q0 1 -1 4 q-2 8 -3 12 q11 -1 27 -1 q18 -1 17 15 l0 35 l-112 0 ZM17 90 l0 39 l106 0 q-3 9 -7 19 l17 3 q2 -5 4 -14 q1 -5 2 -8 l100 0 l0 -39 l-17 0 l0 26 l-189 0 l0 -26 l-16 0 ZM33 158 l0 42 l16 0 l0 -29 l71 0 l0 40 l16 0 l0 -40 l71 0 l0 29 l16 0 l0 -42 l-190 0 ZM49 77 l0 13 l158 0 l0 -13 l-158 0 ZM21 -24 l-9 14 q34 15 64 37 l10 -12 q-34 -22 -65 -39 ZM234 -22 q-13 9 -40 23 q-14 9 -23 14 l9 12 q15 -8 38 -21 q16 -9 25 -14 l-9 -14 Z" /><glyph glyph-name="" unicode="&#x5dde;" d="M212 -26 l0 233 l17 0 l0 -233 l-17 0 ZM134 -21 l0 223 l16 0 l0 -223 l-16 0 ZM27 -28 q-7 6 -15 12 q26 25 34 55 q9 28 9 87 l0 80 l17 0 l0 -82 q0 -61 -9 -91 q-9 -31 -36 -61 ZM22 70 q-7 3 -15 5 q12 35 18 65 l15 -4 q-4 -16 -12 -46 q-4 -13 -6 -20 ZM105 77 q-12 35 -21 56 l14 5 q14 -33 22 -55 l-15 -6 ZM184 76 q-13 35 -22 57 l14 5 q13 -26 23 -56 l-15 -6 Z" /><glyph glyph-name="" unicode="&#x5df1;" d="M73 -20 q-41 0 -41 38 l0 91 l169 0 l0 70 l-174 0 l0 16 l192 0 l0 -102 l-170 0 l0 -70 q-2 -28 30 -26 l115 0 q27 -1 30 15 q5 15 6 37 q10 -3 19 -5 q-1 -10 -5 -29 q-1 -7 -2 -10 q-7 -26 -44 -25 l-125 0 Z" /><glyph glyph-name="" unicode="&#x5df2;" d="M74 -17 q-44 -1 -43 39 l0 122 l18 0 l0 -38 l152 0 l0 72 l-176 0 l0 16 l194 0 l0 -104 l-170 0 l0 -65 q-2 -28 29 -26 l112 0 q32 -2 35 24 q4 16 5 30 q11 -4 17 -6 q-2 -16 -5 -31 q-7 -35 -46 -33 l-122 0 Z" /><glyph glyph-name="" unicode="&#x5df7;" d="M20 169 l0 14 l51 0 l0 27 l17 0 l0 -27 l76 0 l0 27 l16 0 l0 -27 l56 0 l0 -14 l-56 0 l0 -33 l68 0 l0 -14 l-79 0 q27 -36 80 -52 q-4 -7 -9 -15 q-26 10 -44 22 l0 -49 l-125 0 l0 -16 q-1 -19 21 -18 l89 0 q23 0 27 14 q3 8 4 27 q9 -4 16 -6 q-3 -16 -6 -27 q-7 -23 -37 -23 l-96 0 q-35 -1 -34 31 l0 63 q-18 -13 -40 -25 q-4 8 -9 15 q46 19 79 59 l-77 0 l0 14 l63 0 l0 33 l-51 0 ZM71 76 l0 -35 l109 0 l0 35 l-109 0 ZM88 169 l0 -33 l76 0 l0 33 l-76 0 ZM104 122 q-13 -17 -28 -32 l103 0 q-16 14 -29 32 l-46 0 Z" /><glyph glyph-name="" unicode="&#x5e02;" d="M10 157 l0 16 l115 0 l-16 32 l17 6 q3 -6 9 -17 q6 -11 9 -17 l-11 -4 l114 0 l0 -16 l-111 0 l0 -38 l90 0 l0 -89 q1 -30 -30 -30 q-8 0 -31 0 q-1 7 -3 16 q17 -1 29 -1 q19 -1 18 19 l0 69 l-73 0 l0 -132 l-17 0 l0 132 l-72 0 l0 -107 l-17 0 l0 123 l89 0 l0 38 l-109 0 Z" /><glyph glyph-name="" unicode="&#x5e08;" d="M102 179 l0 16 l147 0 l0 -16 l-67 0 l0 -40 l56 0 l0 -104 q1 -27 -24 -27 q-11 0 -20 0 q0 8 -3 16 q2 0 8 0 q7 -1 10 -1 q15 -1 14 14 l0 87 l-41 0 l0 -153 l-16 0 l0 153 l-40 0 l0 -119 l-15 0 l0 134 l55 0 l0 40 l-64 0 ZM31 -31 q-6 6 -13 12 q29 24 38 50 q10 25 10 76 l0 102 l16 0 l0 -101 q0 -55 -10 -83 q-11 -28 -41 -56 ZM20 42 l0 146 l15 0 l0 -146 l-15 0 Z" /><glyph glyph-name="" unicode="&#x5e26;" d="M42 -9 l0 84 l77 0 l0 23 l17 0 l0 -23 l78 0 l0 -56 q1 -25 -26 -25 q-6 -1 -27 -1 q0 3 -1 8 q-2 4 -2 6 q14 -1 25 -1 q16 -1 15 14 l0 41 l-62 0 l0 -90 l-17 0 l0 90 l-61 0 l0 -70 l-16 0 ZM7 164 l0 14 l51 0 l0 31 l15 0 l0 -31 l47 0 l0 32 l16 0 l0 -32 l46 0 l0 31 l16 0 l0 -31 l50 0 l0 -14 l-50 0 l0 -28 l-16 0 l0 28 l-46 0 l0 -28 l-16 0 l0 28 l-47 0 l0 -28 l-15 0 l0 28 l-51 0 ZM16 82 l0 42 l224 0 l0 -42 l-16 0 l0 27 l-192 0 l0 -27 l-16 0 Z" /><glyph glyph-name="" unicode="&#x5e73;" d="M20 182 l0 16 l216 0 l0 -16 l-99 0 l0 -107 l110 0 l0 -17 l-110 0 l0 -88 l-18 0 l0 88 l-110 0 l0 17 l110 0 l0 107 l-99 0 ZM174 92 l-13 11 q26 28 47 58 l15 -9 q-15 -19 -45 -55 q21 24 -4 -5 ZM76 93 q-21 30 -43 59 l13 9 q12 -14 37 -46 q5 -7 8 -11 l-15 -11 Z" /><glyph glyph-name="" unicode="&#x5e74;" d="M23 113 q-6 7 -12 13 q35 35 57 85 l18 -4 q-7 -13 -13 -25 l166 0 l0 -15 l-87 0 l0 -47 l82 0 l0 -15 l-82 0 l0 -56 l97 0 l0 -16 l-97 0 l0 -63 l-17 0 l0 63 l-128 0 l0 16 l40 0 l0 71 l88 0 l0 47 l-71 0 q-17 -28 -41 -54 ZM64 105 l0 -56 l71 0 l0 56 l-71 0 Z" /><glyph glyph-name="" unicode="&#x5e76;" d="M18 149 l0 16 l132 0 q14 17 33 46 l16 -7 q-17 -24 -29 -39 l67 0 l0 -16 l-51 0 l0 -64 l62 0 l0 -17 l-62 0 l0 -97 l-18 0 l0 97 l-78 0 q2 -63 -59 -98 q-1 1 -4 4 q-2 2 -9 9 q58 29 54 85 l-65 0 l0 17 l65 0 l0 64 l-54 0 ZM90 149 l0 -64 l78 0 l0 64 l-78 0 ZM89 167 q-12 16 -29 36 l14 8 q11 -13 30 -35 l-15 -9 Z" /><glyph glyph-name="" unicode="&#x5e7d;" d="M19 -15 l0 192 l16 0 l0 -177 l85 0 l0 208 l15 0 l0 -208 l86 0 l0 177 l16 0 l0 -206 l-16 0 l0 14 l-202 0 ZM146 106 l-5 11 q4 4 7 11 q15 31 28 69 l14 -5 q-16 -40 -32 -72 q5 1 15 1 q9 1 14 1 q1 3 4 8 q2 6 9 21 l13 -5 q-25 -53 -50 -97 q7 1 24 2 q-5 0 8 1 q-3 13 -8 25 l12 4 q10 -29 17 -54 l-12 -3 l-5 15 q-41 -3 -50 -5 l-5 12 q4 3 8 9 q0 -1 1 1 q5 9 18 33 q6 13 10 20 q-4 0 -10 -1 q-20 0 -25 -2 ZM49 31 l-5 13 q5 4 9 10 q12 20 27 53 q-22 -1 -34 -3 l-5 11 q2 2 6 8 q-2 -4 2 2 q11 26 26 71 l14 -5 q-8 -20 -25 -61 q-3 -8 -5 -12 l27 2 q6 14 12 29 l13 -5 q-24 -56 -49 -97 q15 2 33 3 q-1 3 -3 9 q-1 5 -5 15 l11 4 q13 -39 17 -53 l-12 -3 l-4 15 q-41 -3 -50 -6 Z" /><glyph glyph-name="" unicode="&#x5e7f;" d="M23 -27 q-3 2 -8 6 q-6 4 -9 6 q21 24 28 49 q7 25 7 74 l0 63 l99 0 q-8 19 -17 34 l18 6 q12 -23 18 -35 l-13 -5 l100 0 l0 -16 l-188 0 l0 -48 q3 -87 -35 -134 Z" /><glyph glyph-name="" unicode="&#x5e95;" d="M82 -23 l-11 14 q9 7 8 21 l0 127 q79 0 153 8 l5 -15 q-10 -1 -38 -3 q-19 -1 -29 -2 q0 -28 2 -48 l72 0 l0 -15 l-70 0 q4 -35 20 -60 q11 -15 22 -14 q10 0 14 11 q3 13 6 32 q5 -3 14 -5 q-1 -20 -6 -31 q-6 -24 -28 -24 q-19 -1 -36 24 q-17 24 -22 67 l-63 0 l0 -61 q35 18 51 26 q0 -8 3 -16 q-28 -13 -54 -26 q-2 -1 -8 -6 q-3 -3 -5 -4 ZM19 -30 q-6 7 -13 12 q16 25 20 49 q5 23 5 74 l0 79 l103 0 q-4 12 -9 24 l17 4 q2 -6 6 -17 q2 -7 4 -11 l94 0 l0 -15 l-199 0 l0 -60 q0 -56 -6 -83 q-5 -27 -22 -56 ZM156 79 q-2 20 -2 47 q-1 0 -4 0 q-42 -2 -55 -2 l0 -45 l61 0 ZM155 -31 q-10 9 -26 25 l12 7 q13 -9 26 -23 l-12 -9 Z" /><glyph glyph-name="" unicode="&#x5e97;" d="M76 -29 l0 102 l54 0 l0 80 l17 0 l0 -27 l95 0 l0 -15 l-95 0 l0 -38 l76 0 l0 -102 l-16 0 l0 17 l-115 0 l0 -17 l-16 0 ZM19 -29 q-3 3 -10 8 q-3 3 -5 4 q16 22 21 46 q5 24 5 74 l0 78 l103 0 l-7 28 l18 3 q2 -5 4 -15 q3 -11 4 -16 l96 0 l0 -15 l-201 0 l0 -65 q2 -90 -28 -130 ZM92 58 l0 -57 l115 0 l0 57 l-115 0 Z" /><glyph glyph-name="" unicode="&#x5ea6;" d="M239 -27 q-61 11 -93 27 q-32 -16 -93 -30 q-3 9 -8 16 q49 9 84 21 q-28 18 -48 45 l-17 0 l0 14 l152 0 l0 -15 q-25 -26 -53 -44 q31 -11 83 -18 q-1 -3 -3 -8 q-3 -6 -4 -8 ZM57 126 l0 15 l36 0 l0 21 l16 0 l0 -21 l74 0 l0 21 l15 0 l0 -21 l45 0 l0 -15 l-45 0 l0 -38 l-105 0 l0 38 l-36 0 ZM19 -29 q-6 6 -13 11 q16 25 20 47 q5 21 5 71 l0 84 l103 0 q-1 11 -6 25 l18 2 q3 -14 7 -27 l93 0 l0 -15 l-199 0 l0 -71 q0 -49 -6 -75 q-5 -25 -22 -52 ZM196 52 l-96 0 q20 -23 45 -37 q25 12 51 37 ZM109 126 l0 -25 l74 0 l0 25 l-74 0 Z" /><glyph glyph-name="" unicode="&#x5ead;" d="M243 -20 q-50 0 -80 1 q-48 1 -71 20 q-13 -14 -35 -30 q-5 6 -11 12 q27 18 35 29 q-14 19 -23 42 l13 6 q9 -21 19 -35 q11 19 15 49 l-44 0 l0 12 l42 45 l-42 0 l0 14 l59 0 l0 -15 l-38 -43 l38 0 l0 -14 q-6 -36 -20 -60 q20 -17 64 -17 q37 -2 84 0 q-3 -7 -5 -16 ZM18 -29 q-2 2 -6 5 q-5 4 -7 6 q16 25 20 47 q5 21 5 71 l0 82 l105 0 q-3 13 -7 26 l17 3 q4 -13 7 -29 l94 0 l0 -15 l-200 0 l0 -69 q0 -49 -6 -74 q-5 -25 -22 -53 ZM136 126 l-2 14 q39 1 99 6 l4 -14 q-10 -1 -29 -2 q-10 -1 -15 -1 l0 -40 l41 0 l0 -14 l-41 0 l0 -41 l47 0 l0 -14 l-110 0 l0 14 l47 0 l0 41 l-41 0 l0 14 l41 0 l0 39 q-7 -1 -21 -1 q-13 -1 -20 -1 Z" /><glyph glyph-name="" unicode="&#x5ec9;" d="M55 133 l0 12 l48 0 q-2 4 -8 11 q-5 7 -8 10 l13 6 q11 -11 19 -22 l-8 -5 l48 0 q2 3 6 9 q9 13 12 18 l15 -6 q-2 -3 -9 -12 q-5 -6 -7 -9 l62 0 l0 -12 l-68 0 l0 -20 l50 0 l0 -34 l28 0 l0 -12 l-28 0 l0 -34 l-46 0 q25 -30 72 -40 q-1 -1 -3 -5 q-4 -7 -5 -10 q-47 17 -68 41 l0 -48 l-14 0 l0 62 l-34 0 l0 -62 l-15 0 l0 47 q-17 -22 -59 -41 q-2 3 -7 9 q-2 3 -3 4 q44 15 66 43 l-45 0 l0 12 l48 0 l0 22 l-56 0 l0 12 l56 0 l0 21 l-44 0 l0 13 l44 0 l0 20 l-52 0 ZM18 -28 q-2 2 -7 5 q-5 3 -7 5 q15 25 19 50 q5 23 5 74 l0 81 l103 0 q-1 4 -4 11 q-3 7 -4 10 l16 3 q1 -1 2 -4 q6 -13 8 -20 l95 0 l0 -13 l-201 0 l0 -64 q0 -56 -5 -82 q-4 -26 -20 -56 ZM170 45 l35 0 l0 22 l-35 0 l0 -22 ZM122 67 l0 -22 l34 0 l0 22 l-34 0 ZM205 100 l-35 0 l0 -21 l35 0 l0 21 ZM122 100 l0 -21 l34 0 l0 21 l-34 0 ZM122 133 l0 -20 l34 0 l0 20 l-34 0 Z" /><glyph glyph-name="" unicode="&#x5f00;" d="M21 176 l0 16 l218 0 l0 -16 l-49 0 l0 -76 l60 0 l0 -16 l-60 0 l0 -112 l-18 0 l0 112 l-81 0 q4 -80 -65 -114 q-6 7 -12 15 q63 29 59 99 l-63 0 l0 16 l63 0 l0 76 l-52 0 ZM91 176 l0 -76 l81 0 l0 76 l-81 0 Z" /><glyph glyph-name="" unicode="&#x5f0f;" d="M8 143 l0 16 l136 0 q-1 26 -1 51 l17 0 q0 -34 1 -51 l86 0 l0 -16 l-85 0 q1 -27 4 -49 q6 -51 20 -82 q12 -22 26 -22 q11 0 15 14 q5 19 6 33 q9 -3 16 -6 q-3 -21 -8 -33 q-7 -26 -29 -25 q-25 0 -42 34 q-15 31 -21 86 q-3 24 -4 50 l-137 0 ZM17 85 l0 16 l112 0 l0 -16 l-48 0 l0 -71 l59 9 q-1 -6 -1 -17 q-81 -9 -127 -15 l-4 15 q26 2 56 6 l0 73 l-47 0 ZM215 165 q-15 15 -33 30 l12 10 q2 -2 9 -7 q19 -17 24 -22 l-12 -11 Z" /><glyph glyph-name="" unicode="&#x5f15;" d="M48 -25 q-1 10 -4 19 q23 -1 45 -1 q32 -2 33 26 q0 1 0 5 q3 26 3 41 l-104 0 l12 73 l91 0 l0 45 l-104 0 l0 15 l121 0 l0 -75 l-93 0 l-8 -43 l104 0 q-1 -30 -5 -65 q-2 -40 -47 -39 q-18 -1 -44 -1 ZM208 -29 l0 238 l17 0 l0 -238 l-17 0 Z" /><glyph glyph-name="" unicode="&#x5f53;" d="M31 45 l0 15 l181 0 l0 45 l-189 0 l0 16 l96 0 l0 89 l18 0 l0 -89 l93 0 l0 -151 l-18 0 l0 14 l-196 0 l0 15 l196 0 l0 46 l-181 0 ZM177 135 l-12 11 q21 18 47 50 l14 -10 q-21 -26 -49 -51 ZM76 137 q-29 36 -45 50 l13 10 q33 -32 46 -49 l-14 -11 Z" /><glyph glyph-name="" unicode="&#x5f62;" d="M16 178 l0 15 l132 0 l0 -15 l-30 0 l0 -75 l37 0 l0 -15 l-37 0 l0 -116 l-16 0 l0 116 l-44 0 q2 -79 -40 -116 q-4 3 -13 12 q40 34 36 104 l-32 0 l0 15 l32 0 l0 75 l-25 0 ZM58 178 l0 -75 l44 0 l0 75 l-44 0 ZM146 -29 l-10 14 q59 25 100 78 l13 -11 q-43 -53 -103 -81 ZM160 58 q-2 3 -7 9 q-3 4 -4 5 q49 25 82 62 l12 -11 q-35 -39 -83 -65 ZM158 133 q-5 8 -11 14 q48 24 79 59 l13 -11 q-31 -34 -81 -62 Z" /><glyph glyph-name="" unicode="&#x5f8b;" d="M90 91 l0 13 l57 0 l0 26 l-66 0 l0 14 l66 0 l0 26 l-54 0 l0 14 l54 0 l0 25 l16 0 l0 -25 l63 0 l0 -40 l23 0 l0 -14 l-23 0 l0 -39 l-63 0 l0 -27 l70 0 l0 -14 l-70 0 l0 -27 l83 0 l0 -14 l-83 0 l0 -38 l-16 0 l0 38 l-78 0 l0 14 l78 0 l0 27 l-67 0 l0 14 l67 0 l0 27 l-57 0 ZM14 50 q0 1 -2 3 q-4 9 -6 12 q35 34 57 78 l15 -8 q-2 -3 -6 -9 q-6 -11 -16 -26 l0 -129 l-16 0 l0 107 q-11 -15 -26 -28 ZM19 130 q-4 10 -9 15 q33 27 54 64 l14 -8 q-23 -39 -59 -71 ZM210 170 l-47 0 l0 -26 l47 0 l0 26 ZM163 130 l0 -26 l47 0 l0 26 l-47 0 Z" /><glyph glyph-name="" unicode="&#x5f97;" d="M102 110 l0 89 l127 0 l0 -89 l-127 0 ZM89 74 l0 14 l155 0 l0 -14 l-30 0 l0 -23 l35 0 l0 -14 l-35 0 l0 -34 q2 -29 -30 -28 q-4 0 -14 0 q-13 -1 -19 -1 q-2 9 -5 17 q13 -1 33 -1 q20 -1 19 13 l0 34 l-119 0 l0 14 l119 0 l0 23 l-109 0 ZM41 -29 l0 110 q-13 -16 -28 -30 q0 1 -1 3 q-2 5 -6 13 q35 33 61 80 l14 -8 q-12 -19 -24 -37 l0 -131 l-16 0 ZM118 148 l0 -24 l96 0 l0 24 l-96 0 ZM118 186 l0 -25 l96 0 l0 25 l-96 0 ZM18 131 q-3 8 -8 15 q31 25 58 64 l15 -9 q-28 -39 -65 -70 ZM128 -6 q-12 13 -28 28 l12 10 q16 -14 29 -29 l-13 -9 Z" /><glyph glyph-name="" unicode="&#x5faa;" d="M118 -29 l0 138 l50 0 l0 28 l-66 0 l0 -33 q1 -87 -29 -132 q-8 6 -13 10 q16 26 21 52 q5 24 5 79 l0 77 q72 1 150 10 l4 -14 q-26 -3 -56 -6 l0 -29 l64 0 l0 -14 l-64 0 l0 -28 l50 0 l0 -138 l-15 0 l0 16 l-85 0 l0 -16 l-16 0 ZM14 50 q-5 10 -8 15 q32 31 53 77 l14 -8 q-3 -5 -8 -14 q-8 -14 -12 -21 l0 -128 l-15 0 l0 106 q-1 -1 -2 -2 q-13 -17 -22 -25 ZM134 23 l0 -23 l85 0 l0 23 l-85 0 ZM134 95 l0 -24 l85 0 l0 24 l-85 0 ZM134 59 l0 -24 l85 0 l0 24 l-85 0 ZM102 177 l0 -26 l66 0 l0 28 q-33 -2 -66 -2 ZM18 131 q-1 2 -4 8 q-3 5 -4 7 q30 25 50 63 l14 -8 q-22 -40 -56 -70 Z" /><glyph glyph-name="" unicode="&#x5fae;" d="M164 96 q0 1 -2 3 q-5 8 -7 10 q25 42 38 101 l15 -3 q-6 -23 -13 -44 l55 0 l0 -14 l-13 0 q-5 -75 -26 -114 q16 -29 39 -48 q-1 -2 -5 -7 q-3 -5 -5 -7 q-27 27 -37 47 q-11 -20 -41 -48 l-11 12 q29 24 44 51 q-15 38 -19 81 q-6 -11 -12 -20 ZM67 -22 q-4 5 -11 11 q26 16 23 59 l0 18 l66 0 l0 -48 q5 4 17 15 q-3 -3 6 5 l2 -16 q-9 -7 -26 -22 q-8 -6 -10 -8 l-10 12 q8 6 7 20 l0 28 l-38 0 l0 -11 q3 -41 -26 -63 ZM72 130 l0 57 l14 0 l0 -44 l23 0 l0 63 l14 0 l0 -63 l23 0 l0 45 l13 0 l0 -58 l-87 0 ZM12 50 q0 1 -1 3 q-4 11 -6 13 q29 32 47 77 l14 -8 q-3 -5 -8 -16 q-6 -11 -9 -17 l0 -131 l-15 0 l0 107 q-2 -3 -6 -8 q-4 -6 -16 -20 ZM204 52 q15 33 19 97 l-33 0 q0 -2 -2 -5 q-1 -4 -2 -6 q6 -58 18 -86 ZM16 132 q-1 3 -7 13 q-1 1 -1 1 q26 26 45 64 l13 -9 q-18 -38 -50 -69 ZM75 91 l0 14 l79 0 l0 -14 l-79 0 Z" /><glyph glyph-name="" unicode="&#x5fb7;" d="M82 173 l0 13 l70 0 l0 24 l16 0 l0 -24 l75 0 l0 -13 l-75 0 l0 -23 l65 0 l0 -60 l-147 0 l0 60 l66 0 l0 23 l-70 0 ZM40 -29 l0 108 q-12 -16 -27 -30 q-2 8 -7 16 q33 31 57 77 l14 -8 q-10 -18 -22 -35 l0 -128 l-15 0 ZM142 -22 q-30 0 -29 25 l0 36 l15 0 l0 -32 q-1 -16 20 -15 l24 0 q18 -1 20 11 q3 11 5 22 q5 -2 14 -5 q-1 -3 -2 -9 q0 -6 -3 -14 q-5 -19 -31 -19 l-33 0 ZM76 57 l0 13 l171 0 l0 -13 l-171 0 ZM21 133 q-3 6 -9 14 q31 24 52 62 l14 -9 q-25 -41 -57 -67 ZM144 137 l0 -34 l30 0 l0 34 l-30 0 ZM101 137 l0 -34 l30 0 l0 34 l-30 0 ZM218 137 l-30 0 l0 -34 l30 0 l0 34 ZM80 -11 q-5 3 -14 6 q13 23 20 43 l14 -4 q-8 -22 -20 -45 ZM236 -4 q-6 12 -24 40 l13 6 q9 -12 25 -40 l-14 -6 ZM163 16 q-4 6 -12 18 q-6 8 -9 13 l12 7 q6 -9 18 -24 q3 -4 5 -6 l-14 -8 Z" /><glyph glyph-name="" unicode="&#x5fc3;" d="M108 -21 q-37 0 -37 36 l0 146 l18 0 l0 -142 q-2 -24 24 -22 l44 0 q27 -1 30 19 q0 3 1 10 q2 15 3 24 q2 -1 6 -2 q9 -3 12 -4 q0 -3 -1 -8 q-2 -20 -5 -29 q-6 -28 -42 -28 l-53 0 ZM232 47 q-12 30 -41 87 l16 7 q29 -56 43 -86 l-18 -8 ZM24 32 q-3 1 -12 4 q-4 1 -6 2 q17 45 27 96 l17 -4 q-9 -46 -26 -98 ZM150 135 q-28 43 -45 66 l15 10 q24 -33 45 -65 l-15 -11 Z" /><glyph glyph-name="" unicode="&#x5ff5;" d="M239 119 q-70 27 -110 72 q-39 -43 -113 -76 q-1 3 -4 8 q-3 6 -5 8 q79 32 119 81 l18 -3 l-6 -7 q45 -46 110 -67 q-1 -2 -4 -8 q-3 -5 -5 -8 ZM102 -22 q-33 -1 -32 29 l0 46 l16 0 l0 -42 q-1 -18 21 -17 l40 0 q25 -1 27 16 q3 9 4 23 q9 -4 17 -6 q-2 -9 -6 -23 q-1 -3 -1 -4 q-6 -23 -38 -22 l-48 0 ZM168 51 q-7 6 -15 8 l29 35 l-135 0 l0 15 l153 0 l0 -16 l-32 -42 ZM22 -15 q-7 4 -16 7 q11 19 24 58 l16 -5 q0 -1 -1 -3 q-14 -38 -23 -57 ZM234 -2 q-3 3 -8 11 q-18 25 -29 38 l13 9 q4 -5 12 -15 q9 -12 27 -35 l-15 -8 ZM140 23 q-19 22 -38 41 l12 10 q22 -20 39 -39 l-13 -12 ZM132 120 q-1 1 -2 3 q-11 14 -24 27 l13 9 q7 -7 17 -19 q6 -7 9 -10 l-13 -10 Z" /><glyph glyph-name="" unicode="&#x601d;" d="M34 75 l0 122 l188 0 l0 -122 l-188 0 ZM102 -21 q-33 -1 -32 29 l0 45 l16 0 l0 -41 q-2 -19 22 -18 l44 0 q21 -1 24 15 q2 13 3 24 q3 -1 9 -3 q6 -2 8 -3 q-1 -3 -2 -9 q0 -7 -3 -17 q-6 -23 -36 -22 l-53 0 ZM136 129 l0 -39 l70 0 l0 39 l-70 0 ZM50 129 l0 -39 l70 0 l0 39 l-70 0 ZM206 182 l-70 0 l0 -39 l70 0 l0 39 ZM50 182 l0 -39 l70 0 l0 39 l-70 0 ZM24 -11 q-1 1 -4 2 q-5 3 -12 5 q17 31 25 59 l16 -5 q-1 -2 -2 -5 q-13 -38 -23 -56 ZM234 -2 q-16 25 -35 50 l13 8 q19 -23 37 -50 l-15 -8 ZM138 22 q-14 21 -28 38 l14 9 q15 -18 29 -37 l-15 -10 Z" /><glyph glyph-name="" unicode="&#x6027;" d="M100 98 q-7 4 -15 7 q22 40 32 88 l16 -3 q-1 -9 -6 -26 q-2 -6 -3 -9 l38 0 l0 55 l16 0 l0 -55 l64 0 l0 -15 l-64 0 l0 -61 l60 0 l0 -16 l-60 0 l0 -65 l71 0 l0 -16 l-167 0 l0 16 l80 0 l0 65 l-64 0 l0 16 l64 0 l0 61 l-43 0 q-9 -22 -19 -42 ZM80 127 q-9 16 -22 31 l0 -187 l-17 0 l0 239 l17 0 l0 -51 l10 9 q12 -13 23 -30 l-11 -11 ZM21 91 q-1 0 -2 0 q-5 2 -12 2 q6 31 10 61 l14 -2 q-1 -8 -4 -23 q-4 -25 -6 -38 Z" /><glyph glyph-name="" unicode="&#x603b;" d="M38 81 l0 86 l107 0 q2 3 6 9 q15 22 22 34 l17 -7 q-4 -6 -13 -18 q-8 -12 -13 -18 l53 0 l0 -86 l-179 0 ZM55 152 l0 -57 l145 0 l0 57 l-145 0 ZM101 -22 q-31 0 -31 29 l0 47 l17 0 l0 -43 q0 -17 21 -17 l39 0 q25 -1 27 14 q1 6 4 18 q0 5 1 8 q3 -1 8 -3 q6 -2 8 -3 q-1 -8 -5 -23 q-1 -3 -1 -5 q-5 -23 -38 -22 l-50 0 ZM23 -9 q-1 1 -4 2 q-8 3 -12 4 q16 32 24 61 l16 -5 q-15 -43 -24 -62 ZM233 0 q-17 27 -35 52 l14 8 q20 -28 36 -53 l-15 -7 ZM138 26 q-4 5 -12 16 q-11 14 -16 21 l13 9 q14 -18 29 -36 l-14 -10 ZM92 170 q-14 19 -27 33 l14 8 q15 -17 27 -32 l-14 -9 Z" /><glyph glyph-name="" unicode="&#x6052;" d="M104 30 l0 118 l125 0 l0 -118 l-125 0 ZM43 -29 l0 238 l16 0 l0 -238 l-16 0 ZM120 83 l0 -38 l93 0 l0 38 l-93 0 ZM120 134 l0 -37 l93 0 l0 37 l-93 0 ZM81 -18 l0 14 l168 0 l0 -14 l-168 0 ZM89 180 l0 15 l154 0 l0 -15 l-154 0 ZM19 90 l-13 3 q7 27 12 59 l13 -2 q-4 -27 -12 -60 ZM85 122 q-2 3 -7 9 q-5 7 -18 22 l10 9 q14 -14 26 -29 l-11 -11 Z" /><glyph glyph-name="" unicode="&#x606c;" d="M96 176 q-1 8 -3 15 q68 2 141 8 l3 -15 q-2 0 -5 0 q-37 -4 -58 -5 l0 -44 l73 0 l0 -16 l-73 0 l0 -45 l58 0 l0 -103 l-16 0 l0 14 l-100 0 l0 -14 l-16 0 l0 103 l58 0 l0 45 l-70 0 l0 16 l70 0 l0 43 q-29 -2 -62 -2 ZM116 59 l0 -59 l100 0 l0 59 l-100 0 ZM80 137 q-4 4 -11 10 q-7 7 -11 10 l0 -186 l-16 0 l0 238 l16 0 l0 -47 l7 8 q11 -9 25 -21 l-10 -12 ZM20 92 q-6 2 -14 3 q5 20 10 58 q1 3 1 4 l14 -2 q-2 -16 -8 -48 q-2 -10 -3 -15 Z" /><glyph glyph-name="" unicode="&#x606f;" d="M38 61 l0 125 l62 0 q5 15 7 25 l18 -2 q-1 -4 -4 -12 q-3 -7 -4 -11 l98 0 l0 -125 l-177 0 ZM55 136 l0 -24 l143 0 l0 24 l-143 0 ZM55 173 l0 -24 l143 0 l0 24 l-143 0 ZM55 99 l0 -24 l143 0 l0 24 l-143 0 ZM98 -24 q-34 -1 -33 31 l0 36 l17 0 l0 -34 q-2 -19 21 -18 l50 0 q22 0 24 13 q1 3 3 15 q1 6 2 9 q9 -3 16 -6 q-1 -3 -1 -7 q-1 -7 -4 -15 q-6 -25 -37 -24 l-58 0 ZM21 -13 l-15 7 q10 16 21 48 l16 -5 q-1 -2 -3 -7 q-13 -31 -19 -43 ZM237 -2 q-5 5 -13 16 q-11 14 -18 23 l13 8 q16 -19 32 -39 l-14 -8 ZM138 14 q-5 6 -14 16 q-9 10 -14 15 l12 9 q19 -19 29 -30 l-13 -10 Z" /><glyph glyph-name="" unicode="&#x60a6;" d="M94 67 l0 95 l75 0 q14 18 32 47 l16 -7 q-6 -8 -20 -27 q-6 -9 -9 -13 l39 0 l0 -95 l-37 0 l0 -58 q-1 -17 16 -16 l8 0 q15 0 16 11 q3 16 3 30 q8 -3 15 -6 q0 -10 -3 -28 q0 -1 0 -2 q-2 -21 -29 -21 l-14 0 q-29 0 -29 29 l0 61 l-31 0 q0 -12 -1 -20 q-1 -49 -60 -76 l-11 14 q56 21 55 63 q1 9 1 19 l-32 0 ZM111 147 l0 -65 l100 0 l0 65 l-100 0 ZM80 119 q-14 20 -23 32 l0 -180 l-17 0 l0 237 l17 0 l0 -51 l8 7 q17 -21 27 -35 l-12 -10 ZM18 90 l-13 3 q8 38 11 61 l13 -2 q-5 -34 -11 -62 ZM133 164 q-2 3 -9 11 q-13 17 -20 25 l14 8 q20 -22 29 -36 l-14 -8 Z" /><glyph glyph-name="" unicode="&#x60ca;" d="M120 -27 q0 8 -3 16 q13 0 23 0 q17 0 16 11 l0 65 l-56 0 l0 72 l127 0 l0 -72 l-55 0 l0 -65 q1 -27 -26 -27 q-10 0 -26 0 ZM78 126 q-13 15 -23 26 l0 -181 l-16 0 l0 238 l16 0 l0 -50 l6 6 q18 -18 27 -28 l-10 -11 ZM116 122 l0 -43 l95 0 l0 43 l-95 0 ZM83 166 l0 14 l74 0 q-1 4 -3 11 q-1 4 -5 16 l17 3 q5 -15 9 -30 l71 0 l0 -14 l-163 0 ZM85 -16 q-2 1 -6 5 q-5 3 -7 5 q22 20 41 53 l14 -8 q-21 -33 -42 -55 ZM232 -13 q-6 9 -19 25 q-12 17 -19 26 l13 8 q20 -27 39 -50 l-14 -9 ZM18 92 q-6 2 -12 2 q6 29 11 62 l13 -2 q-4 -30 -12 -62 Z" /><glyph glyph-name="" unicode="&#x60e0;" d="M13 176 l0 14 l106 0 l0 20 l17 0 l0 -20 l107 0 l0 -14 l-107 0 l0 -19 l88 0 l0 -74 l-25 0 q7 -6 19 -18 q18 -15 27 -24 l-13 -10 q-9 10 -20 19 q-80 0 -199 -4 l-1 15 q17 0 52 0 q37 1 55 1 l0 21 l-88 0 l0 74 l88 0 l0 19 l-106 0 ZM98 -23 q-32 0 -31 26 l0 31 l16 0 l0 -29 q-1 -14 21 -13 l45 0 q23 -1 25 12 q2 9 3 21 q9 -4 16 -6 q-3 -15 -4 -20 q-5 -22 -36 -22 l-55 0 ZM208 144 l-72 0 l0 -18 l72 0 l0 18 ZM136 114 l0 -19 l72 0 l0 19 l-72 0 ZM47 114 l0 -19 l72 0 l0 19 l-72 0 ZM47 144 l0 -18 l72 0 l0 18 l-72 0 ZM199 63 l-13 13 l9 7 l-59 0 l0 -21 l63 1 ZM21 -16 q-2 2 -8 5 q-4 2 -6 3 q15 20 25 44 l14 -6 q-12 -25 -25 -46 ZM232 -9 q-3 4 -9 11 q-13 17 -19 24 l12 8 q6 -7 17 -20 q9 -11 13 -14 l-14 -9 ZM136 7 q-13 17 -25 28 l11 9 q14 -13 26 -27 l-12 -10 Z" /><glyph glyph-name="" unicode="&#x60f3;" d="M116 65 l0 134 l114 0 l0 -134 l-114 0 ZM12 157 l0 14 l40 0 l0 38 l16 0 l0 -38 l36 0 l0 -14 l-36 0 l0 -26 l7 6 q15 -12 29 -25 l-10 -10 q-3 3 -8 7 q-11 11 -18 16 l0 -65 l-16 0 l0 74 q-12 -32 -37 -59 q-1 3 -4 8 q-2 5 -4 7 q26 27 44 67 l-39 0 ZM104 -23 q-34 0 -34 29 l0 41 l17 0 l0 -38 q-1 -17 22 -16 l42 0 q21 -1 25 16 q2 9 3 21 q4 -2 11 -4 q4 -1 6 -2 q-3 -15 -6 -24 q-7 -24 -35 -23 l-51 0 ZM132 106 l0 -27 l82 0 l0 27 l-82 0 ZM132 186 l0 -28 l82 0 l0 28 l-82 0 ZM132 145 l0 -26 l82 0 l0 26 l-82 0 ZM24 -13 q-7 4 -15 7 q13 21 23 52 l15 -6 q-10 -27 -23 -53 ZM235 -5 q-19 26 -31 43 l13 8 q21 -27 32 -44 l-14 -7 ZM140 15 q-14 18 -29 32 l12 10 q15 -15 30 -31 l-13 -11 Z" /><glyph glyph-name="" unicode="&#x610f;" d="M39 42 l0 76 l176 0 l0 -76 l-176 0 ZM24 174 l0 13 l98 0 q-1 4 -4 11 q-2 7 -4 10 l18 3 l8 -24 l92 0 l0 -13 l-51 0 l11 -4 q-2 -3 -7 -8 q-7 -9 -10 -13 l72 0 l0 -13 l-239 0 l0 13 l72 0 q-2 3 -8 10 q-6 7 -9 10 l10 5 l-49 0 ZM56 75 l0 -20 l142 0 l0 20 l-142 0 ZM56 106 l0 -20 l142 0 l0 20 l-142 0 ZM99 -22 q-32 -1 -31 27 l0 25 l16 0 l0 -22 q-2 -18 20 -16 l47 0 q20 -1 23 12 q1 3 3 12 q1 5 2 8 q8 -3 15 -6 q-2 -12 -5 -19 q-6 -22 -34 -21 l-56 0 ZM97 152 l-7 -3 l66 0 q4 5 12 15 q5 7 7 10 l-96 0 q5 -5 14 -17 q3 -4 4 -5 ZM21 -19 q-9 6 -14 8 q17 19 27 40 l15 -7 q-15 -23 -28 -41 ZM235 -13 q-2 3 -8 11 q-13 18 -19 25 l14 8 q10 -15 28 -36 l-15 -8 ZM137 3 q-15 17 -27 28 l12 9 q18 -16 28 -26 l-13 -11 Z" /><glyph glyph-name="" unicode="&#x611f;" d="M24 41 q-1 1 -4 3 q-6 5 -9 6 q26 34 24 87 l0 40 l122 0 q-2 15 -2 33 l15 0 q0 -6 1 -16 q0 -12 1 -17 l39 0 q-13 12 -23 21 l11 9 q4 -3 12 -10 q9 -8 12 -11 l-11 -9 l35 0 l0 -13 l-74 0 q4 -42 13 -65 q17 19 30 49 l14 -6 q-19 -39 -37 -59 q10 -22 22 -22 q10 0 13 12 q5 13 8 28 q6 -3 14 -6 q0 -1 -1 -4 q-3 -16 -6 -23 q-8 -22 -27 -22 q-20 0 -34 25 q-14 -14 -31 -26 l-10 13 q19 13 34 28 q-13 31 -17 78 l-108 0 l0 -27 q2 -60 -26 -96 ZM67 60 l0 53 l74 0 l0 -53 l-74 0 ZM101 -23 q-35 -2 -33 30 l0 32 l16 0 l0 -29 q-2 -20 23 -18 l42 0 q24 -1 26 12 q0 3 2 9 q2 9 3 15 l15 -6 q0 -2 -1 -7 q-1 -8 -4 -15 q-5 -24 -36 -23 l-53 0 ZM82 101 l0 -28 l44 0 l0 28 l-44 0 ZM61 132 l0 13 l85 0 l0 -13 l-85 0 ZM23 -15 l-15 7 q9 12 25 46 l15 -5 q-7 -15 -21 -40 q-3 -5 -4 -8 ZM234 -11 q-1 2 -4 6 q-7 11 -25 35 l14 7 q6 -8 4 -5 q19 -27 26 -35 l-15 -8 ZM135 11 q-1 1 -2 3 q-15 19 -25 28 l13 9 q5 -5 14 -15 q9 -9 14 -15 l-14 -10 Z" /><glyph glyph-name="" unicode="&#x6210;" d="M214 -27 q-26 -2 -45 43 q-20 -21 -47 -40 q-1 1 -3 3 q-5 6 -9 9 q31 21 53 46 q-13 40 -17 112 l-98 0 l0 -40 l71 0 q0 -29 -3 -68 q0 -37 -33 -37 q-12 0 -23 0 q-1 10 -3 17 q12 -1 23 -1 q19 -1 20 21 q1 13 2 36 q1 11 1 17 l-55 0 q0 -46 -6 -69 q-5 -22 -22 -51 q-2 1 -7 5 q-5 4 -7 6 q17 26 21 48 q5 22 5 74 l0 58 l113 0 q-1 23 -1 48 l16 0 q0 -8 1 -24 q0 -17 1 -24 l85 0 l0 -16 l-84 0 q3 -61 13 -97 q24 34 40 72 l15 -7 q-20 -46 -49 -84 q14 -40 31 -40 q10 -1 15 13 q1 5 4 21 q1 8 2 12 q8 -3 15 -6 q-3 -21 -7 -33 q-8 -24 -28 -24 ZM216 168 q-3 2 -10 7 q-17 13 -26 19 l10 10 q20 -12 37 -25 l-11 -11 Z" /><glyph glyph-name="" unicode="&#x6211;" d="M17 171 q-1 4 -3 12 q-1 3 -1 4 q40 3 100 12 l4 -15 q-11 -2 -39 -6 l0 -42 l66 0 q-2 47 -2 75 l17 0 q0 -29 2 -75 l88 0 l0 -16 l-87 0 q2 -15 3 -29 q3 -25 7 -40 q25 22 46 52 l15 -10 q-34 -42 -56 -60 q5 -10 9 -21 q12 -21 27 -21 q9 0 14 12 q4 20 6 34 q9 -4 16 -7 q-3 -22 -8 -35 q-7 -23 -28 -22 q-24 0 -43 32 q-1 2 -2 6 q-4 7 -5 11 q-21 -18 -60 -35 q-4 6 -10 13 q37 17 64 39 q-4 21 -9 50 q0 5 -1 16 q-1 10 -2 15 l-67 0 l0 -46 l48 9 q0 -6 0 -16 l-48 -8 l0 -56 q1 -26 -26 -27 q-8 -1 -30 -1 q-1 3 -2 10 q-2 5 -2 7 q11 0 27 0 q16 -1 15 13 l0 50 l-50 -9 l-4 16 q14 3 54 9 l0 49 l-54 0 l0 16 l54 0 l0 40 q-32 -4 -43 -5 ZM218 149 q-24 24 -41 37 l12 11 q21 -17 41 -36 l-12 -12 Z" /><glyph glyph-name="" unicode="&#x6216;" d="M10 151 l0 15 l134 0 q-1 26 -1 43 l16 0 q0 -5 0 -17 q1 -17 1 -26 l87 0 l0 -15 l-86 0 l1 -17 q3 -54 14 -88 q23 33 39 75 l16 -6 q-22 -53 -49 -87 q9 -18 19 -28 q9 -9 17 -9 q9 0 12 11 q3 16 5 36 q8 -4 16 -6 q-5 -32 -8 -40 q-6 -20 -23 -20 q-18 0 -32 18 q-10 10 -18 24 q-25 -27 -48 -43 q-5 6 -11 13 q30 21 52 46 q-13 39 -18 102 q0 10 -1 19 l-134 0 ZM27 42 l0 81 l87 0 l0 -81 l-87 0 ZM44 108 l0 -51 l54 0 l0 51 l-54 0 ZM11 -13 l-4 16 q28 3 119 17 q-1 -3 0 -11 q0 -3 0 -5 q-57 -6 -115 -17 ZM216 173 q-16 13 -33 25 l10 10 q18 -11 34 -23 l-11 -12 Z" /><glyph glyph-name="" unicode="&#x6240;" d="M18 -28 q-1 2 -8 8 q-4 3 -5 4 q14 21 18 41 q4 20 4 66 l0 100 q47 4 83 10 l6 -15 q-37 -6 -73 -9 l0 -40 l65 0 l0 -81 l-66 0 q-1 -50 -24 -84 ZM108 -29 q-5 4 -14 12 q24 25 32 51 q8 25 8 77 l0 79 q46 1 104 11 l6 -16 q-51 -7 -94 -10 l0 -56 l100 0 l0 -15 l-37 0 l0 -132 l-16 0 l0 132 l-47 0 q2 -89 -42 -133 ZM92 122 l-49 0 l0 -31 q0 -11 0 -21 l49 0 l0 52 Z" /><glyph glyph-name="" unicode="&#x624b;" d="M25 175 q-1 9 -3 16 q110 2 201 8 l3 -16 q-13 0 -41 -2 q-31 -1 -47 -2 l0 -49 l89 0 l0 -15 l-89 0 l0 -49 l111 0 l0 -16 l-111 0 l0 -44 q1 -31 -34 -31 q-21 0 -39 0 q0 5 -3 13 q-1 3 -1 5 q12 -1 38 -1 q22 -1 21 18 l0 40 l-112 0 l0 16 l112 0 l0 49 l-94 0 l0 15 l94 0 l0 48 q-65 -2 -95 -3 Z" /><glyph glyph-name="" unicode="&#x6253;" d="M10 144 l0 16 l40 0 l0 48 l17 0 l0 -48 l36 0 l0 -16 l-36 0 l0 -54 l39 12 q0 -9 2 -17 q-21 -6 -41 -12 l0 -73 q0 -25 -27 -26 q-9 0 -25 0 q0 2 -2 7 q-1 7 -2 11 q8 -1 24 -1 q16 0 15 12 l0 65 q-21 -6 -41 -12 l-4 17 q4 1 12 3 q9 3 33 10 l0 58 l-40 0 ZM111 173 l0 16 l137 0 l0 -16 l-43 0 l0 -162 q1 -36 -35 -35 q-12 -1 -37 -1 q0 1 -1 4 q-1 9 -3 14 q4 0 15 0 q13 -1 19 -1 q27 -2 25 23 l0 158 l-77 0 Z" /><glyph glyph-name="" unicode="&#x6258;" d="M101 165 q0 3 -2 8 q-1 6 -2 8 q65 7 128 19 l5 -16 q-34 -6 -70 -11 l0 -71 l84 10 l2 -17 l-86 -9 l0 -72 q-1 -20 21 -19 l21 0 q23 -1 25 17 q0 1 0 3 q3 20 3 32 q3 -1 12 -4 q4 -1 6 -2 q-3 -23 -6 -38 q-5 -25 -37 -25 l-28 0 q-36 -2 -34 34 l0 72 l-45 -5 l-3 16 l48 5 l0 70 l-42 -5 ZM11 145 l0 16 l34 0 l0 49 l17 0 l0 -49 l27 0 l0 -16 l-27 0 l0 -55 q12 3 25 6 q0 -9 0 -16 l-25 -6 l0 -71 q1 -28 -26 -28 q-12 0 -23 0 q-1 3 -2 12 q-1 4 -1 6 q11 0 22 0 q14 -1 13 12 l0 65 q-8 -2 -23 -6 q-9 -3 -13 -4 l-2 18 q8 1 26 5 q8 2 12 3 l0 59 l-34 0 Z" /><glyph glyph-name="" unicode="&#x626b;" d="M110 82 l0 16 l108 0 l0 76 l-114 0 l0 16 l131 0 l0 -219 l-17 0 l0 14 l-125 0 l0 15 l125 0 l0 82 l-108 0 ZM9 145 l0 15 l34 0 l0 48 l17 0 l0 -48 l33 0 l0 -15 l-33 0 l0 -53 q6 2 17 5 q12 4 17 5 q0 -8 0 -17 q-4 -1 -11 -3 q-15 -4 -23 -7 l0 -73 q2 -27 -26 -27 q-13 0 -22 0 q-1 3 -2 12 q-1 4 -1 6 q11 -1 21 -1 q13 -1 13 13 l0 65 l-35 -11 l-2 19 q16 3 37 9 l0 58 l-34 0 Z" /><glyph glyph-name="" unicode="&#x6295;" d="M240 -27 q-46 13 -77 33 q-31 -20 -78 -35 q-4 7 -9 15 q44 12 74 30 q-27 25 -40 66 l-10 0 l0 15 l125 0 l0 -15 q-18 -39 -49 -66 q24 -16 73 -27 q-1 -3 -4 -8 q-3 -6 -5 -8 ZM9 145 l0 16 l32 0 l0 47 l16 0 l0 -47 l30 0 l0 -16 l-30 0 l0 -53 l27 8 q0 -8 0 -16 l-27 -8 l0 -74 q1 -28 -25 -28 q-4 0 -11 -1 q-6 0 -8 0 q0 2 -1 6 q-1 9 -2 12 q4 0 17 0 q15 -1 14 13 l0 67 q-16 -5 -33 -11 l-2 18 q2 1 7 2 q10 2 28 8 l0 57 l-32 0 ZM100 106 q-2 3 -7 9 q-3 4 -4 5 q34 19 31 56 l0 22 l90 0 l0 -47 q-1 -18 16 -17 l22 0 q-1 -3 -2 -10 q-1 -3 -1 -5 l-24 0 q-28 -1 -27 27 l0 38 l-58 0 l0 -11 q2 -41 -36 -67 ZM207 82 l-82 0 q14 -34 39 -56 q28 24 43 56 Z" /><glyph glyph-name="" unicode="&#x62c5;" d="M107 39 l0 156 l124 0 l0 -156 l-124 0 ZM9 147 l0 15 l34 0 l0 47 l16 0 l0 -47 l32 0 l0 -15 l-32 0 l0 -58 q17 3 32 8 q0 -10 0 -16 l-32 -9 l0 -71 q1 -27 -28 -27 q-9 0 -16 0 l-2 18 q7 -1 14 -1 q16 -1 16 13 l0 64 l-34 -10 l-2 18 l36 8 l0 63 l-34 0 ZM123 110 l0 -56 l92 0 l0 56 l-92 0 ZM123 180 l0 -55 l92 0 l0 55 l-92 0 ZM81 -17 l0 16 l166 0 l0 -16 l-166 0 Z" /><glyph glyph-name="" unicode="&#x62e5;" d="M154 -18 l0 68 l-48 0 q-2 -47 -25 -79 q-1 1 -2 2 q-4 3 -12 8 q15 22 20 45 q5 24 5 74 l0 97 l143 0 l0 -196 q1 -27 -27 -27 q-12 0 -22 0 q0 3 -2 11 q-1 3 -1 5 q11 -1 21 -1 q16 -1 15 14 l0 47 l-49 0 l0 -68 l-16 0 ZM9 145 l0 14 l28 0 l0 49 l16 0 l0 -49 l26 0 l0 -14 l-26 0 l0 -53 q6 1 18 6 q5 1 7 2 q0 -9 0 -17 l-25 -7 l0 -76 q1 -26 -24 -26 q-9 0 -19 0 q0 2 -1 8 q-1 5 -2 8 q9 0 19 0 q12 -1 11 11 l0 70 l-29 -9 l-2 17 l31 8 l0 58 l-28 0 ZM170 116 l0 -51 l49 0 l0 51 l-49 0 ZM219 182 l-49 0 l0 -51 l49 0 l0 51 ZM108 99 q0 -7 -1 -19 q0 -10 0 -15 l47 0 l0 51 l-46 0 l0 -17 ZM108 182 l0 -51 l46 0 l0 51 l-46 0 Z" /><glyph glyph-name="" unicode="&#x62e9;" d="M241 99 q-44 8 -73 24 q-28 -15 -74 -27 q-1 4 -5 12 q-1 3 -2 4 q40 9 65 20 q-27 19 -44 51 l-16 0 l0 14 l141 0 l0 -15 q-21 -31 -49 -50 q20 -10 64 -18 q-4 -7 -7 -15 ZM94 60 l0 15 l65 0 l0 27 l16 0 l0 -27 l63 0 l0 -15 l-63 0 l0 -33 l74 0 l0 -14 l-74 0 l0 -41 l-16 0 l0 41 l-79 0 l0 14 l79 0 l0 33 l-65 0 ZM8 147 l0 15 l32 0 l0 47 l16 0 l0 -47 l31 0 l0 -15 l-31 0 l0 -57 l28 8 q0 -7 1 -16 l-29 -8 l0 -74 q2 -26 -25 -26 q-7 -1 -21 -1 q-1 13 -3 17 q12 0 20 0 q14 0 13 11 l0 68 l-32 -10 l-1 19 q9 2 33 8 l0 61 l-32 0 ZM214 183 l-89 0 q17 -27 43 -42 q24 13 46 42 Z" /><glyph glyph-name="" unicode="&#x6301;" d="M9 143 l0 15 l33 0 l0 52 l16 0 l0 -52 l29 0 l0 -15 l-29 0 l0 -53 q15 3 29 7 q0 -9 0 -17 l-29 -7 l0 -73 q1 -25 -24 -26 q-15 0 -21 0 q-1 9 -3 18 q10 0 19 0 q14 -1 13 11 l0 67 q-4 -1 -13 -3 q-13 -4 -20 -6 l-3 18 l36 7 l0 57 l-33 0 ZM102 162 l0 14 l59 0 l0 34 l17 0 l0 -34 l60 0 l0 -14 l-60 0 l0 -38 l71 0 l0 -15 l-158 0 l0 15 l70 0 l0 38 l-59 0 ZM91 60 l0 15 l103 0 l0 22 l17 0 l0 -22 l38 0 l0 -15 l-38 0 l0 -57 q1 -29 -33 -28 q-13 -1 -33 -1 q0 4 -2 12 q-1 4 -1 6 q12 -1 32 -1 q22 -2 20 17 l0 52 l-103 0 ZM137 5 q-13 15 -34 35 l12 10 q27 -25 35 -34 l-13 -11 Z" /><glyph glyph-name="" unicode="&#x63a2;" d="M88 74 l0 15 l69 0 l0 33 l16 0 l0 -33 l74 0 l0 -15 l-66 0 q25 -46 71 -68 q-2 -3 -5 -7 q-4 -4 -6 -7 q-45 27 -68 71 l0 -92 l-16 0 l0 92 q-27 -48 -75 -74 q-4 8 -10 13 q49 26 77 72 l-61 0 ZM9 143 l0 15 l29 0 l0 51 l17 0 l0 -51 l23 0 l0 -15 l-23 0 l0 -52 l23 7 q0 -9 1 -16 q-12 -3 -24 -8 l0 -74 q1 -26 -25 -25 q-12 -1 -19 -1 q-1 8 -3 17 q2 0 8 0 q7 -1 10 -1 q13 -1 12 11 l0 69 q-4 -1 -11 -4 q-12 -4 -18 -6 l-3 17 q15 5 32 9 l0 57 l-29 0 ZM91 151 l0 42 l148 0 l0 -42 l-15 0 l0 28 l-117 0 l0 -28 l-16 0 ZM104 101 q-2 4 -8 9 q-2 2 -3 3 q25 21 46 47 l13 -10 q-18 -21 -48 -49 ZM226 106 q-24 24 -49 44 l11 11 q3 -3 9 -8 q27 -21 41 -35 l-12 -12 Z" /><glyph glyph-name="" unicode="&#x63a8;" d="M98 -29 l0 154 q-7 -10 -17 -22 q-1 3 -7 10 q-2 3 -3 4 q33 37 54 93 l16 -5 q-9 -22 -19 -40 l124 0 l0 -15 l-59 0 l0 -40 l56 0 l0 -14 l-56 0 l0 -39 l56 0 l0 -15 l-56 0 l0 -40 l61 0 l0 -13 l-133 0 l0 -18 l-17 0 ZM9 143 l0 15 l30 0 l0 51 l16 0 l0 -51 l26 0 l0 -15 l-26 0 l0 -54 l27 8 q0 -9 0 -16 q-4 -1 -13 -4 q-9 -2 -14 -4 l0 -74 q1 -25 -23 -25 q-9 0 -21 0 q0 8 -3 17 q4 0 10 -1 q6 0 9 0 q12 0 12 10 l0 68 l-30 -10 l-3 17 l33 9 l0 59 l-30 0 ZM115 42 l0 -40 l56 0 l0 40 l-56 0 ZM115 150 l0 -40 l56 0 l0 40 l-56 0 ZM115 96 l0 -39 l56 0 l0 39 l-56 0 ZM182 166 q-6 11 -21 36 l15 7 q2 -4 7 -12 q10 -17 14 -24 l-15 -7 Z" /><glyph glyph-name="" unicode="&#x63cf;" d="M92 -29 l0 150 l145 0 l0 -150 l-16 0 l0 16 l-113 0 l0 -16 l-16 0 ZM8 148 l0 15 l29 0 l0 46 l16 0 l0 -46 l24 0 l0 -15 l-24 0 l0 -55 q11 5 24 9 q0 -9 0 -17 l-24 -8 l0 -77 q1 -26 -23 -26 q-6 -1 -20 -1 q0 8 -3 17 q11 -1 19 -1 q12 0 11 11 l0 71 q-15 -4 -29 -10 l-2 18 q15 5 31 9 l0 60 l-29 0 ZM189 134 l0 29 l-49 0 l0 -29 l-16 0 l0 29 l-39 0 l0 15 l39 0 l0 31 l16 0 l0 -31 l49 0 l0 31 l16 0 l0 -31 l44 0 l0 -15 l-44 0 l0 -29 l-16 0 ZM172 46 l0 -46 l49 0 l0 46 l-49 0 ZM108 46 l0 -46 l48 0 l0 46 l-48 0 ZM221 106 l-49 0 l0 -46 l49 0 l0 46 ZM108 106 l0 -46 l48 0 l0 46 l-48 0 Z" /><glyph glyph-name="" unicode="&#x63d0;" d="M101 110 l0 88 l125 0 l0 -88 l-125 0 ZM80 73 l0 14 l167 0 l0 -14 l-74 0 l0 -31 l64 0 l0 -13 l-64 0 l0 -34 l4 0 q19 -1 73 -1 q-3 -8 -5 -15 q-39 0 -74 1 q-46 1 -63 35 q-10 -23 -30 -44 q-1 1 -4 3 q-2 2 -9 7 q34 28 37 80 l16 -2 q-1 -4 -2 -11 q-2 -10 -3 -14 q16 -35 44 -38 l0 77 l-77 0 ZM9 143 l0 15 l31 0 l0 51 l16 0 l0 -51 l27 0 l0 -15 l-27 0 l0 -46 l25 11 q0 -2 0 -8 q1 -6 1 -9 l-26 -11 l0 -79 q2 -26 -24 -27 q-6 -1 -18 -1 q-1 11 -3 17 q6 0 17 0 q12 -1 12 13 l0 70 l-32 -15 l-2 18 q8 3 23 10 q7 3 11 4 l0 53 l-31 0 ZM117 147 l0 -24 l93 0 l0 24 l-93 0 ZM117 185 l0 -25 l93 0 l0 25 l-93 0 Z" /><glyph glyph-name="" unicode="&#x63d2;" d="M187 37 l0 13 l36 0 l0 38 l-37 0 l0 14 l53 0 l0 -131 l-16 0 l0 13 l-117 0 l0 -14 l-15 0 l0 129 q26 3 48 11 l7 -14 q-18 -5 -40 -9 l0 -37 l37 0 l0 -13 l-37 0 l0 -39 l50 0 l0 134 l-71 0 l0 14 l71 0 l0 33 q-13 -1 -42 -2 q-14 -1 -21 -1 l-3 15 q75 2 148 8 l3 -14 q-11 -1 -39 -3 q-20 -1 -30 -2 l0 -34 l78 0 l0 -14 l-78 0 l0 -134 l51 0 l0 39 l-36 0 ZM10 149 l0 15 l28 0 l0 45 l16 0 l0 -45 l24 0 l0 -15 l-24 0 l0 -56 l24 8 q0 -2 0 -7 q1 -6 1 -10 q-12 -3 -25 -8 l0 -75 q2 -26 -23 -27 q-9 -1 -17 -1 q-1 11 -3 17 q5 0 15 0 q13 -1 12 13 l0 68 q-4 -2 -12 -5 q-11 -4 -17 -7 l-3 18 q6 2 16 5 q11 4 16 5 l0 62 l-28 0 Z" /><glyph glyph-name="" unicode="&#x641c;" d="M188 135 l0 13 l31 0 l0 31 l-35 0 l0 14 l50 0 l0 -102 l-63 0 l0 -26 l55 0 l0 -15 q-19 -27 -47 -45 q27 -10 71 -16 l-7 -15 q-49 7 -79 24 q-35 -18 -86 -27 q-1 2 -3 6 q-2 6 -4 9 q37 5 77 19 q-22 16 -42 47 l-16 0 l0 13 l66 0 l0 26 l-64 0 l0 97 q17 2 44 12 l8 -13 q-17 -5 -36 -9 l0 -30 l34 0 l0 -13 l-34 0 l0 -31 l48 0 l0 106 l15 0 l0 -106 l48 0 l0 31 l-31 0 ZM8 147 l0 15 l29 0 l0 48 l16 0 l0 -48 l25 0 l0 -15 l-25 0 l0 -54 l25 10 q0 -4 1 -10 q0 -5 0 -7 q-6 -2 -26 -10 l0 -78 q1 -25 -23 -25 q-2 0 -8 0 q-6 -1 -9 -1 q0 1 0 2 q-1 6 -4 14 q7 0 16 0 q13 -1 12 11 l0 72 l-29 -12 l-2 18 q16 5 31 11 l0 59 l-29 0 ZM208 52 l-84 0 q18 -26 40 -39 q27 17 44 39 Z" /><glyph glyph-name="" unicode="&#x642d;" d="M97 -29 l0 82 l128 0 l0 -82 l-16 0 l0 13 l-96 0 l0 -13 l-16 0 ZM9 147 l0 15 l28 0 l0 47 l16 0 l0 -47 l26 0 l0 -15 l-26 0 l0 -45 q14 6 27 12 q0 -9 1 -17 l-28 -12 l0 -85 q1 -24 -23 -25 q-4 -1 -21 -1 q-1 9 -3 16 q7 0 19 0 q13 -1 12 11 l0 77 q-13 -6 -28 -13 l-3 18 q15 6 31 12 l0 52 l-28 0 ZM113 39 l0 -41 l96 0 l0 41 l-96 0 ZM86 168 l0 15 l34 0 l0 26 l15 0 l0 -26 l55 0 l0 26 l16 0 l0 -26 l38 0 l0 -15 l-38 0 l0 -23 l-16 0 l0 23 l-55 0 l0 -23 l-15 0 l0 23 l-34 0 ZM239 70 q-50 27 -77 63 q-30 -36 -78 -66 q-5 8 -11 14 q55 28 86 73 l17 -3 q-1 -1 -3 -3 q-2 -3 -3 -4 q33 -40 79 -59 q-7 -8 -10 -15 ZM119 78 l0 13 l84 0 l0 -13 l-84 0 Z" /><glyph glyph-name="" unicode="&#x6469;" d="M60 42 l0 11 l77 0 l0 18 q-13 0 -40 -1 q-24 0 -36 0 l-2 12 q84 0 162 6 l2 -12 q-32 -3 -70 -4 l0 -19 l76 0 l0 -11 l-76 0 l0 -19 l93 0 l0 -13 l-93 0 l0 -8 q1 -26 -29 -27 q-13 0 -27 0 q0 8 -2 14 q3 0 10 0 q9 -1 14 -1 q19 -1 18 16 l0 6 l-90 0 l0 13 l90 0 l0 19 l-77 0 ZM18 -29 q-2 2 -7 6 q-3 3 -5 5 q14 24 18 47 q4 23 4 69 l0 89 l106 0 q-1 3 -3 11 q-2 7 -3 10 l17 3 q1 -7 4 -16 q1 -5 2 -8 l96 0 l0 -13 l-204 0 l0 -70 q0 -56 -5 -81 q-5 -26 -20 -52 ZM149 138 l0 12 l32 0 l0 15 l13 0 l0 -15 l43 0 l0 -12 l-42 0 q17 -22 46 -34 q-6 -6 -9 -12 q-25 16 -38 33 l0 -28 l-13 0 l0 28 q-13 -18 -38 -34 q-6 8 -10 11 q28 13 47 36 l-31 0 ZM54 138 l0 12 l40 0 l0 15 l13 0 l0 -15 l29 0 l0 -12 l-29 0 l0 -16 l7 8 q2 -2 8 -6 q12 -8 16 -11 l-9 -9 l-22 16 l0 -26 l-13 0 l0 33 q-13 -20 -38 -35 q-5 6 -10 11 q30 15 45 35 l-37 0 Z" /><glyph glyph-name="" unicode="&#x652f;" d="M237 -27 q-78 17 -109 37 q-41 -24 -110 -41 q-3 8 -9 17 q70 14 104 34 q-37 31 -58 84 l-23 0 l0 15 l89 0 l0 41 l-112 0 l0 15 l112 0 l0 35 l17 0 l0 -35 l108 0 l0 -15 l-108 0 l0 -41 l70 0 l0 -16 q-23 -51 -65 -83 q29 -19 104 -30 q-1 -1 -2 -3 q-5 -8 -8 -14 ZM189 104 l-116 0 q22 -52 55 -74 q39 25 61 74 Z" /><glyph glyph-name="" unicode="&#x6545;" d="M238 -29 q-40 27 -57 47 q-19 -23 -60 -49 q-2 3 -8 10 q-3 3 -4 5 q43 26 61 48 q-21 33 -30 89 q-8 -15 -17 -29 q-1 1 -4 4 q-5 7 -8 9 q30 42 48 106 l17 -2 q-7 -24 -16 -45 l88 0 l0 -16 l-21 0 q-8 -78 -36 -116 q20 -24 59 -45 q-8 -8 -12 -16 ZM7 145 l0 15 l50 0 l0 50 l16 0 l0 -50 l49 0 l0 -15 l-49 0 l0 -54 l41 0 l0 -94 l-81 0 l0 -16 l-16 0 l0 110 l40 0 l0 54 l-50 0 ZM33 76 l0 -66 l64 0 l0 66 l-64 0 ZM181 47 q22 34 29 101 l-57 0 q0 -2 -1 -2 q7 -65 29 -99 Z" /><glyph glyph-name="" unicode="&#x6548;" d="M126 -30 l-12 13 q41 26 62 53 q-19 29 -28 82 l-10 -16 q-5 8 -11 13 q27 41 40 95 l16 -3 q-6 -23 -14 -44 l77 0 l0 -15 l-19 0 q-8 -74 -32 -113 q18 -26 54 -47 q-5 -7 -10 -15 q-35 24 -54 48 q-16 -22 -59 -51 ZM110 -7 q-6 6 -17 17 q-11 11 -16 16 q-19 -26 -62 -55 q-5 8 -10 15 q41 24 61 52 q-19 20 -37 39 l12 10 q8 -9 24 -24 q7 -7 11 -11 q12 18 22 41 l15 -6 q-1 -2 -3 -7 q-14 -28 -23 -40 q18 -18 36 -36 l-13 -11 ZM185 51 q20 33 26 97 l-48 0 l-4 -8 q9 -58 26 -89 ZM13 156 l0 15 l60 0 q-3 6 -12 23 q-3 8 -5 11 l15 6 q3 -4 9 -17 q6 -12 9 -18 l-13 -5 l57 0 l0 -15 l-120 0 ZM19 83 l-11 11 q19 17 41 48 l13 -9 q-18 -26 -43 -50 ZM120 89 q-11 16 -39 45 l12 9 q28 -30 39 -44 l-12 -10 Z" /><glyph glyph-name="" unicode="&#x6570;" d="M140 97 q-4 6 -12 12 q29 43 43 103 l16 -2 q-6 -23 -14 -44 l74 0 l0 -15 l-20 0 q-8 -81 -31 -117 q19 -27 52 -47 q-1 -1 -2 -3 q-6 -8 -8 -11 q-33 23 -51 46 q-14 -20 -53 -49 q-1 1 -5 6 q-5 5 -7 7 q37 25 55 51 q-20 34 -25 85 q-6 -12 -12 -22 ZM15 -29 q-1 2 -4 7 q-3 6 -4 8 q42 11 65 22 q-7 3 -21 10 q-18 8 -27 12 q1 2 4 6 q4 5 13 18 l-32 0 l0 14 l40 0 q7 9 11 18 l16 -4 q-4 -8 -9 -14 l59 0 l0 -14 q-7 -26 -26 -43 l27 -11 l-9 -13 q-15 9 -31 14 q-28 -19 -72 -30 ZM12 140 l0 13 l57 0 l0 55 l15 0 l0 -55 l51 0 l0 -13 l-51 0 l0 -21 l7 7 q23 -13 39 -25 l-9 -12 q-8 7 -37 26 l0 -24 l-15 0 l0 35 q-19 -24 -52 -41 q-2 3 -7 11 q-2 1 -2 2 q36 15 58 42 l-54 0 ZM163 141 q7 -61 24 -92 q19 32 24 102 l-44 0 l-4 -10 ZM45 35 q11 -5 34 -14 q4 -2 7 -3 q18 16 23 36 l-51 0 q-3 -4 -8 -11 q-4 -6 -5 -8 ZM105 160 l-10 9 q12 12 29 29 l11 -8 q-2 -2 -9 -9 q-16 -17 -21 -21 ZM45 160 q-3 4 -17 19 q-7 8 -10 11 l10 8 q24 -21 29 -29 l-12 -9 Z" /><glyph glyph-name="" unicode="&#x6574;" d="M12 180 l0 13 l55 0 l0 17 l14 0 l0 -17 l53 0 l0 -13 l-53 0 l0 -17 l46 0 l0 -46 l-46 0 l0 -15 l6 8 q28 -12 42 -19 l-7 -12 q-4 2 -10 5 q-10 6 -31 15 l0 -25 l-14 0 l0 33 q-20 -23 -53 -36 q-4 6 -8 12 q36 13 57 34 l-41 0 l0 46 l45 0 l0 17 l-55 0 ZM18 51 l0 13 l220 0 l0 -13 l-100 0 l0 -24 l82 0 l0 -13 l-82 0 l0 -21 l111 0 l0 -14 l-241 0 l0 14 l44 0 l0 42 l15 0 l0 -42 l55 0 l0 58 l-104 0 ZM141 74 q-3 6 -8 14 q30 9 47 23 q-14 17 -23 42 q-4 -6 -13 -18 q-2 -3 -3 -5 q-1 2 -5 5 q-4 4 -6 5 q25 31 37 71 l15 -4 q-4 -12 -10 -24 l74 0 l0 -13 l-14 0 q-12 -42 -30 -59 q15 -12 47 -21 q-6 -7 -8 -15 q-31 12 -50 25 q-17 -14 -50 -26 ZM191 121 q18 17 26 49 l-51 0 q0 -1 0 -1 q9 -32 25 -48 ZM113 152 l-32 0 l0 -24 l32 0 l0 24 ZM35 152 l0 -24 l32 0 l0 24 l-32 0 Z" /><glyph glyph-name="" unicode="&#x6587;" d="M10 152 l0 16 l120 0 q-13 26 -20 37 l17 5 q11 -16 20 -37 l-14 -5 l112 0 l0 -16 l-45 0 q-15 -74 -58 -115 q36 -28 104 -44 q-1 -3 -4 -7 q-4 -7 -6 -11 q-75 23 -108 50 q-36 -26 -108 -52 q0 1 -1 2 q-6 11 -10 15 q69 19 105 47 q-45 45 -59 115 l-45 0 ZM128 48 q44 40 54 104 l-109 0 q11 -62 55 -104 Z" /><glyph glyph-name="" unicode="&#x65b0;" d="M200 -28 l0 128 l-39 0 l0 -7 q2 -80 -32 -120 q0 0 -1 1 q-5 4 -14 9 q33 34 31 111 l0 96 q58 3 92 9 l5 -15 q-46 -7 -81 -9 l0 -60 l88 0 l0 -15 l-33 0 l0 -128 l-16 0 ZM13 64 l0 14 l50 0 l0 26 l16 0 l0 -26 l47 0 l0 -14 l-47 0 l0 -62 q1 -26 -26 -27 q-9 0 -22 0 q0 2 -1 8 q-1 5 -2 8 q3 0 10 -1 q7 0 10 0 q15 0 15 14 l0 60 l-50 0 ZM7 110 l0 14 l71 0 q12 20 22 39 l14 -6 q-9 -18 -20 -33 l38 0 l0 -14 l-125 0 ZM14 168 l0 14 l52 0 q-2 5 -6 16 q-3 7 -4 10 l16 3 q6 -14 11 -29 l43 0 l0 -14 l-112 0 ZM20 -3 l-13 5 q13 21 24 48 l14 -6 q-13 -29 -25 -47 ZM113 7 q-3 4 -8 13 q-10 16 -16 24 l12 7 q16 -21 25 -36 l-13 -8 ZM46 125 q-3 4 -8 13 q-8 13 -12 19 l13 6 q11 -16 20 -31 l-13 -7 Z" /><glyph glyph-name="" unicode="&#x65b9;" d="M10 152 l0 16 l119 0 q-8 22 -16 38 l18 4 q4 -9 12 -27 q3 -8 4 -11 l-14 -4 l113 0 l0 -16 l-151 0 q0 -24 -2 -46 l120 0 q-2 -58 -5 -84 q-1 -45 -51 -44 q-22 0 -39 0 q-1 4 -2 11 q-2 5 -2 7 q18 0 41 0 q35 -3 36 29 q2 15 4 56 q0 6 0 9 l-103 0 q-4 -77 -72 -120 q-7 7 -13 13 q67 41 68 116 q3 26 3 53 l-68 0 Z" /><glyph glyph-name="" unicode="&#x65d7;" d="M103 125 l0 13 l23 0 l0 19 l16 0 l0 -19 l63 0 l0 19 l15 0 l0 -19 l23 0 l0 -13 l-23 0 l0 -92 l28 0 l0 -14 l-147 0 l0 14 l25 0 l0 92 l-23 0 ZM9 156 l0 14 l83 0 l0 -14 l-45 0 l0 -40 l43 0 q-2 -65 -3 -102 q0 -35 -29 -34 q-9 -1 -19 -1 q0 3 -2 9 q-1 5 -1 7 q8 0 17 0 q18 -2 18 19 q3 33 3 88 l-28 0 q0 -9 0 -15 q-2 -77 -29 -113 q-6 6 -13 11 q25 33 26 102 q1 12 1 35 q1 21 1 34 l-23 0 ZM109 145 l-12 10 q23 27 35 56 l16 -4 l-11 -21 l110 0 l0 -13 l-118 0 q-7 -12 -20 -28 ZM142 125 l0 -22 l63 0 l0 22 l-63 0 ZM142 55 l0 -22 l63 0 l0 22 l-63 0 ZM142 90 l0 -22 l63 0 l0 22 l-63 0 ZM110 -30 q-1 2 -4 6 q-3 5 -5 7 q27 13 50 30 l11 -10 q-32 -21 -52 -33 ZM237 -29 q-31 23 -49 32 l9 11 q9 -5 25 -15 q16 -10 24 -15 l-9 -13 ZM53 171 q-1 4 -4 11 q-6 16 -10 25 l15 4 q3 -6 7 -17 q5 -12 7 -18 l-15 -5 Z" /><glyph glyph-name="" unicode="&#x65e0;" d="M29 176 l0 16 l198 0 l0 -16 l-93 0 q-1 -42 -6 -61 l118 0 l0 -17 l-96 0 l0 -83 q-2 -20 23 -19 l31 0 q22 -1 24 18 q1 8 3 30 q9 -4 17 -6 q-1 -6 -2 -16 q-1 -11 -2 -17 q-3 -26 -38 -25 l-39 0 q-35 -1 -34 32 l0 86 l-8 0 q-16 -81 -104 -128 l-13 14 q85 44 99 114 l-97 0 l0 17 l101 0 q5 27 6 61 l-88 0 Z" /><glyph glyph-name="" unicode="&#x65e5;" d="M40 -27 l0 221 l175 0 l0 -221 l-17 0 l0 18 l-140 0 l0 -18 l-18 0 ZM58 85 l0 -80 l140 0 l0 80 l-140 0 ZM58 178 l0 -77 l140 0 l0 77 l-140 0 Z" /><glyph glyph-name="" unicode="&#x65e8;" d="M38 -29 l0 119 l180 0 l0 -119 l-17 0 l0 13 l-146 0 l0 -13 l-17 0 ZM65 115 q-34 -1 -33 32 l0 62 l17 0 l0 -40 q91 12 168 27 l5 -14 q-55 -11 -161 -26 q-8 -1 -12 -2 l0 -4 q-1 -21 21 -20 l124 0 q22 -1 25 16 q3 12 5 26 q7 -3 16 -5 q-2 -13 -6 -30 q-5 -23 -38 -22 l-131 0 ZM55 29 l0 -31 l146 0 l0 31 l-146 0 ZM55 76 l0 -33 l146 0 l0 33 l-146 0 Z" /><glyph glyph-name="" unicode="&#x65f6;" d="M16 -14 l0 202 l82 0 l0 -199 l-16 0 l0 19 l-50 0 l0 -22 l-16 0 ZM112 140 l0 16 l87 0 l0 54 l17 0 l0 -54 l33 0 l0 -16 l-33 0 l0 -132 q0 -32 -34 -33 q-17 0 -37 0 q-2 9 -4 18 q15 -1 36 -1 q23 -1 22 20 l0 128 l-87 0 ZM32 91 l0 -68 l50 0 l0 68 l-50 0 ZM32 173 l0 -68 l50 0 l0 68 l-50 0 ZM150 50 q-16 31 -29 54 l13 8 q16 -27 31 -54 l-15 -8 Z" /><glyph glyph-name="" unicode="&#x661f;" d="M38 107 l0 92 l185 0 l0 -92 l-185 0 ZM22 25 q-9 9 -13 11 q29 27 46 62 l16 -4 q-1 -3 -4 -8 q-3 -6 -5 -9 l63 0 l0 22 l17 0 l0 -22 l94 0 l0 -13 l-94 0 l0 -28 l87 0 l0 -14 l-87 0 l0 -27 l105 0 l0 -14 l-234 0 l0 14 l112 0 l0 27 l-79 0 l0 14 l79 0 l0 28 l-71 0 q-12 -20 -32 -39 ZM54 146 l0 -25 l152 0 l0 25 l-152 0 ZM54 185 l0 -25 l152 0 l0 25 l-152 0 Z" /><glyph glyph-name="" unicode="&#x662f;" d="M44 109 l0 90 l167 0 l0 -90 l-167 0 ZM10 71 l0 14 l236 0 l0 -14 l-106 0 l0 -30 l89 0 l0 -13 l-89 0 l0 -31 q2 0 3 0 q34 -1 106 -1 q-3 -7 -5 -16 q-71 0 -101 1 q-60 1 -84 40 q-10 -27 -42 -51 q-8 8 -11 12 q42 27 48 80 l16 -3 q-2 -12 -5 -21 q21 -38 59 -40 l0 73 l-114 0 ZM61 148 l0 -25 l134 0 l0 25 l-134 0 ZM61 185 l0 -25 l134 0 l0 25 l-134 0 Z" /><glyph glyph-name="" unicode="&#x666f;" d="M33 128 l0 71 l190 0 l0 -71 l-190 0 ZM40 29 l0 47 l177 0 l0 -47 l-77 0 l0 -29 q1 -25 -26 -26 q-9 0 -25 0 q0 1 0 2 q-1 6 -4 14 q13 0 23 0 q17 0 16 11 l0 28 l-84 0 ZM8 94 l0 13 l115 0 q-1 1 -2 5 q-3 8 -5 12 l17 3 l7 -20 l108 0 l0 -13 l-240 0 ZM56 64 l0 -23 l145 0 l0 23 l-145 0 ZM49 158 l0 -19 l158 0 l0 19 l-158 0 ZM49 188 l0 -19 l158 0 l0 19 l-158 0 ZM16 -26 q-3 8 -8 14 q42 14 76 31 l9 -12 q-29 -13 -77 -33 ZM239 -22 q-48 20 -76 28 l8 12 q45 -17 76 -26 l-8 -14 Z" /><glyph glyph-name="" unicode="&#x6676;" d="M41 106 l0 92 l171 0 l0 -92 l-171 0 ZM143 -28 l0 112 l94 0 l0 -112 l-15 0 l0 13 l-64 0 l0 -13 l-15 0 ZM18 -28 l0 112 l94 0 l0 -112 l-15 0 l0 13 l-63 0 l0 -13 l-16 0 ZM58 145 l0 -25 l137 0 l0 25 l-137 0 ZM58 184 l0 -25 l137 0 l0 25 l-137 0 ZM158 71 l0 -31 l64 0 l0 31 l-64 0 ZM158 27 l0 -29 l64 0 l0 29 l-64 0 ZM34 27 l0 -29 l63 0 l0 29 l-63 0 ZM34 71 l0 -31 l63 0 l0 31 l-63 0 Z" /><glyph glyph-name="" unicode="&#x6691;" d="M38 105 l0 12 l73 0 l0 14 l16 0 l0 -14 l57 0 l0 -12 l-57 0 l0 -19 l25 0 q39 18 75 41 l10 -11 q-27 -16 -54 -30 l65 0 l0 -12 l-90 0 q-23 -10 -47 -21 l104 0 l0 -82 l-16 0 l0 9 l-126 0 l0 -9 l-16 0 l0 63 q-8 -3 -26 -9 q-11 -3 -17 -5 q-1 3 -3 8 q-2 4 -3 7 q62 15 117 39 l-113 0 l0 12 l99 0 l0 19 l-73 0 ZM38 136 l0 65 l179 0 l0 -65 l-179 0 ZM73 10 l0 -18 l126 0 l0 18 l-126 0 ZM199 42 l-119 0 l-7 -3 l0 -18 l126 0 l0 21 ZM54 164 l0 -17 l147 0 l0 17 l-147 0 ZM54 189 l0 -15 l147 0 l0 15 l-147 0 Z" /><glyph glyph-name="" unicode="&#x66f4;" d="M206 43 l0 12 l-73 0 q-5 -28 -20 -45 q41 -14 135 -16 q-2 -3 -5 -10 q-2 -5 -3 -7 q-101 5 -140 23 q-19 -16 -82 -30 q-4 7 -9 15 q55 11 75 21 q-22 13 -43 34 l12 9 q22 -20 44 -32 q15 15 19 38 l-82 0 l0 102 l87 0 l0 27 l-106 0 l0 14 l225 0 l0 -14 l-103 0 q0 -12 0 -27 l85 0 l0 -114 l-16 0 ZM50 143 l0 -30 l70 0 q0 15 0 30 l-70 0 ZM136 100 q0 -5 -1 -15 q0 -11 -1 -15 l72 0 l0 30 l-70 0 ZM118 70 q2 12 2 30 l-70 0 l0 -30 l68 0 ZM206 143 l-69 0 l-1 -30 l70 0 l0 30 Z" /><glyph glyph-name="" unicode="&#x66ff;" d="M40 -29 l0 108 l175 0 l0 -108 l-17 0 l0 14 l-141 0 l0 -14 l-17 0 ZM114 88 q-8 8 -33 28 q-4 3 -6 5 q-9 -26 -58 -49 q-4 8 -10 14 q51 21 56 47 l-53 0 l0 13 l56 0 q2 11 2 23 l-52 0 l0 14 l52 0 l0 27 l15 0 l0 -27 l37 0 l0 -14 l-37 0 q0 -12 -2 -23 l40 0 l0 -13 l-41 0 q8 -6 32 -23 q9 -7 12 -9 l-10 -13 ZM239 77 q-42 16 -56 49 q-11 -25 -47 -38 q-1 1 -3 4 q-4 6 -6 8 q37 15 43 33 l-37 0 l0 13 l41 0 q1 11 1 23 l-40 0 l0 14 l40 0 l0 27 l16 0 l-1 -27 l49 0 l0 -14 l-49 0 q0 -12 -2 -23 l56 0 l0 -13 l-50 0 q14 -29 53 -42 q-6 -9 -8 -14 ZM57 25 l0 -26 l141 0 l0 26 l-141 0 ZM57 65 l0 -27 l141 0 l0 27 l-141 0 Z" /><glyph glyph-name="" unicode="&#x6700;" d="M7 97 l0 13 l242 0 l0 -13 l-128 0 l0 -88 l21 3 q0 -2 0 -5 q-1 -5 0 -7 q-3 -1 -10 -1 q-7 -1 -11 -1 l0 -27 l-16 0 l0 25 q-23 -2 -73 -8 q-14 -2 -21 -3 l-2 14 l24 1 l0 97 l-26 0 ZM43 127 l0 72 l171 0 l0 -72 l-171 0 ZM240 -26 q-36 15 -52 26 q-17 -13 -50 -29 q-4 6 -9 14 q30 11 48 25 q-20 21 -32 56 l-9 0 l0 12 l95 0 l0 -13 q-13 -34 -33 -55 q14 -10 49 -22 l-7 -14 ZM59 158 l0 -18 l138 0 l0 18 l-138 0 ZM59 187 l0 -18 l138 0 l0 18 l-138 0 ZM216 66 l-57 0 q10 -28 28 -46 q16 14 29 46 ZM48 1 q29 3 57 6 l0 21 l-57 0 l0 -27 ZM48 97 l0 -23 l57 0 l0 23 l-57 0 ZM48 62 l0 -22 l57 0 l0 22 l-57 0 Z" /><glyph glyph-name="" unicode="&#x6708;" d="M27 -30 q-2 2 -7 6 q-5 5 -8 7 q41 35 38 129 l0 87 l163 0 l0 -189 q1 -35 -34 -35 q-15 -1 -36 -1 q-2 9 -5 19 q12 -1 36 -1 q23 -1 22 20 l0 40 l-132 0 q-5 -46 -37 -82 ZM67 111 q0 -24 -2 -43 l131 0 l0 50 l-129 0 l0 -7 ZM67 183 l0 -50 l129 0 l0 50 l-129 0 Z" /><glyph glyph-name="" unicode="&#x6709;" d="M15 163 l0 15 l77 0 q9 15 16 33 l18 -4 q-7 -15 -15 -29 l134 0 l0 -15 l-142 0 q-10 -17 -21 -32 l135 0 l0 -127 q1 -28 -30 -28 q-15 -1 -37 -1 q0 2 -2 8 q-1 6 -2 9 q8 -1 35 -1 q21 -1 19 16 l0 19 l-127 0 l0 -55 l-17 0 l0 128 q-18 -21 -40 -40 q-6 10 -10 15 q49 41 77 89 l-68 0 ZM73 72 l0 -32 l127 0 l0 32 l-127 0 ZM73 117 l0 -31 l127 0 l0 31 l-127 0 Z" /><glyph glyph-name="" unicode="&#x671d;" d="M126 -29 q-6 4 -14 10 q22 23 28 45 q7 21 7 72 l0 99 l89 0 l0 -194 q1 -26 -26 -28 q-14 0 -28 0 l-3 17 q11 -1 22 -1 q20 -2 18 16 l0 46 l-58 0 q-2 -48 -35 -82 ZM10 172 l0 14 l51 0 l0 25 l16 0 l0 -25 l50 0 l0 -14 l-50 0 l0 -26 l43 0 l0 -93 l-43 0 l0 -27 l50 0 l0 -14 l-50 0 l0 -42 l-16 0 l0 42 l-53 0 l0 14 l53 0 l0 27 l-43 0 l0 93 l43 0 l0 26 l-51 0 ZM163 98 q0 -18 -1 -31 l57 0 l0 50 l-56 0 l0 -19 ZM163 182 l0 -50 l56 0 l0 50 l-56 0 ZM34 94 l0 -27 l70 0 l0 27 l-70 0 ZM34 132 l0 -26 l70 0 l0 26 l-70 0 Z" /><glyph glyph-name="" unicode="&#x672c;" d="M17 151 l0 16 l102 0 l0 43 l17 0 l0 -43 l103 0 l0 -16 l-91 0 q33 -75 101 -117 q-7 -9 -12 -16 q-72 51 -101 128 l0 -112 l56 0 l0 -16 l-56 0 l0 -47 l-17 0 l0 47 l-57 0 l0 16 l57 0 l0 112 q-29 -81 -100 -132 q0 1 -2 2 q-6 10 -10 13 q68 47 100 122 l-90 0 Z" /><glyph glyph-name="" unicode="&#x672f;" d="M12 134 l0 16 l107 0 l0 60 l17 0 l0 -60 l108 0 l0 -16 l-96 0 q32 -73 101 -115 q-6 -6 -11 -16 q-74 49 -102 124 l0 -156 l-17 0 l0 156 q-30 -81 -100 -127 q-6 6 -12 14 q71 46 101 120 l-96 0 ZM205 156 q-16 16 -42 36 l11 10 q16 -11 43 -34 l-12 -12 Z" /><glyph glyph-name="" unicode="&#x6743;" d="M239 -26 q-49 29 -71 56 q-27 -30 -79 -59 q-2 3 -8 10 q-3 3 -4 5 q51 26 80 58 q-35 45 -46 132 l-12 0 l0 15 l133 0 l0 -16 q-17 -86 -53 -131 q24 -29 71 -54 q-3 -4 -9 -14 q-2 -1 -2 -2 ZM12 144 l0 16 l36 0 l0 50 l16 0 l0 -50 l34 0 l0 -16 l-34 0 l0 -43 l9 8 q19 -20 32 -34 l-11 -11 q-1 2 -5 6 q-17 19 -25 27 l0 -125 l-16 0 l0 139 q-12 -43 -36 -76 q-3 12 -6 21 q27 34 42 88 l-36 0 ZM215 176 l-88 0 q10 -76 41 -119 q33 43 47 119 Z" /><glyph glyph-name="" unicode="&#x6761;" d="M240 87 q-72 10 -109 27 q-40 -18 -117 -31 q0 2 -3 7 q-3 6 -4 8 q64 10 106 25 q-26 15 -44 36 q-15 -17 -36 -33 q-5 7 -12 12 q44 32 68 72 l17 -3 q-7 -12 -15 -22 l121 0 l0 -16 q-34 -30 -63 -46 q36 -13 98 -20 q-4 -9 -7 -16 ZM22 55 l0 15 l100 0 l0 24 l17 0 l0 -24 l95 0 l0 -15 l-95 0 l0 -50 q2 -29 -29 -29 q-7 -1 -29 -1 q-1 3 -2 8 q-1 6 -2 9 q8 -1 26 -1 q20 -1 19 18 l0 46 l-100 0 ZM190 170 l-111 0 q22 -23 52 -39 q26 12 59 39 ZM23 -14 q-5 5 -11 13 q35 17 69 44 l12 -12 q-35 -25 -70 -45 ZM234 -13 q-2 1 -7 4 q-45 28 -64 39 l10 12 q21 -11 56 -33 q10 -6 15 -9 l-10 -13 Z" /><glyph glyph-name="" unicode="&#x6765;" d="M24 161 l0 15 l96 0 l0 34 l16 0 l0 -34 l97 0 l0 -15 l-97 0 l0 -69 l110 0 l0 -15 l-102 0 q39 -46 105 -71 q-2 -3 -5 -7 q-4 -5 -6 -8 q-67 27 -102 75 l0 -96 l-16 0 l0 96 q-38 -47 -103 -79 q-2 4 -8 11 q-2 2 -3 3 q65 30 105 76 l-101 0 l0 15 l110 0 l0 69 l-96 0 ZM177 100 l-12 12 q19 18 34 38 l13 -10 q-6 -8 -21 -24 q-9 -10 -14 -16 ZM75 103 q-15 20 -30 38 l12 9 q10 -10 28 -32 q-12 14 4 -5 l-14 -10 Z" /><glyph glyph-name="" unicode="&#x676d;" d="M82 -29 q-1 1 -6 6 q-4 5 -6 7 q27 18 35 39 q8 19 8 63 l0 35 l89 0 l0 -118 q-1 -11 12 -10 l4 0 q14 -1 14 12 q2 19 3 33 q4 -2 11 -4 q2 -1 3 -1 q0 -10 -2 -29 q2 13 0 -3 q-4 -25 -28 -24 l-10 0 q-24 0 -24 23 l0 105 l-56 0 l0 -19 q0 -48 -9 -71 q-9 -22 -38 -44 ZM11 144 l0 15 l32 0 l0 49 l16 0 l0 -49 l29 0 l0 -15 l-29 0 l0 -39 l8 7 q16 -14 31 -29 l-11 -11 q-3 3 -10 10 q-5 6 -18 18 l0 -129 l-16 0 l0 138 q-10 -43 -31 -73 q-4 8 -8 18 q27 39 38 90 l-31 0 ZM95 155 l0 16 l66 0 q-9 21 -16 34 l16 5 q4 -7 12 -24 q4 -8 6 -12 l-9 -3 l68 0 l0 -16 l-143 0 Z" /><glyph glyph-name="" unicode="&#x676f;" d="M101 176 l0 16 l146 0 l0 -16 l-65 0 q-10 -27 -22 -50 l15 0 l0 -155 l-17 0 l0 151 q-24 -48 -67 -90 q-6 6 -13 12 q61 58 86 132 l-63 0 ZM9 146 l0 15 l37 0 l0 49 l15 0 l0 -49 l35 0 l0 -15 l-35 0 l0 -30 l8 8 q17 -15 30 -30 l-11 -11 q-13 16 -27 28 l0 -140 l-15 0 l0 141 q-12 -38 -33 -74 q-2 5 -6 15 q-1 4 -1 5 q24 38 39 88 l-36 0 ZM235 37 q-27 41 -54 75 l13 9 q21 -26 56 -74 l-15 -10 Z" /><glyph glyph-name="" unicode="&#x6781;" d="M124 -29 q-1 1 -3 4 q-6 7 -8 11 q42 23 59 42 q-28 33 -42 83 q-3 -85 -48 -136 q-9 9 -13 12 q28 31 37 66 q9 34 9 102 l0 25 l-21 0 l0 16 l121 0 l0 -19 l-25 -51 l44 0 l0 -17 q-17 -51 -40 -80 q23 -24 55 -39 q-6 -7 -11 -16 q-38 26 -55 42 q-24 -24 -59 -45 ZM11 144 l0 15 l32 0 l0 49 l15 0 l0 -49 l30 0 l0 -15 l-30 0 l0 -36 l5 5 q7 -6 21 -19 q7 -7 11 -10 l-10 -12 q-13 15 -27 27 l0 -128 l-15 0 l0 140 q-10 -39 -31 -75 q-4 8 -8 18 q23 38 38 90 l-31 0 ZM131 156 l0 -10 q20 -68 51 -105 q21 26 35 70 l-43 0 l0 18 l24 51 l-66 0 l-1 -24 Z" /><glyph glyph-name="" unicode="&#x6784;" d="M147 -23 q0 4 -2 13 q-1 3 -1 4 q18 0 44 0 q32 -2 31 28 q0 7 1 28 q3 91 3 104 l-98 0 q-11 -20 -23 -39 q-8 7 -14 10 q28 39 44 84 l16 -4 q-6 -17 -15 -35 l107 0 q-3 -118 -5 -152 q1 -42 -45 -41 q-25 0 -43 0 ZM8 142 l0 14 l35 0 l0 52 l16 0 l0 -52 l31 0 l0 -14 l-31 0 l0 -36 l6 7 q18 -16 34 -30 l-12 -12 q-12 13 -28 28 l0 -128 l-16 0 l0 135 q-11 -38 -31 -69 q-1 6 -4 16 q-2 5 -2 6 q26 39 36 83 l-34 0 ZM101 29 l-7 16 q7 4 13 13 q21 33 37 75 l17 -5 q-22 -49 -42 -81 l60 3 q-10 23 -21 41 l14 6 q2 -3 5 -9 q19 -37 29 -58 l-14 -7 l-6 13 q-36 -1 -63 -4 q-7 -1 -16 -2 q-4 -1 -6 -1 Z" /><glyph glyph-name="" unicode="&#x679c;" d="M35 94 l0 103 l185 0 l0 -103 l-84 0 l0 -28 l109 0 l0 -15 l-93 0 q36 -39 97 -51 q-2 -3 -5 -10 q-3 -4 -4 -6 q-70 20 -104 65 l0 -78 l-16 0 l0 78 q-34 -44 -104 -70 q-1 2 -4 6 q-4 6 -6 9 q61 20 98 57 l-94 0 l0 15 l110 0 l0 28 l-85 0 ZM136 139 l0 -31 l69 0 l0 31 l-69 0 ZM51 139 l0 -31 l69 0 l0 31 l-69 0 ZM205 183 l-69 0 l0 -31 l69 0 l0 31 ZM51 183 l0 -31 l69 0 l0 31 l-69 0 Z" /><glyph glyph-name="" unicode="&#x67b6;" d="M10 50 l0 14 l110 0 l0 27 l16 0 l0 -27 l110 0 l0 -14 l-96 0 q33 -37 98 -53 q-6 -9 -10 -16 q-69 22 -102 65 l0 -75 l-16 0 l0 75 q-34 -43 -103 -67 q-3 6 -9 16 q62 17 97 55 l-95 0 ZM144 102 l0 87 l88 0 l0 -87 l-88 0 ZM19 82 q-3 4 -11 12 q38 25 40 74 l-34 0 l0 14 l35 0 q0 4 0 13 q1 10 1 16 l15 0 q0 -16 -1 -29 l55 0 q0 -10 -1 -29 q0 -19 -1 -29 q-1 -32 -31 -31 q-10 0 -21 0 q-3 9 -4 16 q6 -1 22 -1 q19 -1 18 17 q2 30 2 43 l-40 0 q-2 -58 -44 -86 ZM160 175 l0 -59 l56 0 l0 59 l-56 0 Z" /><glyph glyph-name="" unicode="&#x6807;" d="M10 144 l0 15 l34 0 l0 50 l16 0 l0 -50 l31 0 l0 -15 l-31 0 l0 -41 l7 6 q15 -13 31 -31 l-12 -11 q-10 13 -26 31 l0 -127 l-16 0 l0 136 q-9 -34 -32 -70 q-3 11 -7 20 q25 35 39 86 l0 1 l-34 0 ZM96 107 l0 15 l151 0 l0 -15 l-68 0 l0 -105 q1 -27 -29 -28 q-15 0 -28 0 q0 8 -3 17 q5 0 13 -1 q9 0 13 0 q19 -1 18 16 l0 101 l-67 0 ZM107 176 l0 15 l128 0 l0 -15 l-128 0 ZM97 -2 q-2 2 -8 4 q-5 2 -7 3 q23 38 38 75 l16 -6 q-19 -41 -39 -76 ZM235 -1 q-1 1 -2 3 q-19 44 -33 71 l14 7 q24 -47 37 -76 l-16 -5 Z" /><glyph glyph-name="" unicode="&#x6837;" d="M102 147 l0 15 l74 0 q18 26 31 48 l16 -6 q-14 -21 -29 -42 l46 0 l0 -15 l-63 0 l0 -42 l56 0 l0 -14 l-56 0 l0 -44 l71 0 l0 -15 l-71 0 l0 -61 l-17 0 l0 61 l-71 0 l0 15 l71 0 l0 44 l-52 0 l0 14 l52 0 l0 42 l-58 0 ZM10 144 l0 15 l35 0 l0 50 l16 0 l0 -50 l28 0 l0 -15 l-28 0 l0 -40 l7 7 q15 -15 31 -31 l-12 -11 q-10 12 -26 30 l0 -128 l-16 0 l0 139 q-11 -39 -33 -73 q-3 11 -8 20 q25 34 40 87 l-34 0 ZM141 167 q-18 26 -26 36 l14 7 q2 -2 6 -7 q6 -8 21 -27 l-15 -9 Z" /><glyph glyph-name="" unicode="&#x683c;" d="M108 -29 l0 92 l122 0 l0 -92 l-16 0 l0 14 l-90 0 l0 -14 l-16 0 ZM243 69 q-47 13 -72 32 q-31 -20 -79 -35 q-3 8 -8 15 q45 13 73 31 q-17 16 -32 40 q-10 -15 -25 -30 q-5 6 -11 12 q33 32 52 76 l16 -3 q-5 -12 -11 -23 l87 0 l0 -16 q-17 -32 -48 -57 q26 -16 65 -25 q-1 -2 -3 -8 q-3 -6 -4 -9 ZM11 146 l0 15 l33 0 l0 49 l15 0 l0 -49 l30 0 l0 -15 l-30 0 l0 -30 l6 6 q11 -9 30 -28 l-11 -12 q-12 13 -25 25 l0 -136 l-15 0 l0 143 q-12 -44 -32 -77 q-2 5 -6 15 q-1 3 -1 4 q22 34 38 90 l-32 0 ZM124 48 l0 -48 l90 0 l0 48 l-90 0 ZM215 169 l-78 0 l-2 -3 q15 -28 36 -45 q27 20 44 48 Z" /><glyph glyph-name="" unicode="&#x6842;" d="M10 144 l0 15 l34 0 l0 50 l16 0 l0 -50 l30 0 l0 -15 l-30 0 l0 -36 l4 5 q8 -7 21 -20 q6 -7 10 -11 l-10 -12 q-6 7 -17 19 q-5 6 -8 9 l0 -127 l-16 0 l0 138 q-11 -38 -32 -72 q-3 11 -8 20 q26 37 39 87 l-33 0 ZM100 41 l0 15 l60 0 l0 32 l17 0 l0 -32 l60 0 l0 -15 l-60 0 l0 -42 l72 0 l0 -15 l-163 0 l0 15 l74 0 l0 42 l-60 0 ZM104 158 l0 15 l56 0 l0 36 l17 0 l0 -36 l56 0 l0 -15 l-56 0 l0 -43 l67 0 l0 -15 l-149 0 l0 15 l65 0 l0 43 l-56 0 Z" /><glyph glyph-name="" unicode="&#x6865;" d="M103 178 q0 9 -2 15 q39 1 115 4 q9 1 14 1 l2 -15 q-10 0 -30 -1 q-19 0 -29 -1 q-2 -25 -7 -43 l77 0 l0 -15 l-58 0 q19 -36 64 -54 q-5 -6 -8 -14 q-53 22 -72 68 l-8 0 q-14 -41 -72 -72 q-2 3 -7 11 q-2 1 -2 2 q51 27 65 59 l-53 0 l0 15 l58 0 q3 10 6 35 q1 4 1 7 l-54 -2 ZM12 147 l0 15 l32 0 l0 47 l16 0 l0 -47 l28 0 l0 -15 l-28 0 l0 -28 l4 3 q15 -12 30 -25 l-10 -12 q-12 12 -24 22 l0 -136 l-16 0 l0 145 q-13 -47 -31 -77 q-1 3 -4 9 q-3 6 -4 9 q24 39 38 90 l-31 0 ZM95 -30 q-2 3 -8 8 q-3 3 -4 4 q39 20 39 60 q0 5 1 12 q0 7 0 11 l16 0 q0 -5 -1 -13 q0 -7 0 -11 q-1 -47 -43 -71 ZM190 -26 l0 91 l17 0 l0 -91 l-17 0 Z" /><glyph glyph-name="" unicode="&#x68a6;" d="M106 19 q-15 13 -41 32 q-13 -12 -33 -25 q-1 1 -2 2 q-6 9 -9 11 q48 29 73 66 l16 -5 q-6 -9 -13 -16 l114 0 l0 -15 q-48 -77 -186 -100 q-3 8 -8 17 q127 16 174 84 l-106 0 q-5 -4 -8 -9 q4 -2 10 -7 q20 -15 33 -24 l-14 -11 ZM134 166 l0 13 l38 0 l0 31 l15 0 l0 -31 l54 0 l0 -13 l-52 0 q22 -32 60 -48 q-4 -6 -9 -14 q-35 19 -53 45 l0 -46 l-15 0 l0 45 q-13 -24 -47 -46 q-3 7 -10 13 q37 20 56 51 l-37 0 ZM16 166 l0 13 l50 0 l0 31 l14 0 l0 -31 l39 0 l0 -13 l-39 0 l0 -24 l7 9 q6 -3 18 -9 q12 -7 18 -10 l-9 -12 q-9 5 -30 17 q-3 1 -4 2 l0 -36 l-14 0 l0 45 q-18 -29 -50 -48 q-1 1 -3 4 q-1 3 -7 9 q40 20 57 53 l-47 0 Z" /><glyph glyph-name="" unicode="&#x6982;" d="M145 12 l-8 15 q-4 -3 -13 -10 q-17 -12 -23 -16 q-7 -4 -12 -9 l-12 12 q7 8 7 26 l0 166 l59 0 l0 -117 l-45 0 l0 -61 q5 3 21 13 q8 6 12 8 l-13 24 l12 6 q16 -28 27 -50 l-12 -7 ZM158 179 l0 14 l83 0 l0 -14 l-27 0 q0 -41 -6 -78 l35 0 l0 -14 l-38 0 q-2 -12 -5 -22 l11 0 l0 -61 q-1 -13 9 -12 l5 0 q8 -1 10 10 q1 3 2 16 q1 10 1 13 q1 0 4 -1 q6 -1 8 -2 q0 -19 -3 -29 q-2 -21 -22 -21 l-7 0 q-22 -1 -22 22 l0 53 q-13 -41 -61 -81 q-5 5 -11 11 q57 42 67 104 l-34 0 l9 76 l13 0 l-7 -62 l22 0 q5 30 5 78 l-41 0 ZM10 150 l0 15 l28 0 l0 45 l14 0 l0 -45 l25 0 l0 -15 l-25 0 l0 -32 l6 5 q18 -24 24 -33 l-10 -10 q-3 6 -13 20 q-5 6 -7 9 l0 -138 l-14 0 l0 141 q-12 -48 -27 -70 q-1 6 -6 18 q21 33 33 90 l-28 0 ZM98 131 l0 -39 l32 0 l0 39 l-32 0 ZM130 183 l-32 0 l0 -38 l32 0 l0 38 Z" /><glyph glyph-name="" unicode="&#x6984;" d="M10 145 l0 14 l31 0 l0 50 l15 0 l0 -50 l26 0 l0 -14 l-26 0 l0 -34 l4 5 q15 -12 30 -27 l-10 -11 q-13 13 -24 24 l0 -131 l-15 0 l0 138 q-11 -43 -29 -72 q-1 3 -3 10 q-3 6 -4 9 q24 36 35 89 l-30 0 ZM193 -23 q-31 -1 -30 26 l0 41 q-2 -49 -80 -73 q-3 8 -8 14 q77 19 74 70 q1 10 1 23 l16 0 q0 -5 -1 -13 q0 -7 0 -10 l-1 -7 l15 0 l0 -42 q-2 -15 18 -14 l17 0 q15 -1 17 10 q1 6 3 24 q2 0 8 -2 q5 -1 7 -2 q-1 -19 -3 -25 q-5 -21 -30 -20 l-23 0 ZM96 27 l0 79 l129 0 l0 -78 l-16 0 l0 64 l-97 0 l0 -65 l-16 0 ZM167 125 q-1 1 -8 6 q-3 2 -4 3 q20 30 30 77 l15 -3 q-1 -5 -4 -16 q-2 -7 -3 -10 l54 0 l0 -13 l-58 0 q-9 -23 -22 -44 ZM134 120 l0 89 l14 0 l0 -89 l-14 0 ZM95 122 l0 80 l15 0 l0 -80 l-15 0 ZM223 117 q-7 7 -24 22 q-6 6 -9 8 l10 9 q3 -3 10 -8 q9 -6 24 -21 l-11 -10 Z" /><glyph glyph-name="" unicode="&#x6a21;" d="M97 61 l0 83 l132 0 l0 -83 l-59 0 q0 -3 -1 -8 q-1 -10 -2 -15 l77 0 l0 -14 l-71 0 q16 -28 75 -36 q-4 -8 -7 -15 q-60 11 -81 44 q-15 -31 -80 -48 q-3 8 -8 16 q65 14 75 39 l-69 0 l0 14 l73 0 q1 5 2 16 q1 4 1 7 l-57 0 ZM10 146 l0 14 l30 0 l0 49 l16 0 l0 -49 l26 0 l0 -14 l-26 0 l0 -37 l4 4 q15 -14 30 -29 l-11 -12 q-9 11 -23 27 l0 -128 l-16 0 l0 138 q-11 -42 -29 -71 l-6 20 q22 37 35 87 l0 1 l-30 0 ZM184 154 l0 19 l-45 0 l0 -19 l-15 0 l0 19 l-42 0 l0 13 l42 0 l0 24 l15 0 l0 -24 l45 0 l0 24 l16 0 l0 -24 l43 0 l0 -13 l-43 0 l0 -19 l-16 0 ZM112 97 l0 -23 l101 0 l0 23 l-101 0 ZM112 131 l0 -22 l101 0 l0 22 l-101 0 Z" /><glyph glyph-name="" unicode="&#x6b21;" d="M235 -26 q-67 42 -80 108 q-11 -67 -87 -112 q-1 2 -4 5 q-2 2 -9 11 q84 43 90 121 q1 13 1 28 l18 0 q0 -4 -1 -12 q0 -8 -1 -12 q16 -87 86 -121 q-2 -3 -6 -8 q-5 -6 -7 -8 ZM216 99 q-3 1 -7 2 q-6 2 -9 3 l20 47 l-99 0 q-12 -27 -27 -49 q-6 4 -15 8 q30 45 45 99 l17 -4 q-1 -3 -3 -9 q-4 -11 -11 -29 l111 0 l0 -17 l-22 -51 ZM23 -4 l-16 9 q27 46 50 97 q3 -1 8 -5 q5 -3 7 -5 q-31 -63 -49 -96 ZM55 129 q-16 22 -41 57 l14 9 q3 -3 7 -10 q23 -30 35 -47 l-15 -9 Z" /><glyph glyph-name="" unicode="&#x6b22;" d="M92 11 l-27 42 q-18 -36 -48 -68 q-2 2 -6 7 q-4 5 -6 7 q33 33 49 70 q-21 34 -42 65 l13 8 q6 -9 19 -27 q12 -18 18 -27 q13 39 17 79 l-67 0 l0 15 l83 0 l0 -16 q-6 -54 -22 -95 l33 -50 l-14 -10 ZM90 -29 q-2 3 -8 10 q-3 3 -4 5 q71 39 78 105 q3 24 3 50 l17 0 q0 -18 -1 -33 q15 -83 75 -117 q-2 -3 -6 -8 q-5 -6 -7 -8 q-54 38 -68 99 q-11 -61 -79 -103 ZM222 111 q-7 5 -16 6 l21 41 l-91 0 q-5 -15 -17 -42 q-3 -6 -4 -9 q-2 1 -6 3 q-3 2 -10 5 q22 41 36 95 l17 -4 q-2 -5 -5 -15 q-4 -12 -6 -18 l103 0 l0 -16 l-22 -46 Z" /><glyph glyph-name="" unicode="&#x6b63;" d="M18 173 l0 16 l221 0 l0 -16 l-90 0 l0 -73 l82 0 l0 -16 l-82 0 l0 -83 l100 0 l0 -14 l-242 0 l0 14 l39 0 l0 133 l18 0 l0 -133 l67 0 l0 172 l-113 0 Z" /><glyph glyph-name="" unicode="&#x6b64;" d="M10 -16 l-3 16 l21 3 l0 159 l17 0 l0 -156 l36 8 l0 193 l16 0 l0 -73 l43 0 l0 -16 l-43 0 l0 -101 l40 8 q0 -8 1 -17 q-9 -2 -28 -5 q-62 -11 -100 -19 ZM185 -19 q-33 -1 -32 31 l0 198 l16 0 l0 -90 q33 19 62 47 l13 -12 q-30 -27 -75 -56 l0 -85 q-1 -18 20 -17 l18 0 q19 -1 21 16 q0 3 1 11 q2 17 3 27 q8 -3 17 -5 q0 -3 -1 -9 q-2 -22 -5 -32 q-4 -24 -34 -24 l-24 0 Z" /><glyph glyph-name="" unicode="&#x6bcf;" d="M7 71 l0 15 l36 0 l11 62 l162 0 l-3 -62 l36 0 l0 -15 l-37 0 q0 -24 -2 -47 l30 0 l0 -15 l-31 0 q-2 -36 -41 -36 q-19 0 -36 0 q0 2 -1 8 q-1 7 -2 9 q8 -1 35 -1 q27 -2 28 20 l-162 0 l11 62 l-34 0 ZM193 24 q1 11 2 35 q0 -6 1 12 l-138 0 l-8 -47 l143 0 ZM69 134 l-9 -48 l136 0 q2 32 2 48 l-129 0 ZM18 128 q-1 1 -2 2 q-3 4 -8 12 q37 32 55 70 l19 -3 q-2 -3 -6 -9 q-4 -7 -6 -10 l173 0 l0 -15 l-182 0 q-18 -24 -43 -47 ZM139 92 q-5 5 -16 13 q-10 9 -16 13 l10 10 q17 -12 33 -24 l-11 -12 ZM135 29 q-14 14 -31 26 l10 11 q18 -13 32 -25 l-11 -12 Z" /><glyph glyph-name="" unicode="&#x6bd4;" d="M165 -22 q-34 -1 -33 31 l0 201 l17 0 l0 -106 q43 30 80 72 l14 -12 q-40 -44 -94 -81 l0 -70 q-1 -18 21 -18 l32 0 q21 0 25 17 q0 5 2 14 q1 14 2 22 q9 -3 17 -5 q-1 -12 -5 -31 q-1 -6 -1 -8 q-5 -26 -36 -26 l-41 0 ZM29 -22 l-12 15 q7 9 7 19 l0 192 l18 0 l0 -74 l68 0 l0 -17 l-68 0 l0 -110 q16 8 59 27 q-3 -1 7 3 q0 -3 1 -9 q0 -7 0 -10 q-33 -12 -62 -25 q-9 -5 -18 -11 Z" /><glyph glyph-name="" unicode="&#x6bd7;" d="M16 -7 l0 198 l83 0 l0 -195 l-13 0 l0 14 l-56 0 l0 -17 l-14 0 ZM208 -22 q-24 0 -24 23 l0 206 l15 0 l0 -87 q20 21 38 43 l11 -12 q-23 -26 -49 -51 l0 -97 q-1 -11 12 -10 l7 0 q12 0 14 12 q0 3 1 11 q2 19 3 29 q3 -1 9 -2 q3 -2 5 -2 q-2 -24 -5 -41 q-5 -23 -26 -22 l-11 0 ZM127 -25 l-9 11 q7 8 7 16 l0 204 l15 0 l0 -75 l33 0 l0 -15 l-33 0 l0 -115 l33 24 q0 -8 2 -18 q-23 -12 -37 -23 q-3 -3 -9 -8 q1 1 -2 -1 ZM64 94 l0 -71 l22 0 l0 71 l-22 0 ZM86 178 l-22 0 l0 -71 l22 0 l0 71 ZM30 178 l0 -71 l21 0 l0 71 l-21 0 ZM30 94 l0 -71 l21 0 l0 71 l-21 0 Z" /><glyph glyph-name="" unicode="&#x6c11;" d="M213 -27 q-21 -1 -36 19 q-23 24 -33 68 l-96 0 l0 -65 l63 21 q0 -10 0 -17 q-30 -9 -60 -21 q-3 -2 -8 -4 q-6 -3 -9 -4 l-10 14 q7 6 6 16 l0 199 l197 0 l0 -76 l-76 0 q1 -13 4 -36 q1 -7 2 -11 l89 0 l0 -16 l-85 0 q10 -36 28 -57 q13 -12 22 -12 q10 0 14 12 q3 15 6 36 q4 -2 10 -4 q4 -1 6 -2 q-1 -3 -2 -10 q-2 -12 -6 -26 q-7 -24 -26 -24 ZM48 184 l0 -46 l162 0 l0 46 l-162 0 ZM140 76 q-1 4 -2 11 q-3 22 -4 36 l-86 0 l0 -47 l92 0 Z" /><glyph glyph-name="" unicode="&#x6c14;" d="M222 -28 q-16 -1 -24 17 q-12 17 -11 86 l0 10 l-157 0 l0 15 l174 0 l0 -25 q-1 -62 9 -78 q3 -7 9 -8 q7 1 9 11 q0 2 1 8 q2 18 3 30 q8 -3 15 -5 q0 -16 -4 -37 q-4 -24 -24 -24 ZM17 99 q-1 2 -5 8 q-4 6 -5 8 q37 40 59 96 l17 -3 q-5 -13 -11 -24 l165 0 l0 -16 l-172 0 q-17 -33 -48 -69 ZM60 127 l0 15 l158 0 l0 -15 l-158 0 Z" /><glyph glyph-name="" unicode="&#x6c34;" d="M237 0 q-70 53 -101 135 l0 -127 q2 -32 -33 -33 q-16 0 -32 0 q-1 9 -3 18 q9 -1 30 -1 q22 0 21 18 l0 199 l17 0 l0 -38 q12 -32 25 -56 q29 23 56 53 l14 -12 q-31 -32 -62 -56 q30 -50 81 -86 q-3 -3 -7 -8 q-4 -5 -6 -6 ZM18 -4 q-2 3 -7 7 q-3 4 -5 6 q56 55 71 124 l-63 0 l0 17 l80 0 l0 -16 q-17 -79 -76 -138 Z" /><glyph glyph-name="" unicode="&#x6c38;" d="M236 -6 q-73 50 -96 119 l0 -109 q1 -31 -32 -31 q-15 0 -31 0 q0 2 -2 7 q-1 7 -2 10 q9 -1 30 -1 q21 -1 20 17 l0 139 l-85 0 l0 16 l102 0 l0 -11 q11 -32 23 -54 q3 2 9 7 q32 26 50 41 l12 -13 q-7 -5 -21 -16 q-26 -20 -42 -32 q24 -40 77 -74 q-7 -9 -12 -15 ZM17 -8 q-2 3 -5 8 q-4 3 -6 6 q53 33 68 89 l-59 0 l0 16 l77 0 l0 -17 q-20 -65 -75 -102 ZM163 172 q-17 6 -53 18 q-17 5 -25 8 l7 14 q37 -10 77 -25 l-6 -15 Z" /><glyph glyph-name="" unicode="&#x6c41;" d="M76 105 l0 16 l76 0 l0 88 l18 0 l0 -88 l79 0 l0 -16 l-79 0 l0 -134 l-18 0 l0 134 l-76 0 ZM33 -26 l-19 7 q12 26 31 86 q3 -1 8 -3 q6 -3 8 -4 q-3 -9 -10 -30 q-14 -41 -18 -56 ZM63 159 q-21 18 -45 35 l12 12 q22 -15 46 -33 l-13 -14 ZM52 94 q-29 23 -45 33 l11 13 q8 -5 23 -16 q15 -10 23 -16 l-12 -14 Z" /><glyph glyph-name="" unicode="&#x6c42;" d="M11 145 l0 15 l110 0 l0 50 l16 0 l0 -50 l108 0 l0 -15 l-108 0 l0 -8 q13 -35 29 -57 q30 23 53 48 l13 -12 q-24 -22 -57 -48 q25 -32 73 -56 q-9 -12 -11 -14 q-70 36 -100 103 l0 -92 q1 -33 -34 -33 q-17 -1 -29 -1 q0 2 -1 5 q0 8 -2 13 q8 -1 27 -1 q25 -2 23 22 l0 131 l-110 0 ZM16 4 l-8 18 q49 22 99 50 q2 -9 3 -18 q-43 -22 -94 -50 ZM72 75 q-15 18 -39 43 l13 10 q14 -14 40 -42 l-14 -11 ZM197 162 q-16 14 -35 28 l12 11 q16 -12 35 -28 l-12 -11 Z" /><glyph glyph-name="" unicode="&#x6c47;" d="M89 -15 l0 210 l154 0 l0 -16 l-137 0 l0 -179 l141 0 l0 -15 l-158 0 ZM60 158 q-21 17 -42 33 l10 12 q7 -5 22 -15 q15 -11 22 -16 l-12 -14 ZM49 95 q-21 18 -42 34 l11 12 q7 -5 22 -16 q14 -11 21 -17 l-12 -13 ZM35 -28 l-18 7 q15 41 27 93 q1 0 2 -1 q11 -4 15 -5 q-2 -9 -8 -30 q-12 -41 -18 -64 Z" /><glyph glyph-name="" unicode="&#x6c5f;" d="M89 170 l0 16 l150 0 l0 -16 l-68 0 l0 -166 l78 0 l0 -14 l-175 0 l0 14 l79 0 l0 166 l-64 0 ZM32 -26 l-17 8 q19 44 33 86 q7 -5 17 -8 q-16 -38 -33 -86 ZM50 95 q-26 20 -44 32 l11 13 q22 -14 45 -31 l-12 -14 ZM61 160 q-3 3 -9 8 q-22 18 -34 26 l12 12 q8 -6 24 -18 q13 -9 19 -14 l-12 -14 Z" /><glyph glyph-name="" unicode="&#x6c64;" d="M69 1 q-6 6 -12 12 q51 33 64 87 l-37 0 l0 17 l112 63 l-106 0 l0 15 l134 0 l0 -17 l-110 -63 l126 0 q-1 -14 -2 -42 q-2 -38 -3 -51 q-1 -46 -39 -45 q-9 -1 -30 -1 q0 6 -3 18 q9 -1 29 -1 q26 -2 27 28 q2 38 3 79 l-33 0 q-12 -84 -78 -129 q-2 3 -9 9 q-3 3 -4 4 q64 41 75 116 l-35 0 q-16 -65 -69 -99 ZM30 -26 l-17 6 q19 53 27 90 q6 -3 17 -7 q-14 -42 -27 -89 ZM61 160 q-20 17 -44 34 l11 11 q5 -3 15 -11 q6 -3 30 -21 l-12 -13 ZM51 95 q-22 18 -44 32 l10 12 q18 -11 46 -31 l-12 -13 Z" /><glyph glyph-name="" unicode="&#x6c72;" d="M113 -29 q-1 3 -7 9 q-3 3 -4 5 q42 22 63 42 q-27 31 -44 88 q-2 -83 -56 -141 q-6 6 -13 13 q33 35 44 73 q11 37 11 109 l0 11 l-21 0 l0 15 l131 0 l0 -16 l-28 -53 l44 0 l0 -15 q-18 -54 -44 -83 q24 -22 61 -39 q-7 -9 -11 -16 q-42 24 -62 42 q-24 -22 -64 -44 ZM124 173 q0 -9 0 -17 q19 -78 53 -116 q21 23 39 71 l-44 0 l0 16 l27 53 l-75 0 l0 -7 ZM31 -26 l-17 7 q15 40 28 89 q1 0 5 -2 q8 -3 11 -4 q-3 -9 -9 -28 q-12 -41 -18 -62 ZM49 95 q-21 17 -43 32 l10 12 q21 -13 44 -31 l-11 -13 ZM58 160 q-19 16 -42 34 l11 11 q27 -19 42 -32 l-11 -13 Z" /><glyph glyph-name="" unicode="&#x6c89;" d="M80 146 l0 50 l156 0 l0 -50 l-17 0 l0 34 l-122 0 l0 -34 l-17 0 ZM32 -26 l-18 6 q16 43 29 91 q1 0 2 -1 q11 -4 15 -5 q-20 -62 -28 -91 ZM56 160 q-3 3 -10 8 q-10 11 -31 26 l12 12 q2 -2 6 -5 q23 -17 35 -28 l-12 -13 ZM49 95 q-22 20 -42 33 l11 12 q11 -8 32 -23 q7 -5 11 -8 l-12 -14 ZM73 -28 q-2 1 -6 6 q-4 4 -7 6 q30 19 39 38 q9 19 9 61 l0 47 l91 0 l0 -125 q-1 -12 11 -11 l7 0 q13 -1 15 11 q2 19 3 33 q3 -1 8 -2 q5 -2 7 -3 q-1 -8 -2 -21 q-2 -9 -2 -12 q-4 -24 -27 -23 l-14 0 q-23 0 -23 24 l0 113 l-58 0 l0 -31 q0 -45 -10 -67 q-10 -22 -41 -44 Z" /><glyph glyph-name="" unicode="&#x6caa;" d="M74 -28 q-7 6 -15 11 q20 26 26 51 q7 25 7 75 l0 65 l68 0 q-2 5 -8 16 q-6 11 -9 15 l15 6 q9 -15 19 -33 l-9 -4 l69 0 l0 -111 l-17 0 l0 14 l-112 0 q0 -63 -34 -105 ZM109 108 q0 -9 0 -16 l111 0 l0 67 l-111 0 l0 -51 ZM29 -28 l-18 7 q19 47 30 89 q1 0 2 -1 q10 -5 15 -6 q-22 -64 -29 -89 ZM58 158 q-4 4 -13 11 q-8 8 -27 23 l11 12 q18 -13 41 -33 l-12 -13 ZM47 93 q-15 14 -41 33 l12 12 q5 -4 16 -12 q17 -14 25 -20 l-12 -13 Z" /><glyph glyph-name="" unicode="&#x6cd5;" d="M83 149 l0 15 l68 0 l0 46 l17 0 l0 -46 l69 0 l0 -15 l-69 0 l0 -54 l80 0 l0 -16 l-95 0 l10 -3 q-27 -41 -58 -76 l101 3 l-31 41 l14 8 q12 -14 38 -49 q12 -14 17 -21 l-15 -10 l-12 18 q-36 -1 -91 -4 q-9 -1 -14 -1 q-15 0 -27 -3 l-8 17 q9 4 18 15 q24 24 47 65 l-71 0 l0 16 l80 0 l0 54 l-68 0 ZM29 -27 l-18 6 q17 44 30 90 q9 -4 17 -7 q-9 -23 -29 -89 ZM46 95 q-14 14 -39 34 l11 11 q8 -6 31 -24 q7 -5 9 -7 l-12 -14 ZM55 160 q-14 14 -38 34 l11 11 q7 -5 24 -20 q12 -10 16 -13 l-13 -12 Z" /><glyph glyph-name="" unicode="&#x6ce1;" d="M125 -22 q-39 0 -39 39 l0 113 l-10 -16 q-2 1 -4 4 q-3 2 -10 7 q32 40 48 85 l16 -4 q-5 -12 -11 -24 l114 0 q0 -11 -1 -33 q-1 -59 -2 -84 q0 -42 -40 -42 q-15 0 -31 0 q0 3 -2 11 q-1 4 -1 6 q16 -1 32 -1 q26 -1 26 28 q2 61 2 100 l-104 0 q-9 -18 -20 -35 l91 0 l0 -74 l-77 0 l0 -38 q-1 -27 28 -26 l66 0 q30 -1 33 19 q3 14 4 30 q9 -3 17 -5 q-3 -18 -6 -32 q-6 -29 -43 -28 l-76 0 ZM102 118 l0 -45 l61 0 l0 45 l-61 0 ZM32 -27 l-18 6 q12 32 28 92 q7 -3 16 -6 q-12 -40 -26 -92 ZM55 161 q-10 9 -29 25 q-7 5 -10 8 l11 12 q6 -5 21 -17 q13 -10 19 -15 l-12 -13 ZM46 96 q-12 11 -36 30 q-3 2 -4 3 l11 11 q11 -8 34 -25 q5 -4 7 -6 l-12 -13 Z" /><glyph glyph-name="" unicode="&#x6ce8;" d="M79 150 l0 16 l79 0 q-7 21 -15 40 l16 5 q3 -8 11 -25 q4 -10 6 -15 l-16 -5 l81 0 l0 -16 l-73 0 l0 -62 l65 0 l0 -16 l-65 0 l0 -72 l81 0 l0 -15 l-185 0 l0 15 l87 0 l0 72 l-65 0 l0 16 l65 0 l0 62 l-72 0 ZM31 -27 l-17 6 q18 46 30 89 q4 -2 13 -6 q2 -1 3 -1 q-17 -49 -29 -88 ZM60 158 q-4 3 -11 9 q-20 16 -31 24 l11 13 q6 -5 19 -14 q16 -12 24 -19 l-12 -13 ZM48 93 q-2 2 -7 6 q-21 19 -34 27 l11 12 q3 -2 9 -6 q21 -16 33 -26 l-12 -13 Z" /><glyph glyph-name="" unicode="&#x6cf0;" d="M19 172 l0 14 l97 0 q3 12 4 24 l17 0 q-1 -12 -4 -24 l104 0 l0 -14 l-107 0 q-1 -6 -4 -17 q-1 -4 -2 -6 l104 0 l0 -13 l-109 0 q-4 -13 -12 -24 l140 0 l0 -14 l-70 0 q25 -31 71 -47 q-1 -1 -3 -5 q-4 -7 -5 -10 q-25 11 -46 25 q-5 -3 -17 -10 q-11 -6 -17 -9 l-9 13 q18 9 31 17 q-12 11 -23 26 l-61 0 q-9 -14 -23 -26 q14 -6 30 -16 l-10 -12 q-20 12 -32 18 q-19 -15 -46 -29 q-2 3 -8 11 q-1 2 -2 3 q47 24 71 51 l-69 0 l0 14 l80 0 q1 1 2 3 q7 13 10 21 l-73 0 l0 13 l79 0 q1 2 2 6 q3 11 4 17 l-94 0 ZM81 -25 q0 7 -3 15 q12 0 25 0 q20 -1 19 16 l0 78 l16 0 l0 -81 q2 -28 -28 -28 q-14 0 -29 0 ZM28 -7 l-6 14 q45 15 84 30 q1 -2 2 -5 q3 -7 4 -10 q-18 -6 -56 -20 q-19 -6 -28 -9 ZM226 -7 q-8 3 -28 10 q-38 14 -53 20 l7 13 q18 -6 63 -24 q13 -5 18 -7 l-7 -12 Z" /><glyph glyph-name="" unicode="&#x6d0b;" d="M83 150 l0 15 l88 0 q6 9 16 24 q10 14 14 21 l15 -7 q-4 -5 -12 -17 q-10 -14 -15 -21 l52 0 l0 -15 l-73 0 l0 -42 l62 0 l0 -16 l-62 0 l0 -45 l78 0 l0 -16 l-78 0 l0 -60 l-17 0 l0 60 l-75 0 l0 16 l75 0 l0 45 l-60 0 l0 16 l60 0 l0 42 l-68 0 ZM30 -27 l-17 7 q11 26 31 88 q2 -1 9 -4 q5 -2 7 -3 q-21 -59 -30 -88 ZM49 95 q-22 18 -42 33 l11 12 q4 -3 12 -9 q24 -18 31 -23 l-12 -13 ZM59 161 q-20 17 -42 33 l11 12 q3 -2 9 -6 q21 -16 33 -26 l-11 -13 ZM130 168 q-14 20 -26 34 l14 8 q3 -4 10 -12 q11 -13 17 -21 l-15 -9 Z" /><glyph glyph-name="" unicode="&#x6d32;" d="M29 -27 l-17 6 q11 36 23 89 q3 -1 8 -3 q6 -2 8 -3 q-2 -9 -7 -30 q-10 -37 -15 -59 ZM69 -29 q-6 7 -14 13 q27 25 36 54 q9 27 9 86 l0 80 l15 0 l0 -80 q0 -65 -9 -93 q-8 -30 -37 -60 ZM221 -27 l0 232 l16 0 l0 -232 l-16 0 ZM160 -13 l0 209 l16 0 l0 -209 l-16 0 ZM201 82 q-2 6 -5 17 q-3 12 -12 36 l12 4 q3 -8 8 -25 q6 -17 9 -27 l-12 -5 ZM140 81 q0 1 -1 4 q-7 26 -16 48 l12 4 q4 -10 10 -30 q5 -14 8 -22 l-13 -4 ZM71 76 q-6 3 -13 5 q11 29 18 57 l13 -3 q-1 -4 -3 -11 q-9 -32 -15 -48 ZM52 160 q-4 4 -13 13 q-14 15 -22 22 l13 10 q4 -4 12 -11 q15 -14 24 -22 l-14 -12 ZM39 99 q-14 16 -33 31 l13 11 q5 -4 13 -11 q13 -11 21 -18 l-14 -13 Z" /><glyph glyph-name="" unicode="&#x6d3b;" d="M86 175 q0 2 -1 5 q-1 7 -2 10 q68 1 152 8 l3 -16 q-11 0 -33 -2 q-24 -1 -36 -2 l0 -45 l80 0 l0 -15 l-80 0 l0 -45 l62 0 l0 -102 l-17 0 l0 15 l-107 0 l0 -15 l-17 0 l0 102 l62 0 l0 45 l-78 0 l0 15 l78 0 l0 44 q-11 0 -33 -1 q-22 0 -33 -1 ZM107 58 l0 -58 l107 0 l0 58 l-107 0 ZM30 -27 l-18 7 q16 36 32 90 q3 -1 8 -3 q6 -3 8 -4 q-4 -13 -13 -40 q-11 -32 -17 -50 ZM47 95 q-22 19 -41 34 l11 12 q7 -5 21 -16 q14 -10 21 -16 l-12 -14 ZM54 160 q-23 22 -39 34 l11 12 q1 -1 4 -3 q24 -19 36 -30 l-12 -13 Z" /><glyph glyph-name="" unicode="&#x6d53;" d="M67 20 q-4 8 -10 14 q73 53 90 124 l-51 0 l0 -35 l-16 0 l0 50 l71 0 q4 17 5 37 l17 -1 q-1 -16 -5 -36 l70 0 l0 -44 l-16 0 l0 29 l-58 0 q-2 -9 -5 -18 q9 -37 21 -62 q23 17 45 36 l12 -12 q-22 -18 -50 -37 q17 -31 63 -60 q-9 -8 -12 -12 q-72 45 -88 125 q-8 -18 -20 -34 l0 -86 q16 5 48 22 q0 -8 0 -18 q-29 -11 -45 -21 q-9 -5 -16 -10 l-11 15 q9 7 8 19 l0 58 q-19 -21 -47 -43 ZM31 -27 l-17 6 q13 39 23 90 q8 -3 17 -6 q-11 -44 -23 -90 ZM54 159 q-5 5 -20 18 q-12 11 -17 16 l11 10 q2 -1 6 -5 q26 -21 33 -28 l-13 -11 ZM45 95 q-6 5 -20 17 q-12 10 -18 15 l11 11 q3 -3 12 -10 q21 -16 27 -21 l-12 -12 Z" /><glyph glyph-name="" unicode="&#x6d77;" d="M62 71 l0 15 l25 0 l8 61 l131 0 l-1 -61 l25 0 l0 -15 l-26 0 l-2 -48 l20 0 l0 -14 l-20 0 q-2 -37 -40 -36 q-14 0 -32 0 q-1 3 -2 9 q-2 5 -2 7 q5 0 15 0 q11 -1 17 -1 q27 -1 28 21 l-128 0 l8 62 l-24 0 ZM207 23 q1 15 1 48 l-106 0 l-6 -48 l111 0 ZM110 133 l-7 -47 l106 0 l0 47 l-99 0 ZM71 129 q-5 6 -11 12 q32 32 50 71 l16 -3 q-1 -2 -2 -5 q-6 -11 -10 -17 l131 0 l0 -14 l-139 0 q-12 -20 -35 -44 ZM30 -28 l-17 5 q10 32 24 89 q8 -4 17 -7 q-7 -21 -21 -75 q-2 -8 -3 -12 ZM45 98 q-21 18 -38 30 l11 12 q21 -14 38 -29 l-11 -13 ZM52 163 q-18 18 -36 32 l11 11 q8 -6 25 -21 q8 -7 12 -10 l-12 -12 ZM167 93 q-3 2 -8 7 q-14 12 -22 17 l9 9 q12 -8 30 -22 l-9 -11 ZM163 29 q-8 8 -25 22 q1 -1 -3 2 l8 9 q12 -8 30 -22 l-10 -11 Z" /><glyph glyph-name="" unicode="&#x6d78;" d="M238 -27 q-56 12 -82 27 q-31 -17 -86 -29 q-2 7 -8 15 q48 10 79 21 q-22 14 -41 45 l-11 0 l0 14 l128 0 l0 -15 q-19 -27 -45 -44 q27 -11 74 -18 q-3 -5 -8 -16 ZM83 119 l0 13 l125 0 l0 20 l-116 0 l0 12 l116 0 l0 21 l-122 0 l0 13 l139 0 l0 -79 l-142 0 ZM69 62 l0 36 l173 0 l0 -35 l-16 0 l0 22 l-141 0 l0 -23 l-16 0 ZM199 52 l-82 0 q18 -25 39 -37 q22 13 43 37 ZM30 -28 l-17 8 q18 42 29 85 q3 -2 10 -4 q4 -2 6 -3 q-8 -22 -24 -74 q-3 -8 -4 -12 ZM57 161 q-21 18 -39 31 l11 12 q7 -5 26 -20 q9 -7 13 -10 l-11 -13 ZM45 96 q-22 20 -38 31 l11 11 q17 -12 39 -29 l-12 -13 Z" /><glyph glyph-name="" unicode="&#x6d88;" d="M85 -29 l0 169 l66 0 l0 70 l16 0 l0 -70 l66 0 l0 -135 q2 -29 -30 -30 q-16 0 -30 0 q0 1 0 3 q-1 5 -4 14 q13 -1 29 -1 q20 -1 19 16 l0 20 l-115 0 l0 -56 l-17 0 ZM102 77 l0 -35 l115 0 l0 35 l-115 0 ZM102 125 l0 -34 l115 0 l0 34 l-115 0 ZM30 -27 l-18 6 q12 31 27 92 q3 -1 9 -3 q5 -2 8 -3 q-12 -37 -26 -92 ZM47 95 q-2 2 -7 6 q-24 19 -34 27 l11 13 q3 -2 9 -7 q22 -16 33 -26 l-12 -13 ZM55 159 q-1 1 -5 4 q-24 23 -36 32 l12 11 q10 -8 30 -25 q8 -6 11 -9 l-12 -13 ZM204 152 l-12 11 q12 12 32 35 q-1 -1 2 3 l12 -10 q-14 -18 -34 -39 ZM113 154 q-3 4 -9 10 q-8 11 -23 27 l12 10 q7 -7 22 -24 q7 -8 11 -12 l-13 -11 Z" /><glyph glyph-name="" unicode="&#x6da6;" d="M177 -25 q-1 11 -3 17 q4 0 14 0 q13 -1 18 -1 q19 -1 18 16 l0 173 l-81 0 l0 15 l98 0 l0 -191 q1 -28 -30 -28 q-11 -1 -34 -1 ZM110 134 l0 14 l96 0 l0 -14 l-40 0 l0 -40 l37 0 l0 -14 l-37 0 l0 -43 l43 0 l0 -13 l-102 0 l0 13 l43 0 l0 43 l-36 0 l0 14 l36 0 l0 40 l-40 0 ZM76 -29 l0 193 l16 0 l0 -193 l-16 0 ZM30 -27 l-17 6 q14 40 24 89 q2 0 9 -3 q6 -2 8 -3 q-16 -58 -24 -89 ZM49 159 q-12 13 -35 36 l12 9 q20 -18 36 -34 l-13 -11 ZM42 95 q-7 9 -32 32 q-2 1 -3 2 l12 9 q25 -20 37 -32 l-14 -11 ZM114 169 q-4 6 -22 27 q2 -3 -4 5 l13 8 q13 -13 28 -31 l-15 -9 Z" /><glyph glyph-name="" unicode="&#x6de1;" d="M76 -30 q-4 7 -10 15 q76 25 83 72 q3 19 3 44 l17 0 q0 -4 -1 -12 q-1 -16 -2 -24 q18 -58 82 -77 q-2 -3 -6 -9 q-3 -4 -4 -6 q-64 26 -78 69 q-11 -46 -84 -72 ZM234 93 q-47 31 -76 48 q-13 -28 -73 -51 q-1 1 -2 3 q-6 8 -9 11 q70 23 75 61 q4 17 5 45 l16 0 q0 -29 -4 -47 l-2 -8 q43 -25 79 -48 l-9 -14 ZM30 -27 l-17 6 q14 40 27 90 q12 -6 16 -7 q-6 -20 -20 -67 q-4 -15 -6 -22 ZM56 159 q-11 11 -31 28 q-5 4 -7 6 l11 11 q9 -7 33 -27 q4 -3 6 -5 l-12 -13 ZM45 96 q-16 14 -38 32 l11 11 q17 -12 39 -31 l-12 -12 ZM203 150 l-13 10 q19 16 35 33 l13 -9 q-25 -25 -35 -34 ZM201 38 l-12 10 q17 15 33 33 l14 -10 q-15 -15 -35 -33 ZM114 149 q-14 16 -32 35 l13 10 q5 -5 16 -17 q12 -12 16 -17 l-13 -11 ZM114 37 q-5 6 -16 18 q-11 12 -16 17 l12 9 q8 -7 24 -23 q6 -7 9 -10 l-13 -11 Z" /><glyph glyph-name="" unicode="&#x6df1;" d="M77 74 l0 14 l74 0 l0 32 l16 0 l0 -32 l78 0 l0 -14 l-72 0 q27 -42 77 -70 q-6 -5 -11 -12 q-49 28 -72 69 l0 -90 l-16 0 l0 90 q-28 -45 -78 -72 q-1 1 -2 2 q-3 5 -9 10 q53 29 82 73 l-67 0 ZM83 152 l0 42 l156 0 l0 -42 l-17 0 l0 27 l-123 0 l0 -27 l-16 0 ZM28 -27 l-16 6 q7 20 21 65 q5 18 8 26 q7 -3 16 -6 q-19 -57 -29 -91 ZM227 105 q-24 19 -55 42 l10 11 q12 -8 35 -25 q14 -10 21 -15 l-11 -13 ZM91 104 q-6 8 -10 12 q26 18 54 42 l11 -10 q-28 -25 -55 -44 ZM57 161 q-12 11 -36 29 q-4 2 -5 3 l12 12 q6 -4 17 -13 q16 -12 24 -18 l-12 -13 ZM48 97 q-19 17 -41 32 l11 12 q2 -1 6 -4 q17 -12 36 -28 l-12 -12 Z" /><glyph glyph-name="" unicode="&#x6dfb;" d="M85 180 l0 15 l145 0 l0 -15 l-69 0 q-4 -22 -11 -40 l93 0 l0 -15 l-63 0 q24 -36 69 -50 q-2 -3 -5 -9 q-3 -4 -4 -6 q-55 22 -76 65 l-21 0 q-18 -36 -70 -69 q-1 1 -2 3 q-2 3 -9 11 q46 25 64 55 l-54 0 l0 15 l61 0 q8 18 11 40 l-59 0 ZM100 -27 q-1 3 -2 7 q-2 6 -3 9 q14 0 27 0 q15 0 14 12 l0 87 l16 0 l0 -88 q1 -27 -26 -26 q-13 -1 -26 -1 ZM30 -27 l-18 5 q12 37 23 91 q3 -1 8 -3 q6 -2 8 -3 q-3 -13 -10 -44 q-7 -30 -11 -46 ZM230 0 q-15 31 -31 58 l14 6 q9 -17 28 -53 q-1 2 3 -5 l-14 -6 ZM85 -1 q-6 2 -15 5 q19 32 28 56 l15 -5 q-11 -28 -28 -56 ZM184 -5 q-6 20 -19 58 l13 4 q9 -21 21 -57 l-15 -5 ZM46 97 q-23 20 -39 32 l11 12 q4 -3 12 -9 q8 -6 28 -22 l-12 -13 ZM53 161 q-22 21 -38 33 l11 12 q2 -2 7 -6 q14 -10 33 -26 l-13 -13 Z" /><glyph glyph-name="" unicode="&#x6e05;" d="M85 -28 l0 121 l145 0 l0 -93 q1 -25 -30 -26 q-4 0 -17 0 q-13 -1 -18 -1 q0 0 0 1 q-1 7 -5 15 q12 -1 35 -1 q19 -1 18 14 l0 12 l-112 0 l0 -42 l-16 0 ZM75 176 l0 13 l73 0 l0 21 l17 0 l0 -21 l80 0 l0 -13 l-80 0 l0 -19 l72 0 l0 -13 l-72 0 l0 -20 l84 0 l0 -13 l-180 0 l0 13 l79 0 l0 20 l-67 0 l0 13 l67 0 l0 19 l-73 0 ZM101 47 l0 -21 l112 0 l0 21 l-112 0 ZM101 80 l0 -21 l112 0 l0 21 l-112 0 ZM30 -27 l-17 6 q17 49 26 88 q1 0 4 -2 q10 -3 13 -5 q-5 -17 -16 -53 q-7 -24 -10 -34 ZM44 96 q-3 3 -9 7 q-18 16 -30 25 l12 12 q4 -3 13 -10 q18 -14 26 -21 l-12 -13 ZM54 161 q-18 17 -37 32 l11 11 q18 -14 38 -31 l-12 -12 Z" /><glyph glyph-name="" unicode="&#x6e29;" d="M56 -19 l0 15 l23 0 l0 79 l152 0 l0 -79 l18 0 l0 -15 l-193 0 ZM89 101 l0 96 l133 0 l0 -96 l-133 0 ZM104 143 l0 -28 l102 0 l0 28 l-102 0 ZM104 184 l0 -28 l102 0 l0 28 l-102 0 ZM94 61 l0 -65 l31 0 l0 65 l-31 0 ZM140 61 l0 -65 l30 0 l0 65 l-30 0 ZM216 61 l-31 0 l0 -65 l31 0 l0 65 ZM31 -27 l-17 5 q14 50 23 95 q8 -3 16 -5 q-2 -7 -7 -28 q-11 -48 -15 -67 ZM53 160 q-4 4 -13 12 q-17 16 -25 23 l12 11 q23 -19 39 -33 l-13 -13 ZM45 97 q-7 6 -20 18 q-12 10 -19 16 l11 10 q12 -9 35 -28 q3 -3 5 -4 l-12 -12 Z" /><glyph glyph-name="" unicode="&#x6e2f;" d="M76 167 l0 14 l34 0 l0 28 l15 0 l0 -28 l53 0 l0 28 l16 0 l0 -28 l42 0 l0 -14 l-42 0 l0 -35 l51 0 l0 -14 l-54 0 q20 -36 57 -55 l-9 -14 q-26 18 -41 35 l0 -57 l-89 0 l0 -18 q0 -16 18 -16 l66 0 q19 0 23 14 q1 4 3 15 q1 6 2 9 q8 -3 15 -5 q-3 -16 -6 -26 q-7 -23 -34 -22 l-74 0 q-27 1 -28 28 l0 64 q-13 -13 -30 -25 q-3 6 -9 14 q37 21 59 59 l-50 0 l0 14 l46 0 l0 35 l-34 0 ZM109 72 l0 -32 l74 0 l0 32 l-74 0 ZM131 118 q-11 -18 -23 -33 l89 0 q-13 15 -22 33 l-44 0 ZM125 167 l0 -35 l53 0 l0 35 l-53 0 ZM30 -28 l-18 6 q12 43 22 95 q9 -3 17 -6 q-12 -50 -21 -95 ZM52 158 q-6 6 -19 19 q-13 12 -18 17 l13 10 q16 -15 37 -34 l-13 -12 ZM44 96 q-17 18 -38 35 l12 10 q20 -16 39 -33 l-13 -12 Z" /><glyph glyph-name="" unicode="&#x6e38;" d="M59 150 l0 15 l84 0 l0 -15 l-50 0 q0 -22 -1 -41 l46 0 q0 -16 -1 -51 q-1 -35 -2 -51 q0 -29 -29 -29 q-8 0 -17 0 l-3 16 q9 -1 15 -1 q19 -1 19 16 q0 8 1 26 q2 42 2 60 l-31 0 q0 -1 0 -4 q-1 -3 -1 -5 q-2 -77 -32 -114 q-1 1 -6 5 q-5 4 -7 6 q28 32 31 104 q1 26 1 63 l-19 0 ZM148 57 l0 14 l45 0 l0 16 l31 31 l-62 0 l0 14 l79 0 l0 -16 l-33 -34 l0 -11 l41 0 l0 -14 l-41 0 l0 -55 q1 -26 -27 -26 q-8 -1 -25 -1 q-1 3 -2 12 q0 -2 -1 5 q6 -1 25 -1 q16 -1 15 14 l0 52 l-45 0 ZM150 120 q-2 1 -8 6 q-3 3 -5 4 q26 35 41 81 l16 -3 q-6 -18 -13 -34 l68 0 l0 -14 l-75 0 q-10 -22 -24 -40 ZM28 -27 l-16 6 q12 38 22 89 q6 -1 16 -6 q-8 -32 -22 -89 ZM39 100 q-12 11 -34 29 l11 12 q17 -14 34 -29 l-11 -12 ZM101 165 q-2 10 -11 34 q-1 5 -2 7 l16 3 q1 -3 3 -10 q6 -17 9 -30 l-15 -4 ZM45 165 q-16 16 -31 29 l11 10 q20 -16 31 -27 l-11 -12 Z" /><glyph glyph-name="" unicode="&#x6e56;" d="M139 -29 q-1 1 -2 2 q-4 3 -12 8 q23 24 31 50 q7 24 7 78 l0 89 l70 0 l0 -198 q0 -24 -24 -24 q-7 -1 -24 -1 q0 3 -2 11 q-1 4 -1 6 q11 -1 22 -1 q15 0 14 10 l0 58 l-42 0 q-2 -48 -37 -88 ZM63 146 l0 14 l35 0 l0 49 l16 0 l0 -49 l33 0 l0 -14 l-33 0 l0 -44 l27 0 l0 -86 l-55 0 l0 -16 l-15 0 l0 102 l27 0 l0 44 l-35 0 ZM86 87 l0 -56 l40 0 l0 56 l-40 0 ZM178 109 q0 -21 -1 -36 l41 0 l0 48 l-40 0 l0 -12 ZM178 183 l0 -48 l40 0 l0 48 l-40 0 ZM29 -26 l-17 6 q10 29 24 87 q1 -1 4 -2 q8 -3 12 -4 q-5 -20 -16 -61 q-5 -18 -7 -26 ZM42 96 q-8 7 -21 19 q-9 8 -14 12 l10 11 q15 -11 36 -29 l-11 -13 ZM50 162 q-22 22 -34 31 l12 11 q18 -14 34 -29 l-12 -13 Z" /><glyph glyph-name="" unicode="&#x6e7e;" d="M140 -26 q0 1 0 2 q-1 6 -4 14 q15 -1 48 -1 q24 -1 26 15 q1 4 2 12 q1 8 1 11 l-133 0 l10 49 l116 0 l0 22 l-124 0 l0 13 l139 0 l0 -49 l-117 0 l-5 -21 l131 0 q-1 -27 -3 -38 q-3 -29 -40 -28 q-18 -1 -47 -1 ZM74 172 l0 14 l76 0 q-3 12 -6 22 l17 3 q3 -12 6 -25 l77 0 l0 -14 l-59 0 l0 -50 l-16 0 l0 50 l-29 0 l0 -50 l-15 0 l0 50 l-51 0 ZM29 -26 l-17 6 q13 32 31 89 q7 -3 16 -6 q-19 -53 -30 -89 ZM42 96 q-8 8 -24 22 q-8 7 -12 11 l12 10 q19 -16 37 -31 l-13 -12 ZM70 116 q-1 2 -6 7 q-3 3 -4 5 q23 14 41 32 l12 -10 q-18 -17 -43 -34 ZM239 117 q-23 18 -42 32 l9 10 q24 -15 43 -30 l-10 -12 ZM50 162 q-17 17 -35 32 l12 10 q7 -6 4 -4 q20 -16 31 -26 l-12 -12 Z" /><glyph glyph-name="" unicode="&#x6e90;" d="M119 53 l0 95 l36 0 l9 31 l-69 0 l0 -69 q2 -93 -32 -139 q-6 5 -14 11 q32 38 30 128 l0 84 l170 0 l0 -15 l-69 0 l-9 -31 l60 0 l0 -95 l-48 0 l0 -54 q1 -25 -24 -26 q-11 0 -23 0 q-1 7 -3 15 q10 0 22 0 q13 -1 12 12 l0 53 l-48 0 ZM134 134 l0 -27 l82 0 l0 27 l-82 0 ZM134 94 l0 -27 l82 0 l0 27 l-82 0 ZM28 -26 l-16 5 q9 31 22 91 q5 -2 15 -5 q-2 -7 -5 -23 q-12 -46 -16 -68 ZM238 -17 q-15 19 -39 46 l12 8 q22 -24 40 -44 l-13 -10 ZM106 -19 l-11 10 q24 23 37 46 l13 -8 q-13 -19 -39 -48 ZM53 161 q-4 4 -12 12 q-17 15 -25 22 l12 10 q20 -15 38 -32 l-13 -12 ZM45 96 q-11 11 -33 29 q2 -2 -5 4 l11 11 q16 -11 39 -31 l-12 -13 Z" /><glyph glyph-name="" unicode="&#x6ee1;" d="M101 1 q-2 2 -6 5 q-4 4 -6 5 q28 28 31 71 l-33 0 l0 -111 l-15 0 l0 125 l47 0 q1 11 1 29 l-54 0 l0 14 l180 0 l0 -14 l-55 0 q0 -14 0 -29 l47 0 l0 -96 q1 -26 -26 -26 q-3 0 -12 0 q-11 -1 -15 -1 q0 3 -2 11 q-1 3 -1 5 q4 0 13 -1 q9 0 12 0 q15 0 15 13 l0 81 l-33 0 q0 -13 -3 -24 q10 -9 25 -25 q7 -7 10 -10 l-11 -11 q-13 16 -27 31 q-8 -25 -29 -46 q-2 3 -8 6 q-2 1 -3 2 q30 31 32 77 l-41 0 q0 -3 -1 -9 q0 -6 -1 -9 q14 -14 26 -26 l-10 -11 q-1 1 -2 3 q-8 9 -18 19 q-7 -26 -27 -48 ZM66 169 l0 14 l47 0 l0 27 l16 0 l0 -27 l54 0 l0 27 l16 0 l0 -27 l47 0 l0 -14 l-47 0 l0 -20 l-16 0 l0 20 l-54 0 l0 -20 l-16 0 l0 20 l-47 0 ZM27 -27 l-17 5 q10 33 24 93 q8 -4 16 -6 q-5 -18 -15 -61 q-6 -21 -8 -31 ZM135 125 q0 -17 -1 -29 l42 0 q0 16 0 29 l-41 0 ZM47 161 q-18 20 -35 35 l12 10 q7 -7 24 -22 q8 -7 12 -11 l-13 -12 ZM42 95 q-4 4 -12 11 q-17 16 -24 22 l11 10 q7 -5 19 -15 q13 -10 19 -16 l-13 -12 Z" /><glyph glyph-name="" unicode="&#x6ee8;" d="M62 26 l0 14 l31 0 l0 99 q75 2 119 7 l5 -14 q-59 -6 -108 -7 l0 -29 l126 0 l0 -14 l-53 0 l0 -42 l67 0 l0 -14 l-187 0 ZM73 146 l0 38 l76 0 q-3 12 -6 24 l17 2 q3 -11 6 -26 l75 0 l0 -37 l-16 0 l0 22 l-136 0 l0 -23 l-16 0 ZM109 82 l0 -42 l57 0 l0 42 l-57 0 ZM27 -27 l-17 6 q16 44 29 88 q6 -3 15 -6 q-2 -6 -7 -22 q-15 -48 -20 -66 ZM75 -29 q-1 2 -4 7 q-3 4 -5 7 q34 14 61 31 l10 -12 q-29 -16 -62 -33 ZM233 -27 q-5 3 -15 8 q-30 18 -44 23 l9 12 q6 -3 19 -10 q25 -11 40 -20 l-9 -13 ZM44 98 q-16 15 -37 30 l10 12 q2 -2 6 -5 q21 -15 32 -25 l-11 -12 ZM50 164 q-17 16 -35 31 l11 11 q4 -4 13 -10 q5 -4 22 -19 l-11 -13 Z" /><glyph glyph-name="" unicode="&#x7075;" d="M30 94 l0 14 l174 0 l0 30 l-165 0 l0 14 l165 0 l0 30 l-171 0 l0 14 l188 0 l0 -102 l-191 0 ZM16 -30 q-3 8 -8 17 q88 14 106 63 q5 11 9 35 l18 -1 q-3 -14 -6 -25 q29 -58 112 -69 q-5 -8 -8 -17 q-84 16 -111 68 q-21 -52 -112 -71 ZM65 27 q-17 20 -35 38 l12 10 q12 -11 36 -37 l-13 -11 ZM188 26 l-12 11 q18 17 36 37 l13 -10 q-6 -6 -18 -18 q-12 -13 -19 -20 Z" /><glyph glyph-name="" unicode="&#x70b9;" d="M38 49 l0 82 l77 0 l0 80 l17 0 l0 -31 l112 0 l0 -15 l-112 0 l0 -34 l89 0 l0 -82 l-183 0 ZM55 116 l0 -52 l149 0 l0 52 l-149 0 ZM23 -27 l-16 8 q22 33 30 50 l16 -6 q-9 -18 -30 -52 ZM229 -23 q-10 21 -27 48 l15 6 q15 -23 28 -47 l-16 -7 ZM158 -21 q-11 28 -20 47 l16 5 q12 -26 21 -46 l-17 -6 ZM94 -23 q-3 11 -11 35 q-3 9 -4 13 l15 3 q10 -25 17 -47 l-17 -4 Z" /><glyph glyph-name="" unicode="&#x70c8;" d="M18 182 l0 14 l127 0 l0 -14 l-59 0 q-9 -18 -19 -33 l70 0 l0 -15 q-26 -71 -113 -102 q-2 3 -6 9 q-3 3 -4 5 q83 28 107 89 l-64 0 q-4 -6 -9 -12 q5 -3 14 -10 q14 -10 21 -15 l-10 -11 q-15 10 -35 26 q-6 -6 -19 -18 q9 8 -3 -2 q-2 3 -7 9 q-2 3 -3 4 q40 30 62 76 l-50 0 ZM170 44 q0 3 -1 8 q-1 6 -2 8 q3 0 12 0 q13 -1 18 -1 q19 -1 18 20 l0 129 l16 0 l0 -132 q2 -31 -29 -32 q-12 0 -32 0 ZM161 88 l0 100 l15 0 l0 -100 l-15 0 ZM27 -28 q-3 1 -7 3 q-6 2 -9 3 q18 33 25 50 l16 -5 q-1 -3 -4 -9 q-6 -14 -21 -42 ZM227 -22 q-9 17 -28 47 l15 6 q1 -1 2 -3 q17 -28 26 -43 l-15 -7 ZM159 -21 q-5 15 -16 36 q-3 6 -4 9 l15 5 q5 -9 13 -26 q6 -11 9 -18 l-17 -6 ZM98 -24 q-7 19 -20 47 l15 4 q8 -16 20 -46 l-15 -5 Z" /><glyph glyph-name="" unicode="&#x70d8;" d="M101 140 l0 15 l24 0 l0 52 l16 0 l0 -52 l49 0 l0 52 l16 0 l0 -52 l33 0 l0 -15 l-33 0 l0 -73 l41 0 l0 -15 l-155 0 l0 15 l33 0 l0 73 l-24 0 ZM83 10 q-2 4 -8 12 q-13 21 -22 33 q-8 -43 -34 -78 q-7 7 -13 10 q37 43 37 129 q1 32 1 92 l16 0 q0 -52 -2 -89 q0 -25 -3 -45 q20 -24 41 -52 l-13 -12 ZM141 140 l0 -73 l49 0 l0 73 l-49 0 ZM97 -28 q-10 10 -13 12 q29 25 55 55 l13 -10 q-22 -27 -55 -57 ZM236 -28 q-30 31 -56 57 l13 10 q26 -27 56 -55 l-13 -12 ZM20 104 q-3 14 -13 47 q-1 6 -2 9 l14 4 q3 -10 9 -32 q4 -16 6 -24 l-14 -4 ZM75 107 l-13 7 q13 25 22 53 l13 -7 q-13 -34 -22 -53 Z" /><glyph glyph-name="" unicode="&#x70ed;" d="M171 72 q-15 11 -29 20 q-14 -30 -49 -56 q-1 1 -3 3 q-5 6 -9 9 q35 24 48 54 q-13 9 -28 18 l9 12 l24 -15 q6 24 6 42 l-32 0 l0 15 l33 0 q0 19 0 36 l16 0 q0 -19 -1 -36 l55 0 q0 -54 1 -67 q0 -19 3 -31 q3 -17 11 -18 q6 0 8 12 q3 13 4 31 q8 -3 14 -5 q-2 -19 -5 -33 q-5 -21 -21 -22 q-22 1 -27 31 q-4 24 -4 87 l-39 0 q-1 -28 -8 -51 q17 -10 33 -21 l-10 -15 ZM13 159 l0 15 l34 0 l0 36 l16 0 l0 -36 l29 0 l0 -15 l-29 0 l0 -36 l29 7 q0 -6 0 -16 l-29 -7 l0 -38 q1 -28 -25 -27 q-10 -1 -22 -1 q0 8 -3 17 q7 -1 21 -1 q14 -1 13 14 l0 32 l-36 -10 l-4 17 q20 3 40 9 l0 40 l-34 0 ZM28 -29 l-16 7 q18 28 25 47 l15 -5 q-9 -21 -24 -49 ZM230 -22 q-6 13 -19 33 q-5 8 -8 13 l15 6 q14 -21 28 -44 l-16 -8 ZM161 -21 q-1 1 -2 4 q-9 22 -17 37 l15 5 q11 -19 21 -41 l-17 -5 ZM97 -24 q-7 21 -18 42 l15 5 q5 -10 13 -26 q4 -10 7 -15 l-17 -6 Z" /><glyph glyph-name="" unicode="&#x7115;" d="M99 125 q-5 7 -12 12 q33 27 54 73 l16 -3 q-5 -12 -11 -22 l69 0 l0 -15 l-26 -37 l43 0 l0 -74 l17 0 l0 -15 l-71 0 q18 -40 71 -56 q-6 -8 -9 -16 q-55 21 -72 62 q-12 -40 -82 -64 q-4 7 -9 16 q69 19 79 58 l-70 0 l0 15 l19 0 l0 72 l-6 -6 ZM82 9 q-13 20 -33 45 q-4 -39 -31 -79 l-12 11 q33 42 34 132 q0 8 0 34 q1 38 1 56 l15 0 q0 -17 -1 -54 q0 -27 0 -35 q-1 -14 -3 -36 q-1 -14 -1 -20 l5 6 q28 -36 38 -50 l-12 -10 ZM216 119 l-40 0 l0 -33 q0 -15 -2 -27 l42 0 l0 60 ZM120 119 l0 -60 l39 0 q2 12 2 27 l0 33 l-41 0 ZM197 171 l-60 0 q-12 -20 -30 -38 l63 0 l27 38 ZM18 101 q-5 25 -13 57 l13 3 q7 -27 13 -56 l-13 -4 ZM69 104 l-12 7 q15 28 22 52 l13 -6 q-4 -11 -17 -39 q-4 -10 -6 -14 Z" /><glyph glyph-name="" unicode="&#x7119;" d="M105 -29 l0 96 l125 0 l0 -96 l-16 0 l0 17 l-93 0 l0 -17 l-16 0 ZM121 52 l0 -52 l93 0 l0 52 l-93 0 ZM81 9 q-3 4 -9 13 q-14 20 -21 30 q-7 -41 -34 -79 q-1 2 -5 6 q-4 4 -6 6 q35 47 36 120 q2 26 2 104 l16 0 q0 -58 -2 -103 q-1 -19 -4 -36 q5 -6 13 -16 q18 -23 26 -34 l-12 -11 ZM89 95 l0 15 l89 0 q7 10 20 30 q7 10 10 15 l15 -7 q-1 -1 -3 -5 q-15 -22 -24 -33 l53 0 l0 -15 l-160 0 ZM99 164 l0 14 l67 0 q-7 14 -15 27 l16 6 q7 -14 16 -29 l-10 -4 l68 0 l0 -14 l-142 0 ZM21 99 q-3 13 -9 36 q-3 15 -5 22 l12 3 q3 -9 8 -30 q4 -18 7 -28 l-13 -3 ZM73 102 l-12 6 q12 29 19 54 l13 -7 q-3 -7 -9 -23 q-7 -19 -11 -30 ZM138 115 q-1 2 -4 6 q-12 17 -20 26 l13 8 q12 -14 25 -32 l-14 -8 Z" /><glyph glyph-name="" unicode="&#x7136;" d="M16 104 q-3 7 -10 13 q36 37 59 94 l15 -3 q-6 -15 -12 -28 l60 0 l0 -15 q-22 -90 -103 -135 q-4 5 -12 13 q36 19 58 43 q-7 5 -21 15 q-10 6 -14 9 l9 11 q4 -3 15 -10 q14 -9 21 -13 q6 9 12 18 q-8 5 -25 16 q-8 5 -11 7 l8 10 q6 -3 20 -11 q10 -6 14 -8 q8 17 13 36 l-52 0 q-17 -33 -44 -62 ZM131 132 l0 15 l33 0 q2 18 2 62 l17 0 q0 -5 -1 -21 q-1 -28 -2 -41 l65 0 l0 -15 l-63 0 q11 -54 67 -79 q-1 -1 -4 -5 q-5 -6 -7 -9 q-54 27 -65 76 q-11 -50 -63 -79 l-11 13 q58 32 63 83 l-31 0 ZM28 -27 l-15 6 q11 19 25 48 l16 -6 q-11 -21 -26 -48 ZM230 -22 q-7 13 -21 36 q-4 6 -6 10 l14 7 q13 -18 29 -46 l-16 -7 ZM99 -24 q-9 22 -18 42 l15 5 q2 -3 4 -9 q9 -18 15 -32 l-16 -6 ZM162 -21 q-9 21 -20 41 l16 5 q7 -15 20 -40 l-16 -6 ZM224 161 q-14 14 -31 28 l12 9 q5 -4 16 -14 q10 -9 15 -14 l-12 -9 Z" /><glyph glyph-name="" unicode="&#x7231;" d="M11 87 l0 14 l71 0 q1 4 4 12 q2 7 3 11 l17 -2 q-3 -10 -6 -21 l147 0 l0 -14 l-153 0 q-5 -12 -11 -23 l134 0 l0 -16 q-25 -25 -56 -43 q36 -10 86 -15 q-1 -2 -3 -6 q-1 -3 -5 -10 q-56 7 -97 24 q-33 -15 -99 -28 q-1 3 -5 10 q-2 4 -3 6 q48 7 88 19 q-28 15 -51 39 q-23 -36 -57 -60 q-4 8 -9 14 q48 33 70 89 l-65 0 ZM18 112 l0 33 l47 0 q-3 5 -9 14 q-6 10 -9 14 l14 5 q9 -12 18 -27 l-14 -6 l111 0 q2 3 6 9 q13 18 18 27 l16 -6 q-5 -6 -15 -21 q-5 -6 -7 -9 l45 0 l0 -33 l-16 0 l0 19 l-189 0 l0 -19 l-16 0 ZM25 182 q-1 8 -3 15 q112 0 211 6 l4 -14 q-130 -6 -212 -7 ZM196 50 l-108 0 q27 -26 54 -37 q32 15 54 37 ZM132 146 q-7 15 -16 30 l15 5 q9 -14 16 -29 l-15 -6 Z" /><glyph glyph-name="" unicode="&#x723d;" d="M238 -27 q-98 16 -110 75 q-8 -54 -110 -78 q-2 3 -5 8 q-3 5 -5 8 q65 13 88 36 q24 22 23 71 l0 73 l-105 0 l0 14 l105 0 l0 30 l16 0 l0 -30 l107 0 l0 -14 l-107 0 l0 -86 q5 -80 112 -91 q-5 -8 -9 -16 ZM93 31 q-6 5 -18 15 q-7 5 -11 8 q-17 -13 -35 -24 q-6 8 -10 12 q19 10 33 20 l-28 20 l10 10 q3 -2 9 -6 q6 -5 20 -14 q4 4 13 11 q8 8 12 12 l11 -8 q-10 -12 -24 -24 q7 -4 20 -14 q6 -4 9 -6 l-11 -12 ZM223 32 l-31 22 q-15 -12 -31 -21 q-3 4 -10 11 q15 9 29 19 q-6 4 -18 12 q-7 6 -11 8 l9 10 q5 -3 16 -10 q10 -7 15 -11 q14 10 24 22 l12 -8 q-4 -4 -12 -12 q-8 -7 -11 -10 l29 -20 l-10 -12 ZM94 98 q-15 9 -30 20 q-16 -11 -34 -20 q-2 2 -7 7 q-2 3 -3 4 q18 8 32 17 q-7 4 -19 12 q-7 4 -10 6 l9 10 q17 -9 33 -20 q12 11 26 21 l10 -8 q-12 -11 -24 -20 l27 -18 l-10 -11 ZM223 98 q-15 9 -30 20 q-17 -11 -35 -20 q0 1 -1 2 q-5 6 -9 9 q18 9 32 17 q-8 6 -23 15 q-3 2 -5 3 l9 10 q3 -2 9 -5 q6 -4 23 -14 q14 9 26 21 l11 -9 q-12 -11 -25 -20 l28 -18 l-10 -11 Z" /><glyph glyph-name="" unicode="&#x724c;" d="M109 71 l0 114 l44 0 q1 5 3 13 q2 9 3 13 l16 -2 q-3 -12 -7 -24 l67 0 l0 -114 l-68 0 q-13 -21 -43 -39 l54 0 l0 28 l16 0 l0 -28 l55 0 l0 -14 l-55 0 l0 -47 l-16 0 l0 47 l-83 0 l0 14 l27 0 q-1 2 -3 4 q-4 5 -6 7 q25 13 37 28 l-41 0 ZM19 -28 q-8 6 -14 9 q10 21 13 42 q3 20 3 61 l0 116 l16 0 l0 -74 l29 0 l0 80 l15 0 l0 -80 l16 0 l0 -14 l-60 0 l0 -28 l0 -5 l46 0 l0 -105 l-15 0 l0 91 l-32 0 q1 -54 -17 -93 ZM220 85 l0 37 l-41 0 q0 -21 -6 -37 l47 0 ZM124 171 l0 -36 l41 0 l0 36 l-41 0 ZM220 171 l-41 0 l0 -36 l41 0 l0 36 ZM158 85 q6 15 7 37 l-41 0 l0 -37 l34 0 Z" /><glyph glyph-name="" unicode="&#x7269;" d="M102 108 q-2 2 -6 4 q-5 4 -7 6 q26 36 44 92 l15 -4 q-6 -19 -14 -37 l105 0 q-1 -41 -5 -141 q0 -7 0 -10 q-1 -39 -40 -40 q-4 0 -16 0 q-12 -1 -17 -1 q-1 9 -3 18 q17 -1 33 -1 q27 -1 27 27 q0 7 1 26 q3 93 3 107 l-21 0 q-7 -127 -85 -178 q-3 4 -12 13 q76 52 83 165 l-24 0 q-10 -83 -67 -132 q-4 5 -13 12 q55 46 66 120 l-22 0 q-12 -26 -25 -46 ZM17 99 q-5 4 -12 6 q12 34 16 81 l14 -2 q-1 -5 -2 -15 q-2 -12 -3 -18 l24 0 l0 59 l15 0 l0 -59 l25 0 l0 -15 l-25 0 l0 -54 q13 3 25 8 q0 -8 1 -16 l-26 -8 l0 -95 l-15 0 l0 89 q-9 -2 -27 -9 q-11 -4 -17 -6 l-3 17 l47 15 l0 59 l-27 0 q-3 -18 -10 -37 Z" /><glyph glyph-name="" unicode="&#x7279;" d="M17 99 q-3 2 -10 6 q-2 1 -3 1 q13 38 16 80 l14 -2 q-2 -17 -5 -32 l22 0 l0 57 l16 0 l0 -57 l28 0 l0 -15 l-28 0 l0 -55 q14 5 27 9 q0 -6 2 -14 q-1 0 0 -2 q-14 -4 -29 -9 l0 -95 l-16 0 l0 89 l-42 -14 l-3 17 q10 3 30 9 q10 3 15 5 l0 60 l-24 0 q-2 -8 -6 -22 q-3 -11 -4 -16 ZM110 162 l0 14 l55 0 l0 34 l17 0 l0 -34 l56 0 l0 -14 l-56 0 l0 -39 l67 0 l0 -15 l-150 0 l0 15 l66 0 l0 39 l-55 0 ZM101 58 l0 14 l96 0 l0 25 l16 0 l0 -25 l36 0 l0 -14 l-36 0 l0 -58 q1 -26 -30 -26 q-10 -1 -31 -1 q-1 7 -4 17 q10 -1 30 -1 q20 -1 19 16 l0 53 l-96 0 ZM141 5 q-18 22 -30 33 l11 9 q17 -15 32 -32 l-13 -10 Z" /><glyph glyph-name="" unicode="&#x72af;" d="M145 -21 q-33 -1 -32 32 l0 184 l116 0 q0 -38 -2 -96 q-1 -33 -34 -34 q-12 0 -29 0 q0 2 -1 7 q-1 7 -2 9 q13 0 28 0 q21 -1 21 21 q2 37 2 77 l-82 0 l0 -165 q-1 -20 21 -19 l50 0 q26 -1 28 19 q2 11 4 27 q9 -3 17 -5 q-1 -3 -1 -9 q-3 -15 -5 -23 q-4 -25 -40 -25 l-59 0 ZM18 116 q-4 7 -10 13 q13 8 33 27 q-11 19 -29 38 l11 9 q18 -17 30 -35 q14 15 26 32 l12 -9 q-15 -21 -31 -37 q21 -37 20 -123 q1 -52 -39 -53 q-4 0 -12 0 q-9 -1 -14 -1 q-1 5 -2 12 q-1 4 -1 6 q13 -1 25 -1 q28 -2 27 38 q0 30 -3 54 q-15 -23 -44 -47 q-1 2 -4 7 q-3 4 -5 6 q32 25 51 54 q-4 20 -11 36 q-15 -14 -30 -26 Z" /><glyph glyph-name="" unicode="&#x72ec;" d="M101 57 l0 106 l57 0 l0 46 l16 0 l0 -46 l57 0 l0 -96 l-57 0 l0 -62 l44 4 l-14 31 l14 6 q21 -45 30 -66 l-15 -5 q-3 9 -9 22 q-41 -3 -114 -10 q-13 -1 -19 -2 l-4 15 q19 0 71 4 l0 63 l-41 0 l0 -10 l-16 0 ZM16 38 q-4 8 -9 14 q27 21 50 53 q-3 20 -10 36 q-13 -14 -30 -26 q-4 7 -10 14 q18 11 33 26 q-10 19 -28 38 l12 9 q16 -17 28 -35 q13 15 25 33 l13 -9 q-15 -21 -31 -38 q19 -39 18 -116 q2 -58 -37 -58 q-4 0 -12 -1 q-9 0 -13 0 q0 9 -2 18 q5 -1 25 -1 q24 -3 23 42 q1 27 -2 47 q-18 -25 -43 -46 ZM117 147 l0 -65 l41 0 l0 65 l-41 0 ZM216 147 l-42 0 l0 -65 l42 0 l0 65 Z" /><glyph glyph-name="" unicode="&#x738b;" d="M24 172 l0 16 l207 0 l0 -16 l-95 0 l0 -73 l86 0 l0 -16 l-86 0 l0 -79 l109 0 l0 -14 l-234 0 l0 14 l108 0 l0 79 l-86 0 l0 16 l86 0 l0 73 l-95 0 Z" /><glyph glyph-name="" unicode="&#x73a9;" d="M96 104 l0 16 l150 0 l0 -16 l-52 0 l0 -96 q-1 -13 13 -12 l10 0 q14 0 15 11 q2 8 4 30 q2 0 7 -2 q5 -1 7 -2 q-2 -24 -3 -30 q-4 -23 -28 -23 l-16 0 q-26 -1 -25 25 l0 99 l-36 0 q0 -25 -2 -43 q-3 -55 -56 -91 q-5 6 -13 13 q50 29 53 78 q2 18 2 43 l-30 0 ZM9 174 l0 15 l79 0 l0 -15 l-31 0 l0 -63 l27 0 l0 -14 l-27 0 l0 -68 q17 5 33 9 q0 -7 0 -16 q-18 -4 -56 -15 q-16 -5 -25 -7 l-3 17 q6 2 19 5 q10 2 15 3 l0 72 l-30 0 l0 14 l30 0 l0 63 l-31 0 ZM110 173 l0 15 l122 0 l0 -15 l-122 0 Z" /><glyph glyph-name="" unicode="&#x73af;" d="M106 178 l0 15 l133 0 l0 -15 l-59 0 q-12 -38 -21 -57 l15 0 l0 -150 l-17 0 l0 145 q-19 -44 -57 -89 q-1 1 -4 4 q-2 3 -9 9 q51 53 76 138 l-57 0 ZM10 171 l0 15 l82 0 l0 -15 l-32 0 l0 -62 l31 0 l0 -16 l-31 0 l0 -73 q4 1 14 3 q12 3 18 4 q0 -9 0 -16 q-17 -4 -51 -11 q-21 -3 -32 -5 l-2 15 q2 0 6 1 q11 2 30 6 l0 76 l-31 0 l0 16 l31 0 l0 62 l-33 0 ZM233 28 q-27 43 -52 77 l14 8 q24 -33 52 -74 l-14 -11 Z" /><glyph glyph-name="" unicode="&#x73b0;" d="M195 -21 q-28 -1 -28 28 l0 55 q-10 -51 -82 -91 q-3 4 -12 13 q50 26 65 52 q17 25 19 78 q1 26 1 47 l17 0 q0 -32 -1 -42 q-1 -30 -6 -51 l15 0 l0 -59 q-1 -17 17 -15 l11 0 q16 -1 19 13 q3 17 3 30 l16 -6 q0 -13 -3 -28 q-4 -25 -35 -24 l-16 0 ZM103 51 l0 147 l127 0 l0 -146 l-17 0 l0 131 l-93 0 l0 -132 l-17 0 ZM8 174 l0 14 l86 0 l0 -14 l-35 0 l0 -68 l32 0 l0 -14 l-32 0 l0 -67 q28 4 36 5 q0 -2 1 -9 q0 -6 0 -7 q-57 -8 -87 -14 l-3 17 q7 1 37 5 l0 70 l-31 0 l0 14 l31 0 l0 68 l-35 0 Z" /><glyph glyph-name="" unicode="&#x73e0;" d="M106 114 q-7 2 -15 5 q18 36 25 73 l16 -3 q-4 -16 -9 -31 l33 0 l0 52 l16 0 l0 -52 l61 0 l0 -14 l-61 0 l0 -46 l70 0 l0 -14 l-67 0 q30 -50 75 -77 q-1 -2 -4 -4 q-5 -5 -7 -9 q-46 29 -67 74 l0 -97 l-16 0 l0 96 q-23 -44 -70 -74 q-3 4 -12 12 q52 32 78 79 l-61 0 l0 14 l65 0 l0 46 l-38 0 q-4 -16 -12 -30 ZM7 170 l0 15 l78 0 l0 -15 l-30 0 l0 -58 l27 0 l0 -15 l-27 0 l0 -64 l30 10 q0 -2 0 -6 q1 -7 1 -11 q-47 -15 -74 -26 l-6 17 l33 10 l0 70 l-27 0 l0 15 l27 0 l0 58 l-32 0 Z" /><glyph glyph-name="" unicode="&#x7403;" d="M239 0 q-49 42 -65 96 l0 -91 q1 -29 -32 -29 q-13 0 -25 0 q0 8 -3 17 q6 -1 25 -1 q20 -2 18 17 l0 47 q-39 -27 -58 -39 l-9 16 q45 26 67 41 l0 74 l-63 0 l0 15 l63 0 l0 45 l17 0 l0 -45 l71 0 l0 -15 l-71 0 l0 -9 q6 -30 17 -53 q23 22 38 40 l13 -10 q-11 -12 -41 -40 q23 21 -3 -3 q15 -28 52 -60 q-3 -3 -9 -11 q4 5 -2 -2 ZM8 168 l0 15 l80 0 l0 -15 l-31 0 l0 -65 l27 0 l0 -14 l-27 0 l0 -72 q17 3 32 6 q0 -7 0 -16 q-35 -5 -80 -12 l-2 15 q8 1 27 4 q4 1 6 1 l0 74 l-29 0 l0 14 l29 0 l0 65 l-32 0 ZM125 76 q-7 12 -23 36 q-3 5 -5 7 l13 7 q15 -19 29 -42 l-14 -8 ZM218 167 q-15 12 -32 24 l11 9 q20 -13 32 -23 l-11 -10 Z" /><glyph glyph-name="" unicode="&#x7406;" d="M98 31 l0 15 l62 0 l0 32 l-58 0 l0 119 l132 0 l0 -119 l-58 0 l0 -32 l63 0 l0 -15 l-63 0 l0 -36 l73 0 l0 -15 l-166 0 l0 15 l77 0 l0 36 l-62 0 ZM8 174 l0 15 l80 0 l0 -15 l-32 0 l0 -69 l30 0 l0 -14 l-30 0 l0 -72 q6 1 18 4 q10 2 14 3 q0 -12 1 -17 q-5 -1 -14 -3 q-41 -6 -66 -12 l-3 15 q16 3 34 7 l0 75 l-30 0 l0 14 l30 0 l0 69 l-32 0 ZM176 131 l0 -39 l42 0 l0 39 l-42 0 ZM218 183 l-42 0 l0 -38 l42 0 l0 38 ZM118 183 l0 -38 l42 0 l0 38 l-42 0 ZM118 131 l0 -39 l42 0 l0 39 l-42 0 Z" /><glyph glyph-name="" unicode="&#x74dc;" d="M88 -17 l-9 13 q7 7 11 17 q13 29 17 55 q4 25 4 75 l0 35 q-25 -2 -51 -2 l0 -34 q0 -75 -9 -106 q-7 -34 -32 -66 q-8 6 -14 12 q25 31 31 59 q7 28 7 101 l0 49 q102 4 180 12 l7 -16 q-6 0 -17 -1 q-12 -1 -18 -2 q0 -79 11 -118 q10 -40 42 -78 q-1 -1 -4 -4 q-7 -6 -10 -9 q-33 42 -43 84 q-12 41 -13 124 q-8 0 -25 -2 q-16 -1 -25 -2 l-1 -36 q2 -88 -24 -141 q28 5 55 12 q-10 26 -21 49 l14 6 q7 -16 26 -61 q9 -20 13 -29 l-15 -6 l-11 27 q-15 -1 -44 -8 q-7 -1 -10 -2 q-7 -2 -22 -7 Z" /><glyph glyph-name="" unicode="&#x751c;" d="M111 151 l0 15 l20 0 l0 43 l16 0 l0 -43 l65 0 l0 43 l16 0 l0 -43 l20 0 l0 -15 l-20 0 l0 -180 l-16 0 l0 19 l-65 0 l0 -19 l-16 0 l0 180 l-20 0 ZM7 122 l0 15 l44 0 l0 44 q-18 -2 -38 -2 q0 2 -1 8 q-1 5 -2 7 q48 2 92 5 l3 -14 q-9 -1 -26 -2 q-9 -1 -13 -1 l0 -45 l43 0 l0 -15 l-43 0 l0 -47 l35 0 l0 -101 l-15 0 l0 17 l-55 0 l0 -18 l-16 0 l0 102 l36 0 l0 47 l-44 0 ZM147 71 l0 -68 l65 0 l0 68 l-65 0 ZM147 151 l0 -65 l65 0 l0 65 l-65 0 ZM31 61 l0 -58 l55 0 l0 58 l-55 0 Z" /><glyph glyph-name="" unicode="&#x751f;" d="M22 93 q-6 6 -15 12 q34 39 53 93 l18 -4 q-6 -15 -16 -36 l62 0 l0 53 l17 0 l0 -53 l95 0 l0 -17 l-95 0 l0 -60 l87 0 l0 -16 l-87 0 l0 -65 l108 0 l0 -15 l-241 0 l0 15 l116 0 l0 65 l-89 0 l0 16 l89 0 l0 60 l-70 0 q-14 -25 -32 -48 Z" /><glyph glyph-name="" unicode="&#x7528;" d="M22 -30 q-3 2 -7 5 q-6 4 -9 6 q18 26 23 50 q6 23 6 73 l0 92 l199 0 l0 -192 q2 -30 -32 -30 q-13 -1 -30 -1 q0 4 -2 12 q-1 4 -1 6 q13 -1 29 -1 q19 0 19 16 l0 45 l-76 0 l0 -76 l-17 0 l0 76 l-74 0 q-2 -40 -28 -81 ZM217 180 l-76 0 l0 -49 l76 0 l0 49 ZM141 115 l0 -49 l76 0 l0 49 l-76 0 ZM52 103 q0 -7 -1 -21 q0 -11 0 -16 l73 0 l0 49 l-72 0 l0 -12 ZM52 180 l0 -49 l72 0 l0 49 l-72 0 Z" /><glyph glyph-name="" unicode="&#x7530;" d="M26 -24 l0 217 l204 0 l0 -217 l-17 0 l0 18 l-170 0 l0 -18 l-17 0 ZM136 85 l0 -77 l77 0 l0 77 l-77 0 ZM43 85 l0 -77 l77 0 l0 77 l-77 0 ZM213 177 l-77 0 l0 -76 l77 0 l0 76 ZM43 177 l0 -76 l77 0 l0 76 l-77 0 Z" /><glyph glyph-name="" unicode="&#x7531;" d="M27 -26 l0 190 l93 0 l0 46 l17 0 l0 -46 l92 0 l0 -190 l-16 0 l0 15 l-169 0 l0 -15 l-17 0 ZM44 68 l0 -65 l76 0 l0 65 l-76 0 ZM137 68 l0 -65 l76 0 l0 65 l-76 0 ZM213 148 l-76 0 l0 -64 l76 0 l0 64 ZM44 148 l0 -64 l76 0 l0 64 l-76 0 Z" /><glyph glyph-name="" unicode="&#x753b;" d="M68 28 l0 126 l119 0 l0 -126 l-119 0 ZM22 -15 l0 165 l16 0 l0 -151 l179 0 l0 151 l16 0 l0 -179 l-16 0 l0 14 l-195 0 ZM9 180 l0 15 l236 0 l0 -15 l-236 0 ZM171 141 l-36 0 l0 -43 l36 0 l0 43 ZM135 84 l0 -43 l36 0 l0 43 l-36 0 ZM84 141 l0 -43 l36 0 l0 43 l-36 0 ZM84 84 l0 -43 l36 0 l0 43 l-36 0 Z" /><glyph glyph-name="" unicode="&#x754c;" d="M241 29 q-74 21 -109 63 l-9 0 q-38 -40 -108 -67 q-1 3 -6 10 q-2 3 -3 5 q59 20 96 52 l-71 0 l0 106 l193 0 l0 -106 l-71 0 q32 -31 95 -47 q-1 -4 -4 -10 q-2 -4 -3 -6 ZM48 184 l0 -32 l72 0 l0 32 l-72 0 ZM208 184 l-72 0 l0 -32 l72 0 l0 32 ZM136 138 l0 -32 l72 0 l0 32 l-72 0 ZM48 138 l0 -32 l72 0 l0 32 l-72 0 ZM41 -30 q-6 6 -13 12 q41 18 45 41 q3 12 3 29 l17 0 q0 -15 -3 -29 q-5 -31 -49 -53 ZM164 -28 l0 80 l16 0 l0 -80 l-16 0 Z" /></font>
</defs>
</svg>
